<?xml version="1.0" encoding="utf-8"?>
<!-- Generator: Adobe Illustrator 20.1.0, SVG Export Plug-In . SVG Version: 6.00 Build 0)  -->
<svg version="1.1" id="Layer_1" xmlns="http://www.w3.org/2000/svg" xmlns:xlink="http://www.w3.org/1999/xlink" x="0px" y="0px"
	 viewBox="0 0 1280 800" style="enable-background:new 0 0 1280 800;" xml:space="preserve">
<style type="text/css">
	.st0{fill:#FFFFFF;}
</style>
<title>cropped-zodiac-illustrations</title>
<g id="sagittarius_2_">
	<path class="st0" d="M1043.4,45.2c0,0-20.4,27.4,6.2,106.5c29.3,87.3,51.8,89,42.8,122.7c-8.9,33.7-37.9,44-37.9,44
		s16.1-23.6,10.7-52.9c-5.4-29.3-16.8-60.1-31.4-91.8C1019.4,142,1023.4,77.5,1043.4,45.2z"/>
	<path class="st0" d="M962.5,659c0,0-14-31.1,29-102.6c47.4-79,69.7-75.8,68.3-110.6c-1.4-34.8-27.5-51.1-27.5-51.1
		s10.6,26.5-0.9,53.9c-11.5,27.4-29.4,55.1-50.4,82.9C960,559.3,950,623.1,962.5,659z"/>
	<polygon class="st0" points="838.7,212.1 1037.9,53.6 837.8,197.1 	"/>
	<polygon class="st0" points="959.6,665 886.6,526.1 893.3,513.2 	"/>
	<path class="st0" d="M851.3,37.4c-0.5-8.2-21.6-29.8-61.5-31c-39.9-1.2-61.1,13.3-69.1,43.3c-8,30-10.5,54.8-24.4,56.5
		c-13.8,1.7-13.8,1.7-13.8,1.7s-7.3,7.4,21.4,20.4c28.7,13,46.6,16.4,46.6,16.4s-2-17.9,5.4-25.4c7.3-7.4,13,11.5,14.8-5.5
		c1.8-16.9,2.7-35.5,9.8-52.3c7.1-16.9,20.8-28,4.7-22.9C769.3,43.8,758,60.9,758,60.9s4.5-27,22.4-28.9
		c17.9-1.9,16.2,9.7,36.6,13.7C837.4,49.8,851.3,37.4,851.3,37.4z"/>
	<path class="st0" d="M838.5,60.8c0,0,6,17.7,12.5,28.8c6.4,11.1,9.4,25.3,1.2,25.8c-8.2,0.5-8.9,8.4-7.4,12.8
		c1.5,4.4-3.6,13.8-23.9,4.4c-20.3-9.4-32.2-9.9-30.5-21.5c1.7-11.6-8.9-11.8-4.6-28C790,66.7,824.5,47.7,838.5,60.8z"/>
	<path class="st0" d="M851.8,136.7c0,0,22.3,1.9,15.2,13.4c-7.1,11.5-18.4,13.9-36.9,7.7c-18.4-6.2-24.9,8.1-24.9,8.1
		s3.2-7.2-14.2-17.1c-17.5-10-26.4-21.7-26.4-21.7s19.4,7.8,45.7,14.8C836.6,148.8,859.9,141.5,851.8,136.7z"/>
	<path class="st0" d="M613.4,227.7c0,0-15.6,13.3,9.5,14.6c25.1,1.3,53.4,0.7,83.2,4.6c29.8,3.9-32.1-3.7-58.2,2
		C603.8,258.6,548.5,240,613.4,227.7z M749.3,149.7c0,0,6.4,16.4-12.5,16.8c-18.9,0.4-29.5,0.2-66.4,7.9
		c-36.9,7.6-94.1,31.4-103,45.1c-9,13.7-17.5,35.6,12.8,47.6c30.3,12,66.8,11,97.6,5.8c30.9-5.2,53.8-5.8,71.3-1.2
		c17.5,4.6,34-1.7,36.6,8.4c2.7,10.1,8.9,17.1-12.7,12.7c-21.6-4.4-48.6-8.9-36.1-0.2c12.4,8.7,13.6,14.3,27.7,16.7
		c14.1,2.4,17.6-0.7,37.5-4.8c19.8-4.1,37.5-4.8,36.1,5.5c-1.4,10.3-17.3,24.9-43.9,19.2c-26.6-5.7-37.2-11.2-37.2-11.2
		s10.3,26.9,40.8,28.2c30.5,1.4,36.8-2.3,36.8-2.3s18.6-4.5,14.4-19c-4.2-14.5-3-29,2.8-40.8c5.8-11.9,1.6-26.4-3.8-41.2
		c-5.5-14.8-2-11.6-9.1-30.7c-7.1-19.1-10.7-30.8-9.7-34.5c1-3.8-11.3,2.4-37.9-8.7C764.5,157.8,749.3,149.7,749.3,149.7z"/>
	<path class="st0" d="M700.3,278.8c0,0,7.8,6.1,21.8,39.3c14,33.2,28.7,58.5,62.3,63.4c33.5,4.9,48-19.5,48-19.5s19.8-4.1,15.2,13.4
		c-4.6,17.5-4.4,21.6-0.4,32c3.9,10.4,0.6,23,8.2,19.6c7.6-3.4,21-18.6,14.9-30.9c-6.1-12.4,3.9-29.8,13.4-15.2
		c9.5,14.6,9.1,26.5,2,38c-7.1,11.5-13.7,11.1-20.5,26.7c-6.8,15.6-15.9,34.7-15.9,34.7s3.5,17,14.1,2.4
		c10.6-14.6,34.1-58,40.1-40.3c6,17.7-1.9,51.1-10.2,70.7c-8.3,19.5-27.7,37.2-43.3,50.5c-15.6,13.3-56.6,26.5-44.7,52.5
		c11.9,25.9,13.9,38.5,53.3,57c39.3,18.5,62.3,37.9,38.3,47.7c-24,9.7-81.2,33.4-101.2,48.2c-20,14.8-20.4,21.4-37,18.3
		c-16.6-3.1-19.4-2.5-38.4,3.2c-18.9,5.7-54.1,1.8-54.1,1.8s14.3-13.6,24.8-22.9c10.5-9.3,20.7-17.3,20.7-17.3s5.5,9.5,22.1,12.6
		c16.6,3.1,25.1,1.3,25.1,1.3s2.9-5.9,12.1-10.2c9.2-4.3,12.3-0.8,31.9-9c19.6-8.2,51-30.7,54.8-35.1c3.8-4.4,3-11.3-27.3-23.3
		c-30.3-12-74.3-33.1-87-45.8c-12.7-12.7,11.8-14.3-7-19.2c-18.8-5-33.9-3.6-23.1,11.3c10.8,14.9,19.6,37.4,35.1,49.5
		c15.5,12.2,41.2,21.6,20.7,28.2c-20.5,6.6-28.8,17.8-71.4,26.7c-42.5,8.8-62.1,11.7-69,12.5c-6.9,0.9-16.6-3.1-41.9-13.8
		s-31.7-27.1-47-29.9c-15.4-2.7-9.3-10.5,10.6-14.6c19.8-4.1,35.9-3.9,35.9-3.9s-3.4,17.9,7.8,26.2c11.2,8.3,15.5,17.5,26.5,16.4
		c11-1.1,17.1-8.9,39.4-12.3c22.4-3.4,52.3-10.3,62.7-14.2c10.4-4,15-16.1-8.1-24.9c-23.1-8.8-20.8-17.6-49.6-25.2
		c-28.8-7.6-42-28.5-41.9-39.2c0.1-10.7,0.1-10.7,0.1-10.7s-56.9-17.8-85.8-65.6c-28.9-47.8-28.2-75.8-24.5-135.1
		c3.6-59.3-11.8-142.5-88.1-127.8c0,0-26.7,19.7,2.2,22c28.9,2.3,65.7,20.1,52.4,50c-13.3,30-34.2,43.2-61.2,64.2
		c-27,21-51.4,37.3-83.3,46.3c-31.9,9-42.8,4.7-30.7-30.9c12.1-35.6,35.9-49.4,45.9-72.2c10.1-22.8,19.8-44.3,29.5-45.8
		c9.8-1.4,16.5-11.7,10.7-25.3c-5.8-13.6-31.7-27.2-51.4-8.3c-19.7,18.9-39.4,52.6-69.5,70.1c-30.1,17.5-75.5,6.8-72.5-70.1
		c0,0,10.6,43.1,50.4,12c106.4-83,90.8-160.8,154-141.4c63.2,19.4,31.8,107.6,31.8,107.6s-1.1,9.1,24.5,3.8
		c25.5-5.3,44.9-17.6,80.5,14.6c35.7,32.2,48.3,50.3,97.6,76.8c49.3,26.4,111.3,20.1,76.6-15.9c-34.7-36-31.5-37.8-25.5-45.6
		C693.1,280.9,700.3,278.8,700.3,278.8z M823.3,452.1c-1,3.8-4.8,48.3-16.1,76.1c-11.4,27.8-29.2,44.5-52.3,55.8
		c-23.1,11.3-32.9,12.7-32.9,12.7s24,10.4,44.9,2.5c20.8-7.9,58.9-35.3,72.9-67.8c14-32.5,15.6-39.8,15.6-39.8s-17.7,7.1-21-5.9
		C831.2,472.9,823.3,452.1,823.3,452.1z"/>
	<path class="st0" d="M889.3,195.6c0,0,20.4,10,15.3,40.9c-5.1,30.9-14.3,42.3-14.3,42.3s16.9-0.1,10.6,18.2
		c-6.4,18.3-14,23.9-23.3,18.4c-9.3-5.5,7.8-17.9-3.2-28.5c-11-10.6-14.2-16-14.2-16s13.5-10.3,6.5-24.4c-7-14.1-17.8-13.9-8.7-25.3
		C867.2,209.7,865.6,192.4,889.3,195.6z"/>
	<path class="st0" d="M896.2,326.4c-16.2-7.6-20.7,8.4-26.6,25.2c-6,16.8-5.6,15.4,10.2,19.6C895.5,375.4,911.2,333.5,896.2,326.4z"
		/>
	<path class="st0" d="M913.1,349.4c6.2-11.9,11.2-1.6,19.3-14.9c8.1-13.2,20-11.6,41.1-4.5c21.2,7.1,13.8,17.5,17.6,26.2
		c3.8,8.7,15.2,24-22,24.9c-37.1,0.9-47.2,4.4-58.4,6C899.6,388.8,906.8,361.5,913.1,349.4z"/>
	<path class="st0" d="M1006.1,346.3c11.6-3.1,12.4-12.1,16.5-21.8c4.1-9.7,11.5,3,26.6,4c15.1,0.9,36.4-4.2,30.1,8
		c-6.3,12.1-12.6,24.3-12,33.7c0.6,9.4-11.1,18.6-19.2,8.7c-8.2-9.8-14.7-8.5-29.8-9.4C1003.3,368.6,1006.1,346.3,1006.1,346.3z"/>
	<path class="st0" d="M497.1,371.3c0,0-24.1,50.5-16.8,92.3c7.3,41.9,43.1,86.7,43.1,86.7s-30.1-14.1-43.8-37.7
		C466,489.1,466,489.1,466,489.1s-73.9,6.5-103.1,58.7c-29.2,52.2-42.9,80.8-34.8,96.8c8.1,16,4.6,35,4.6,35s12.8,9.5,11.2,21.4
		c-1.6,11.9-3.1,17.6-3.1,17.6L308.4,707c0,0-1.6-17.3,2.4-20.9c4-3.6,13.9-17.8,1.5-28.8c-12.5-11-17.3-27.6-10.3-36.5
		c7-8.9,19.5-27.1,32.1-57.6c12.7-30.4,21.2-51.2,29.6-59.7c8.4-8.5,27.4-28.1,52-33.9c24.6-5.8,40.2-12.4,40.2-12.4
		s-33-8.7-51.8-7.6c-18.7,1.2-18.7,1.2-18.7,1.2s16.7-10.9,51.3-37.1c34.6-26.2,52.3-58.3,52.3-58.3S501.6,360.2,497.1,371.3z"/>
	<path class="st0" d="M305.8,478.9c0,0-35,27.6-54.8,56.2c-19.8,28.5-33.1,49.6-33.4,68c-0.3,18.4,3.1,34.6,5.9,41.5
		c2.8,6.9,14.6,14.6,13.3,25c-1.2,10.4-0.3,18.4-0.3,18.4l-49.9-14.7c0,0-4.8-16.6,4.6-23.3c9.5-6.7,15.4-17.5,13-25.8
		c-2.4-8.3-9.6-10.2-10.5-24.3c-0.9-14.1,4.7-29.5,18.3-45.8c13.6-16.4,20.7-14.5,24.7-41.1c4-26.6,2.2-54.7,18.2-62.8
		c16-8,26.3-0.7,33,8.7C294.8,468.3,305.8,478.9,305.8,478.9z"/>
</g>
</svg>
