<?xml version="1.0" encoding="utf-8"?>
<!-- Generator: Adobe Illustrator 20.1.0, SVG Export Plug-In . SVG Version: 6.00 Build 0)  -->
<svg version="1.1" id="Layer_1" xmlns="http://www.w3.org/2000/svg" xmlns:xlink="http://www.w3.org/1999/xlink" x="0px" y="0px"
	 viewBox="0 0 1280 800" style="enable-background:new 0 0 1280 800;" xml:space="preserve">
<style type="text/css">
	.st0{opacity:0.5;}
	.st1{fill:#FFFFFF;}
</style>
<g id="aries_1_" class="st0">
	<path class="st1" d="M591.7,553.2c0,0,64.1-24.7,104.2-107.4c40-82.8,49.2-153.1,47.3-158c-1.9-4.9-13.7-29.8-60.6-36.7
		c-46.8-6.9-57.8,8.7-104.9-56.4c-47.1-65.1-57.7-91-106.9-85.1c-49.2,5.9-88.1,27.1-98.4,72.4c-10.3,45.3-14,96-55,114.6
		c-41,18.6-60.8,15.5-60.5,36.9c0.3,21.4-35.7,74.9-41.6,99.2c-5.9,24.3,1,51.1-11,52.4c-12,1.2-12,1.2-12,1.2l41.4,50.3
		c0,0,13.8-20,9.2-33.5c-9.1-26.5-18.4-24.9,9.7-88.1c13.7-30.7,34.2-71.5,53.5-74.4c19.3-2.9,55.3,17.2,108.4-28.7
		c53.1-45.9,79.9-89.6,79.9-89.6s33.5,46,14.5,120.1c-19,74.1,6.8,126.5,6.8,126.5s88.3-103,123.7-88.9
		c35.4,14.1,22.2,40.1-5.8,35.1c-28-5.1-93.1,42-129.3,84.8c-36.2,42.8-52.1,60.3-88.9,97.1c-36.8,36.8-61.3,57-61.3,57
		s8.7,21-1.7,29.5c-10.3,8.5-29.2,19.7-29.2,19.7l39.5,45.4c0,0,10.2-19.2,10-29.9c-0.2-10.7,3-30.6,17.6-47
		C405,655,476,583.6,512.1,566.9C548.1,550.2,563,568.2,591.7,553.2z"/>
	<path class="st1" d="M498,478.9c0,0-22.2-16.4-20.6-56.6c1.5-40.2,4.8-86.2,9.9-114.2c5.1-28,5.9-61.2,5.9-61.2s-15,44.8-41.4,60.1
		c-26.4,15.2-34.2,21.6-22,67.9c12.1,46.3,35.1,103.1,44.7,114.7C484,501.2,498,478.9,498,478.9z"/>
	<path class="st1" d="M413.3,336.5c0,0-3.9,40-2.7,52c1.2,12-15.5,12.7-36.5,21.4c-21,8.7-28,19.4-49.8,60.5
		c-20.3,38.4-34.6,63.1-34.6,63.1s18.4,30.3,12.1,46.3c-6.3,16-11.9,25-11.9,25l-38.5-44.1c0,0,17-16.2,20-23c3-6.8-5.8-25.5,5.2-41
		c11-15.6,39-47.3,40.8-66.1c1.8-18.8,13.2-52.7,31.5-56.3C373.3,369.4,413.3,336.5,413.3,336.5z"/>
	<path class="st1" d="M769.8,283.1c-10.1-12.2-17.4,7.8-26.9,56.8s-23.4,118.8-73,166.2c-49.7,47.4-83.5,53.6-66.1,69.6
		c17.5,15.9,44.1,35.1,80.3,29.1c36.2-6,52.2-36.5,28.4-36.4c-23.7,0.1-52.3,12.8-61.7,11.8c-9.4-0.9-16.8-9.9-16.8-9.9
		s55.2-6.5,75.1-40.2c19.9-33.7,48.5-109.3,57.2-161.8C775,315.7,775.1,289.6,769.8,283.1z"/>
	<path class="st1" d="M831.3,334.2c12.5-19,24.9-48.6-1.1-61.8c-26-13.2-45,11.1-42,54.1c3,43-22.9,114.1-40.3,158.7
		c-17.4,44.6-33.1,72.8-33.1,72.8s30.9,24.4,67.6,0.6c36.7-23.8,72.3-72.5,80.3-94.3c8-21.8,0.4-41.5-12.2-70
		C837.8,365.7,831.3,334.2,831.3,334.2z"/>
	<path class="st1" d="M526.2,3.2c0,0-51.1-12.1-67.9,14.8c-16.8,26.9-45.4,52.6-31.6,69.4c13.8,16.8,55.1,19.6,51.6-5.7
		C474.8,56.4,484.6,15.8,526.2,3.2z"/>
	<path class="st1" d="M576.2,579c-27.6-3.6-36.5-15.4-87.3,30.7c-50.7,46.1-78.7,64.8-83,72.7c-4.3,7.9,4.6,13.5-2.7,28.2
		c-7.4,14.7-8.5,26.5-14.9,31.8c-6.4,5.3-12.3,16.6-12.3,16.6l37.6,40.4c0,0,12.1-14.3,7.9-32.5c-4.2-18.2-9.3-27-9.3-27
		s13.8-20,19.7-31.3c5.8-11.3,30-39.8,56.4-55.1c26.4-15.3,55.4-32.6,79.6-37.4C592.1,611.4,610.2,583.5,576.2,579z"/>
	<path class="st1" d="M950.9,185.3c1.9,41.2-13.9,66.8-51.4,90.9c-37.5,24.1-68.8-26.9-68.7-61c0.1-34.1,39.9-54.2,56.6-56.3
		c16.7-2.1,27.1-5.5,32.3-15c11-19.7,2.7-45,4.8-43.8C943.7,111.6,949,144.1,950.9,185.3z M882,209c-5.4,17.1,24.6,26.3,36.4,14.7
		c11.8-11.7,3.8-50.8,3.8-50.8C914.9,199.4,887.4,192,882,209z"/>
	<path class="st1" d="M968,168.3c0,0,15.4-0.1,19,29c3.6,29.1-23,45.2-23,45.2s13.3-16.8,2.8-40.2
		C956.3,178.9,959.9,164.3,968,168.3z"/>
	<path class="st1" d="M1007.5,326.4c-20.1,20.1-16.1,37.7-30.8,51.6c-14.7,13.9-7.9,32.7-28.2,44.2c-20.2,11.4-19.7,35.4-12.2,46.7
		c7.5,11.3,3.6,31.9-10.2,36.3c-13.8,4.4-18-11.3-21.8-41.3c-3.8-30-21.4-55.7-42-80.6c-20.6-25-13.5-58.7-2-68.1
		c11.4-9.4,35.3-18.6,53-33.2c17.7-14.6,40.2-29.6,54.1-25.4c13.9,4.2,26.4-36.5,40.9-26.7C1028,243.2,1027.6,306.3,1007.5,326.4z
		 M956,314.7c1.1-23-28.7-9.5-22.3,13.2C940.1,350.5,955,334.7,956,314.7z"/>
	<path class="st1" d="M1037.9,278.6c0,0,7.2,34.2-12.4,59.1c-19.6,24.9-36.6,31.9-36.6,31.9s31.3,12.6,58.5-11.6
		C1074.7,333.8,1096.3,258.4,1037.9,278.6z"/>
	<path class="st1" d="M1085.9,336.8c0,0-22.7,46.6-51.9,51.4c-29.2,4.8-46.4,5.1-46.4,5.1s27.4,33.3,61,12.6
		C1082.2,385.2,1092.4,368.1,1085.9,336.8z"/>
	<path class="st1" d="M973,445.5c-0.5,27.8-13.3,38.9-22.9,29.4c-9.6-9.5-16.3-19.8-6.5-31.3C953.2,432.1,973.7,408.2,973,445.5z"/>
</g>
</svg>
