<?xml version="1.0" encoding="utf-8"?>
<!-- Generator: Adobe Illustrator 20.1.0, SVG Export Plug-In . SVG Version: 6.00 Build 0)  -->
<svg version="1.1" id="Layer_1" xmlns="http://www.w3.org/2000/svg" xmlns:xlink="http://www.w3.org/1999/xlink" x="0px" y="0px"
	 viewBox="0 0 1280 800" style="enable-background:new 0 0 1280 800;" xml:space="preserve">
<style type="text/css">
	.st0{opacity:0.5;}
	.st1{fill:#FFFFFF;}
</style>
<title>cropped-zodiac-illustrations</title>
<g id="capricorn_2_" class="st0">
	<path class="st1" d="M896.3,388.1c-3.5-11.2,21.5-17.7,28.1,3.1c6.6,20.7-15.9,31.9-15.9,31.9C915.7,415.2,899.7,399.3,896.3,388.1
		z M886.7,327.6c0,0-9.9-36.1-33.5-15.6c-23.6,20.5-39.6,40.6-30.3,67.7c9.3,27,27.8,59.3,23.7,80.9c-4.1,21.6-0.7,32.8-12.6,47.3
		c0,0,18.9,23.8,34.8,7.9c15.9-15.9,16.7-27,36-47.6c19.4-20.7,28.1-18.7,47.4-39.4c19.4-20.7,40.9-48.4,40.9-48.4s11,0.8,27.4,14.1
		c16.4,13.3,23.3,9.7,23.3,9.7s-10.7-9.2-15.1-21.1c-4.4-11.9-20.8-25.2-20.8-25.2s14.8-28.3,1-73.1
		c-13.8-44.7-54.1-76.9-105.5-99.7C852.1,162.1,775,114.9,736.3,66.5c0,0,6.8,32.4,75.7,81c68.9,48.6,100.9,60.3,132.9,87.9
		c32,27.6,42.6,62.8,38.5,68.5c-4.1,5.7-20.5,8.3-24.4-16.2c-3.9-24.5-12.1-39.2-62.4-71.4c-50.4-32.2-95.2-50.3-148.9-93.7
		c-89.4-72.1-102.3-122-102.3-122S635,56.6,739.9,131.3c104.9,74.7,149.5,97,169.4,117.3c20,20.3,25.3,32.8,15.5,34.4
		c-9.8,1.5-11.2,19.4-14.4,9.8c-3.2-9.5-10.2-21.8-10.2-21.8s-13.3-9.6-16,10.1c-2.8,19.7,11,16.7,11.9,27.5
		C897.1,319.2,886.7,327.6,886.7,327.6z"/>
	<path class="st1" d="M823.5,446.6c0,0-19.4,20.7-29.4,36.5c-10.1,15.9,1,22.5-4.7,44.3c-5.8,21.9-13.1,28.1-13.1,28.1
		s10.5-18.4,29.7-34.9C825.1,504.1,845.6,438,823.5,446.6z"/>
	<path class="st1" d="M857.9,293.6c0,0,9.6-3.2,8.9-18.2c-0.7-15-13.2-19.7-41-31.2c-27.8-11.5-91.8-19-125-1.1
		c-33.2,17.8-51,48.3-118.8,70c-67.8,21.6-111.5,10.2-177.4,7.2c-65.8-3-126.3,6.6-157.2,81.1c-30.9,74.5,5,142.5,81,167.3
		c76,24.8,151-62.5,128.1-122.5c-22.9-60-90.6-125.1-139.6-50.8c-43.2,65.5,69.4,125.6,70.6,54.2c0,0,31.7,52-33.3,59.7
		c-65,7.8-94.2-81.4-60.3-126.2c34-44.8,78.8-52.7,111.9-34.5c33.1,18.2,102.2,68.4,70.6,159.7l82.6,61.5c0,0,1.5-12,2.5-21.3
		c1-9.4,6.4-38.7,19.9-33.3c13.4,5.4-1.3,23.7,1.7,53.4c3,29.7,15.5,60.4,31.2,96.4c15.8,36,23.4,61.4,18.4,68.3
		c-11,15.2-103-63.3-103-63.3s27.6-32,3.6-40.8c-24-8.8-36.9-10.9-36.9-10.9s-5.2,15.1,3.3,31.3c8.4,16.3,11.3,34.3,11.3,34.3
		s5.3,12.6,34.9,29.7c29.5,17.1,55.8,34.7,74.3,51.1c18.5,16.3,38.3,9,42.1-14.2c3.8-23.2,2.2-54.8-7.7-91
		c-9.9-36.1-9.9-36.1-9.9-36.1s35,9.5,58.4,9.2c23.4-0.4,48.2-2.6,65.7,7.2c17.5,9.8,2.2,8.9,6.6,20.7c4.4,11.9,4.4,11.9,4.4,11.9
		s-18.8,23.9-29.7,44.9c-10.9,21-19.6,35-19.6,35l-21.1-16.8l-48.9,61.4c0,0,19.5,7,40-1.3c20.5-8.3,28.9-23.9,28.9-23.9
		s16.4,3.3,33-19.5c16.5-22.7,32.9-51.3,50.6-71.7c17.7-20.4,31.4-29.3,18-44.8c-13.4-15.5-24.5-12-44.3-20.6
		c-19.8-8.6-50.6-33.9-52.4-39.5c0,0-4.4,20-30.2,31.6c-25.8,11.6-57.4-2.6-57.4-2.6s-5.1-26.8,14.2-37.4
		c19.3-10.6,43.9-24.6,31.9-73.8c-12-49.2-38.7-80.2-38.7-80.2s52.6-6.7,56.8,51.3c4.2,58-5.2,88.8-18.8,103.5
		c-13.6,14.7-28.5,21.3-28.5,21.3s38.6,10.6,55-33.9c16.4-44.5,17.8-62.3,14.5-93.6c-3.3-31.3-10.7-57,19-101.9
		c29.7-45,49.7-72.4,64.7-57.2c15,15.2-56.4,45.8-66.9,96.1c-10.5,50.3,2.9,65.7-4.1,85.3c-7,19.5-7,19.5-7,19.5s5.7-11.8,25.6-39.3
		c19.9-27.5,40.5-45.8,40-65c-0.5-19.2-7.3-29.8,7.6-52.3C826.7,324.5,857.9,293.6,857.9,293.6z"/>
	<path class="st1" d="M555.7,237.7c0,0-23.2-45.6-82.5-33.8c-42.2,8.4-58.4,38.6-58.4,38.6s-12-33.3-59.2-56
		c-47.2-22.7-72.5,2.3-72.5,2.3s41.6-7.4,61.8,30.4c20.3,37.8,25.7,56.3,7.6,85.1l75,2.3c0,0,9.6-45.1,31.9-57.9
		C481.7,236,497.8,199.9,555.7,237.7z"/>
</g>
</svg>
