<?xml version="1.0" encoding="utf-8"?>
<!-- Generator: Adobe Illustrator 20.1.0, SVG Export Plug-In . SVG Version: 6.00 Build 0)  -->
<svg version="1.1" id="Layer_1" xmlns="http://www.w3.org/2000/svg" xmlns:xlink="http://www.w3.org/1999/xlink" x="0px" y="0px"
	 viewBox="0 0 1280 800" style="enable-background:new 0 0 1280 800;" xml:space="preserve">
<style type="text/css">
	.st0{opacity:0.5;}
	.st1{fill:#FFFFFF;}
</style>
<title>cropped-zodiac-illustrations</title>
<g id="taurus_1_" class="st0">
	<path class="st1" d="M878.5,0.5c0,0,93.1,51.2,62,96.6c-29.4,42.9-83,70.5-23.2,87.9c70.2,20.3,152.1,53.9,170.9,126.5
		c18.8,72.6-39.9,127.9-39.9,127.9s-18.6-21.6,0.2-32.1c25.9-14.5,41.2-60,30.5-91c-10.6-31-41.6-79.3-108.1-101.2
		c-66.5-21.9-102-25.8-98.6-81C876.1,69.9,933,73.5,878.5,0.5z"/>
	<path class="st1" d="M437.4,207.6c0,0,21.4-57.6,91.9-101.6C599.8,62.1,668,27,722,78.5c54,51.5,89.4,116.1,155.9,166.6
		c66.6,50.5,144.4,92.7,147.2,192.9c2.8,100.2-29.2,128.6-49.6,139.8c-20.3,11.3-66.6,8.4-46.3,27.5c20.3,19.1,30.8,21.5,6.4,41.5
		c-24.4,19.9-63,67.6-74.6,81.2c-11.5,13.6-31,10.6-24.9-1.5c6.1-12.1,47.8-52.5,57.6-66.1c9.8-13.7,18.6-41.7,7-56.7
		c-11.6-15-22.5-40.7-30.1-92.9c-7.5-52.2-7-120.1,27.1-151.9c0,0-53.9,5.6-58.3,48.2c-4.4,42.6-5.1,55-5.1,55s-19.2-6.5-53.1,21.8
		c-33.9,28.3-45.4,41.9-45.4,41.9l-64.1-3.9c0,0,76.6-56.1,76.6-115c0-58.9-20.4-76.2-20.4-76.2s20.5-53.9,8.6-112
		c-9.6-47-40.7-65-40.7-65s19.6,29.8,24.8,90.8c5.2,61-8.2,76.3-8.2,76.3s27.6,44.5,14.4,86.6c-13.3,42.1-39.9,69-49.8,84.5
		c-9.9,15.5-11.8,17.1-35.4,24.6c-23.7,7.5-68.1,33.4-76.1,47.2c-8,13.8-13.5,45.6-7,56.7c6.5,11.1,27.1,24.9,41,31.1
		c13.9,6.2,9.7,45.2,9.7,45.2s-36.7-12.9-43.1-25.8c-6.4-12.9-29.3-46.4-44.5-61.6c-15.2-15.2-28-39.2,3.8-62.3
		c31.8-23.1,58.3-48.2,62.2-83.7c3.9-35.5,5.8-65.7,20.8-77.3c15-11.6-44-9.8-41.5,36.8c2.5,46.6-4.3,71.2-29.7,76.8
		c-25.3,5.6-14.2-31.2-23.4-55c-9.3-23.8-20.1-51.2-20.1-51.2s30,5.4,34,28.9c3.9,23.4,4.1,50.2,20.3,47.7
		c16.2-2.6-0.9-44.7,8.2-76.3c9.1-31.6,30.3-57.1,53.2-82.5c23-25.4,57-114.4-10.1-127.4c-67.1-13-87.1,51.8-87.1,51.8
		s1.8-30.2-12.4-31.1C485.9,203.4,437.4,207.6,437.4,207.6z"/>
	<path class="st1" d="M478.2,270.8c0,0,36.8-17.4,59.4-37.5c22.7-20.1,54.6-46.7,72.4-15.2c17.7,31.4,11.9,40-17.2,77.5
		c-29.1,37.5-45.2,66.9-50.2,91.6c-5.1,24.7-10.7,29.7-10.7,29.7s-3.7-27-15.9-31.3c-12.2-4.3-12.2-4.3-12.2-4.3s11.2-36.8,6-69.3
		C504.5,279.5,478.2,270.8,478.2,270.8z"/>
	<path class="st1" d="M753.6,528.6c0,0,24.6-23.5,48.6-36.3c24-12.8,31.5-19.5,38.7,9.5c7.2,29,17.1,42.1-16.6,38.3
		C790.6,536.2,753.6,528.6,753.6,528.6z"/>
	<path class="st1" d="M761.5,545.2l65.6,7.6c0,0,0.6,19.7,12,38.2c11.4,18.5,22.9,35.3,0.6,48.3c-22.2,12.9-46.9,36.4-56.6,50.1
		c-9.8,13.7-9,1.2-24.7-5.1c-15.7-6.3,1.1-17.8,17.6-25.7c16.5-7.9,46.4-29.3,40.2-44c-6.3-14.7-22.4-42.4-38-50.5
		C762.7,556,761.5,545.2,761.5,545.2z"/>
	<path class="st1" d="M489.6,435.8c0,0-0.7,41,16.2,56.3c16.9,15.3,27.4,19.5,27.4,19.5s-4.7,19.4-36,33.5
		c-31.2,14.2-40.4,19-43.4,38.4c-3,19.5,13.7,38.3,23.3,56.8c9.6,18.4,23.4,26.4,23.4,26.4l-6.2,13.9l-26.8,0.2
		c0,0-14.2-31.2-30.7-53.7c-16.5-22.4-30.9-50.1-13-79.4c17.9-29.3,50.8-41.6,53.9-64.6C481,460.3,489.6,435.8,489.6,435.8z"/>
	<path class="st1" d="M449,281.5c0,0-13.3,13.5-31.5,19.5c-18.2,6-15.3-13.4-3.5-30.6c11.8-17.1,72.1-40.3,72.1-40.3L449,281.5z"/>
	<polygon class="st1" points="664.7,663 620.1,662.9 618.3,696.8 650.3,734.3 653.9,705.7 649,691.9 662.9,680.8 	"/>
	<path class="st1" d="M680.5,733.1c0,0,25-28.8,41.3-33.2c16.3-4.4,40.8,4.3,40.8,4.3l-7.8,40.6c0,0-29.6-12.5-43.9-11.6
		C696.5,734.1,680.5,733.1,680.5,733.1z"/>
	<path class="st1" d="M759.9,777.2c0,0,19.9-34.5,46.7-34.7c26.8-0.2,33.5,7.4,27.5,17.7c-6,10.3-31,39.2-31,39.2
		s1.3-21.3-14.8-20.5C772.3,779.8,759.9,777.2,759.9,777.2z"/>
	<path class="st1" d="M510.5,649.6l-1.7,28.5c0,0,7.8,18.3,29.1,21.4c21.2,3.1,0.8-12.5,1.6-26.7c0.9-14.2,0.9-14.2,0.9-14.2
		S513.7,656.9,510.5,649.6z"/>
	<path class="st1" d="M392.3,126.3c0,0,33.2,41.3,32.2,87.7c-1,46.4-17.5,52.5-38.3,42.3c-20.8-10.2-10.7-29.2,2.5-40.9
		C401.9,203.7,401.4,153.6,392.3,126.3z"/>
	<path class="st1" d="M223.5,230.3c0,0-33.6,53.3,1.2,67.9c34.8,14.6,44.1,9.8,44.1,9.8l-5.8,37.1c0,0-54.4,5.9-69.5-31
		C171.7,261.1,223.5,230.3,223.5,230.3z"/>
	<path class="st1" d="M272.9,358.3c0,0-19.2-6.5-27.4,10.8c-8.2,17.4-16.9,43.6-16.9,43.6s18.6-11.4,35.1-19.3
		c16.5-7.9,18.8-14.9,18.8-14.9S271.9,374.3,272.9,358.3z"/>
	<path class="st1" d="M310.1,362.4c-21.8,5.8-30.6,3.5-34-28.9c-3.4-32.3-3.8-55.6,29.6-75c33.3-19.4,45.1-8,50-0.5
		c4.9,7.4,28.5,1.7,26.7,30.2c-1.7,28.5,6.8,34.3,31.9,34.1c25-0.3,26.2-19.8,52-32.6c25.8-12.7,29.7,10.7,33,44.9
		c3.3,34.1-23.2,57.5-33.3,78.3c-10.2,20.8-10.6,56.5-10.6,56.5s-26.5-5.2-34.9-12.8c-8.5-7.7,0,0-7.1-0.4c-7.1-0.4-34,1.5-34,1.5
		s-4.9-7.4-12.4-31.1c-7.5-23.7-17.8-29.7-37.1-36.2c-19.2-6.5-8.1-13,19.1-20.3c27.2-7.3,46.8-29,32.4-33.7
		C355.1,327.6,331.9,356.5,310.1,362.4z M426.6,385.5c11.4-11.8,12.7-33.2,15.5-49.1c2.8-15.9-22.5,18.3-32.6,37.3
		C409.4,373.8,415.2,397.3,426.6,385.5z"/>
	<path class="st1" d="M378.6,470.1c0,0,16.4-6.1,28.7-1.8c12.2,4.3,11.3,20.3,18.8,13.6c7.6-6.7,25.2-3.8,25.2-3.8
		s-8.7,26.3-23.5,34.3c-14.8,8-18,2.5-37.6,1.3C370.7,512.5,378.8,495.1,378.6,470.1z"/>
</g>
</svg>
