<?xml version="1.0" encoding="utf-8"?>
<!-- Generator: Adobe Illustrator 20.1.0, SVG Export Plug-In . SVG Version: 6.00 Build 0)  -->
<svg version="1.1" id="Layer_1" xmlns="http://www.w3.org/2000/svg" xmlns:xlink="http://www.w3.org/1999/xlink" x="0px" y="0px"
	 viewBox="0 0 1280 800" style="enable-background:new 0 0 1280 800;" xml:space="preserve">
<style type="text/css">
	.st0{opacity:0.5;}
	.st1{fill:#FFFFFF;}
</style>
<title>cropped-zodiac-illustrations</title>
<g id="virgo_2_" class="st0">
	<path class="st1" d="M970.2,473.6c0,0,15.3-5.4,85,13.8c69.7,19.2,122,39.3,50.7,54.8c-71.3,15.5-112.8,26-232.3,87.3
		c-119.5,61.3-237.8,132.7-279.3,170c0,0-1.6-22.5,30.8-44.8c32.4-22.3,32.4-22.3,32.4-22.3s-40.2,17.1-28-6.5
		c12.2-23.6,19.7-34.2,27.7-36.2c8-2,26.3-8.7,49-21.2c22.8-12.4-13.3-17-11.5-28.5c1.7-11.5,41.8-21.3,84.4-48.4
		c42.7-27.1,52.8-55.1,60.3-39c7.5,16.1-20.9,50.8-2,49.1c18.9-1.7,62.1-23.7,104.8-50.8C984.8,523.9,993.8,482.2,970.2,473.6z"/>
	<path class="st1" d="M669.4,162.7c-7.3,3.4-14.3-7.6-21.6-4.2c-7.3,3.4-9.8,17.1,0.5,35.5c10.4,18.3,18.1,27.2,40.8,45.2
		c22.7,17.9,15.2,28.6,50.2,46.2c35,17.6,78,33.1,100.4,35.2c22.4,2,42.1-5.4,50.9,17.2c8.8,22.6,16.9,17.1,28.5,15.2
		c11.6-1.9,6.2-17.2-5.4-42.1c-11.6-24.9,15-21.3,29.8-31.8c14.7-10.5,1.4-27.4,22.1-44.3c20.7-16.8,65.6,10.4,89.2,45.7
		c23.7,35.3,6.6,52.3-3.2,69.4c-9.8,17.1,2.1,31.2,2.1,31.2s-6.2-13.2-26.2-21.7c-20-8.5-33.3,1.3-33.3,1.3s3.9-10.8,27.1-14.5
		c23.3-3.7,32.2-15.1,31.4-39.7c-0.8-24.6-27.7-47.7-50.7-54.8c-23-7.1-40.6,4.7-39.4,11.3c1.3,6.6,12.9,4.7,18.1,27.2
		c5.2,22.6-27.5,28.9-43.6,36.5c-16.1,7.5-10.7,22.9-4.9,20.1c5.9-2.7,9.5,24.1,31,31.9c21.5,7.8,73.6,8.4,95.2,12.6
		c99.4,19.2-35.7,38.1-86.2,60c-50.5,21.8-76.4,46.5-145.8,70c-69.3,23.5-154.9,88.6-213.5,142.7c-58.6,54.2-82.3,76-82.3,76
		s17.6-38.6,37-58.4c19.3-19.7,17.5-31.4,41.2-53.2c23.7-21.8-17.8-11.3,36.6-70.7c54.3-59.4,97.2-66.9,97.2-66.9s-5.9-24-14.7-19.9
		c-8.8,4.1-22.8,12.4-20.1-4.9c2.6-17.3,1.3-23.8-8.8-53c-10.1-29.2-8.5-33.5,6.5-28.1c15.1,5.5,25.3,0.7,71.4-19.1
		c46.1-19.8,6.4-24.4-14.2-38c-20.6-13.6-32.7-20.4-59.3-27.6c-26.6-7.2-41.9-28.6-59.2-61.6c-17.2-33-16.1-19.2-37.2-45.1
		c-21-25.9-13.7-29.3-14.7-46.7c-1-17.4,22.1-13.9,37.1-8.4c15,5.5,25.8-13.3,35.6-4.1C671.4,140.4,676.7,159.3,669.4,162.7z
		 M751,501.2c0,0-49.7,19.7-80.8,48.5c-31.1,28.9-43.5,59.6-43.5,59.6S680.5,541.3,751,501.2z"/>
	<path class="st1" d="M374.8,576.7c113.4-40.5,265.1-57.1,283.3-67.7c37.1-21.5,7.8-27.6-28.6-23.5c-21.1,2.3-197.4,37-291.1,71.9
		c-75.3,28-163.7,75.2-195.7,92.7l1.1-27.1c18.2-7.5,55.4-23.5,104.8-48.4c71.1-35.8,164.1-54.6,262.1-74.7
		c98-20.1,148.5-29.3,149.3-47.1c0.8-17.8-14.1-10.3-69.1-11c-55-0.7-152.3,4.9-273.3-5.1c-93-7.7-145.8-12.7-165.3-14.6l1.8-41.7
		c24.8,7.7,100.1,28.9,198.2,38.3c120.9,11.6,266.7,8,287.8,5.7c21.1-2.3,18.7-21.9,18.7-21.9s-71-4.6-187.3-9.5
		c-102.1-4.3-273.2-87.6-313.5-107.9l1.7-40.4c31.9,21.9,146.7,97.5,245,119.6c115.4,25.9,214.5,18.8,240.4,16.6
		c26-2.1,13.4-10.8,13.4-10.8s-91.5-16.8-198-63.4c-87.1-38.1-240.6-184.4-293.5-236.3l1.3-31.7c136,131.9,138.6,136.6,247.4,215.9
		c98.9,72.2,222.7,92,244.9,102.6c22.2,10.6,13.7,32.1,31.7,88.5c19.2,60,6.3,64.9-45.4,80.9c-18.8,5.8-70.3,18-125.7,27
		c-55.4,9-121,30.5-208,59.2c-72.5,23.9-149.6,80.1-173.3,98.2l1.5-36.5C170.3,661.2,277.6,611.4,374.8,576.7z"/>
	<path class="st1" d="M635.7,453.4c-97.2,2.4-203.2,20.5-280,39.9c-59.6,15.1-165.4,64.2-210,85.4l1.6-37.2
		c36.1-11.9,115.3-37.3,200.8-59.9C464.3,451,635.7,453.4,635.7,453.4z"/>
	<path class="st1" d="M437.4,320.4C523.2,358,592.4,369,592.4,369s-164.4,8.8-292-72.7c-76-48.5-117.3-80.9-138.5-99.3l1.7-40.1
		c34.2,32.2,113.5,105.8,152,131.1c79.5,52.4,153.9,55,153.9,55s-97.9-41.3-176.5-96.3c-51.7-36.1-95.6-82-110.4-97.4
		c-7.3-7.6-13.1-13.7-17.8-18.6l1.6-38.8C204.4,145,298.4,259.4,437.4,320.4z"/>
	<path class="st1" d="M514.1,406.4c0,0-158.1,12.6-215.3-4.6c-45.3-13.7-115.7-45.1-143.2-57.6l1.3-31.8
		c26.8,18.7,90,60.3,135.2,71.3C347.4,397.1,435.3,407.5,514.1,406.4z"/>
	<path class="st1" d="M185.1,456.4c37.1,0.1,261.8-6.8,261.8-6.8c-172.1,12.4-265,32.8-297.5,41.1l1.6-37.4
		C158.7,454.9,169.5,456.4,185.1,456.4z"/>
	<path class="st1" d="M856.8,61.9c0,0-24.9-13-38.2,1.9c-13.3,14.9-0.3,33.4,7,24.2C832.8,78.9,824.3,69.8,856.8,61.9z"/>
	<path class="st1" d="M876.6,49.3c0,0,3.5,21.8-11,28c-14.5,6.2-25.1-8.1-16.4-11.3C857.9,63,862.6,71.6,876.6,49.3z"/>
	<path class="st1" d="M703.9,0.5c0,0,10.6,13.2,3.3,22.9c-7.3,9.6-19.9,4.1-15.3-1.3C696.6,16.7,702.9,20.7,703.9,0.5z"/>
	<path class="st1" d="M851.5,90.6c0,0-14.4,12.5-30,3.9c-15.6-8.6-15.6-8.6-15.6-8.6s-19.2,14.8-1.7,21.1
		C821.6,113.3,843.6,104.5,851.5,90.6z"/>
	<path class="st1" d="M826.7,53c0,0-19.6,7.7-16.9,19.5c2.6,11.8-8.7,18.6-18.1,17.2C782.4,88.2,792.3,44.4,826.7,53z"/>
	<path class="st1" d="M807.5,142.1c0,0-22.4,7.4-36.2-9.9c-13.7-17.3-13.7-17.3-13.7-17.3s-28.9,7.7-12,23.3
		C762.5,153.7,791.7,154.1,807.5,142.1z"/>
	<path class="st1" d="M747.2,58.4c0,0-13.5,22.2-2.1,31.9c11.4,9.7,5.3,24.8-5,30.4C729.9,126.3,706.9,75.8,747.2,58.4z"/>
	<path class="st1" d="M709,85.5c0,0-7.8,15.6-24,13.7c-16.2-1.9-16.2-1.9-16.2-1.9s-11.1,19.1,5.9,18.4
		C691.6,115.1,707.1,100,709,85.5z"/>
	<path class="st1" d="M633.9,73.3c0,0,4.6,18.7,15.6,17.7c11-0.9,15.7,10.2,13.3,18.5C660.3,117.8,621.9,103.4,633.9,73.3z"/>
	<path class="st1" d="M749.2,148.6c0,0-17-4-26,9.6c-8.9,13.6-8.9,13.6-8.9,13.6s-21.8-3.8-10.4-16.3
		C715.3,143,736.8,140.8,749.2,148.6z"/>
	<path class="st1" d="M710.4,214.1c0,0-11.4-15.5-3.6-23.3c7.8-7.9,2.3-18.6-5.7-22C693.2,165.3,679.7,204,710.4,214.1z"/>
	<path class="st1" d="M842.3,109.7c-0.3,0.1-36.1,15.4-46.3,2.5c-7.6-9.7,2.7-22.3,2.7-22.3s-44.7,36.2-3.6,39.2
		C837.4,132.1,842.3,109.7,842.3,109.7z"/>
	<path class="st1" d="M822.6,38.8c0,0-61.1,2.5-63.7,34.1c-2.6,31.6,31.3,20,31.3,20s-20.1-15.4-2.8-30.4
		C799.6,51.9,822.6,38.8,822.6,38.8z"/>
	<path class="st1" d="M797.3,202.4c0,0-15.8,8.7-24.6-0.7c-8.8-9.4-0.7-21.5,4.1-15.7C781.7,191.9,776.3,197.8,797.3,202.4z"/>
	<path class="st1" d="M803.4,205.4c0,0,1.9-14-7.5-17.8c-9.4-3.7-16,5.6-10.4,7.5C791.1,196.9,794,191.3,803.4,205.4z"/>
	<path class="st1" d="M793.5,184.1c0,0-9.4-7.8-19.3-2c-9.9,5.8-9.9,5.8-9.9,5.8s-12.5-9.2-1.4-13.5
		C773.9,170,788.1,175.3,793.5,184.1z"/>
	<path class="st1" d="M778.1,208.6c0,0-12.7-4.6-11.2-12.3c1.5-7.6-5.9-11.8-11.9-10.7C749.1,186.7,756.2,214.7,778.1,208.6z"/>
	<path class="st1" d="M787.2,172c-0.2,0-23.4-9.3-29.7-0.9c-4.7,6.3,2.1,14.3,2.1,14.3s-29.2-22.6-2.9-25.1
		C783.7,157.6,787.2,172,787.2,172z"/>
	<path class="st1" d="M775.7,217.8c0,0-39.3-0.7-41.4-20.9c-2.1-20.3,19.8-13.3,19.8-13.3s-12.7,10.2-1.3,19.5
		C760.7,209.7,775.7,217.8,775.7,217.8z"/>
	<path class="st1" d="M695,13.4c0,0-20.8,5.8-20.4,21.2c0.4,15.3,17.4,18.9,16.7,9.9C690.5,35.5,680.9,34.9,695,13.4z"/>
	<path class="st1" d="M707.1,32.2c0,0-1.5,14.6-14.8,18C679,53.6,679,53.6,679,53.6s-3,18.4,10.1,12.7
		C702.3,60.7,709.9,44.2,707.1,32.2z"/>
	<path class="st1" d="M673.4,24.2c0,0-6.9,14.6,0.8,19.9c7.7,5.3,4.9,15-1.1,19.1C667.1,67.2,649.6,37.5,673.4,24.2z"/>
	<path class="st1" d="M712,47.8c-0.2,0.2-12.2,27.6-24.6,25.7c-9.3-1.4-10.2-13.9-10.2-13.9s-6,43.8,18.6,23.9
		C721,63,712,47.8,712,47.8z"/>
	<path class="st1" d="M663.7,18.4c0,0-33,33.5-17.8,52.6c15.2,19.1,28-5.2,28-5.2s-19.4,1.9-17.5-15.6
		C657.7,37.8,663.7,18.4,663.7,18.4z"/>
	<path class="st1" d="M820,78.2c0.5-0.6-6.8,7.8-29.9,14.7c-23.1,6.9-25.9,13.1-41.7,19.7c-15.8,6.6-32.1,10.1-40.7,7.6
		c-8.6-2.5-14.9-2-22,3.7s-16.4,5.2-17.1-6.8c-0.7-12,11.5-47.2,15.1-57.1c3.6-9.9,1.8-17.2,1.8-17.2s-8.4-3.1-12.4,20.3
		c-4,23.4-8.9,32.3-12.4,38.8c-3.5,6.6-0.1,15.6,2.4,24.3c2.4,8.7-2.4,14.2-2.4,14.2s-1.4,2.3,12.9,13.6
		c14.3,11.3,20.7,23.1,31.2,24.7c10.6,1.6,26.1,6.7,43.6,10.8c17.5,4.1,28.4,8,28.4,8s-2-11.3-4.6-13.4c-2.6-2.1-0.1,3.3-15.2-1.1
		c-15.2-4.4-28-7.4-44.7-16.8s-34.3-22.5-20.2-29.1c14.1-6.6,14.2-8.3,30.8-9.5c16.6-1.2,22.2,0.2,34.4-8.7
		C769.4,110.1,809.8,89.5,820,78.2z"/>
</g>
</svg>
