<?xml version="1.0" encoding="utf-8"?>
<!-- Generator: Adobe Illustrator 20.1.0, SVG Export Plug-In . SVG Version: 6.00 Build 0)  -->
<svg version="1.1" id="Layer_1" xmlns="http://www.w3.org/2000/svg" xmlns:xlink="http://www.w3.org/1999/xlink" x="0px" y="0px"
	 viewBox="0 0 1280 800" style="enable-background:new 0 0 1280 800;" xml:space="preserve">
<style type="text/css">
	.st0{fill:none;}
	.st1{fill:#FFFFFF;}
</style>
<title>aries</title>
<path class="st0" d="M1012.7,263.1c18-17.8,5.9-77.6,5.9-77.6c-11.2,40.4-53.3,29-61.5,55.1S994.7,280.9,1012.7,263.1z"/>
<path class="st0" d="M577.5,555.1c42.8,7.8,63-32,8.8-53.6S397.2,637.4,397.2,637.4s-39.4-80-10.3-193.3s-22.2-183.6-22.2-183.6
	s-40.9,66.8-122.1,137S106.3,437,76.9,441.4C49.6,445.5,20.7,499.1,0,544.3v227.4c8-8,21-21.7,24.2-28.8c4.6-10.4-8.9-38.9,7.9-62.7
	s59.6-72.2,62.4-101s20.2-80.5,48.2-86c37-7.3,98.1-57.6,98.1-57.6s-5.9,61.1-4.1,79.4s-23.7,19.5-55.8,32.7s-42.8,29.7-76,92.4
	C73.8,698.7,52,736.5,52,736.5s23.2,38.2,20.3,63.5h204.4c35.5-36.5,59.9-64,103.2-115.2C435.2,619.3,534.7,547.3,577.5,555.1z
	 M334.2,669.5c-14.6-17.8-49.8-104.6-68.3-175.3s-6.7-80.5,33.6-103.8s63.3-91.8,63.3-91.8s-1.3,50.7-9,93.5S341,505,338.7,566.5
	s31.5,86.5,31.5,86.5S348.8,687.2,334.2,669.5z"/>
<polygon class="st0" points="0,800 12.8,800 0,785.4 "/>
<path class="st0" d="M1036,422.2c9.8,34.6,32.6,10.5,34.1-20.1C1071.8,366.9,1026.2,387.6,1036,422.2z"/>
<path class="st0" d="M343.1,0c-4,15-5,30.6-3,46c5.3,38.6-57.8,34.3-78.9,8.7c-12-14.5-3.1-33.5,11.6-54.7H0v443.1
	c1.1-4.1,1.7-8.4,1.8-12.6c-0.5-32.7,29.9-28,92.5-56.4s68.3-105.9,84-175.1S253.5,97.5,328.7,88.4s91.4,30.6,163.4,130.1
	s88.8,75.7,160.4,86.2s89.6,48.6,92.5,56.1s-11.1,115-72.3,241.5S513.5,766.6,513.5,766.6c-43.9,23-66.7-4.6-121.7,20.9
	c-7.6,3.6-14.9,7.8-21.9,12.5h74.1c2.9-0.2,5.8-0.2,8.6,0h78.2c-24.1-23.6,27.2-33.9,102.1-105.3c75.9-72.5,97.1-179.3,111.6-254
	s25.6-105.4,41-86.7c8.1,9.9,7.9,49.7-5.3,130.1s-57,195.9-87.4,247.3s-114.7,61.4-114.7,61.4c2.3,2.6,4.9,5.1,7.6,7.2h55.2
	c17.6-4.8,38.4-10,57.2-10.1c10.8,0,16.2,4.1,17,10.1H1280V0H343.1z M1195.3,347c89.2-30.9,56.2,84.4,14.6,121.3
	s-89.4,17.7-89.4,17.7s25.9-10.7,55.9-48.7S1195.3,347,1195.3,347L1195.3,347z M1088.5,178.4c0,0,23.6-0.2,29.1,44.3
	s-35.2,69-35.2,69s20.4-25.7,4.3-61.4S1076,172.4,1088.5,178.4z M965.3,164.1c25.5-3.2,41.4-8.4,49.4-22.9
	c16.8-30.1,4.2-68.7,7.3-66.9c29.2,17.5,37.5,67.1,40.3,130.1s-21.3,102.1-78.5,138.9s-105.1-41.1-105-93.2S939.8,167.3,965.3,164.1
	z M927.5,630.7c-12.3,33.3-66.7,107.8-122.8,144.1s-103.3-0.9-103.3-0.9s24.1-43,50.7-111.2s66.1-176.8,61.5-242.6
	s24.5-102.9,64.2-82.7s20.9,65.5,1.8,94.5c0,0,9.9,48.1,29.2,91.7S939.8,597.4,927.5,630.7z M1096.1,602
	c-0.8,42.4-20.4,59.4-35,44.9s-24.9-30.2-10-47.8S1097.2,545.1,1096.1,602z M1101.7,498.7c-22.5,21.2-12.1,50-43.1,67.5
	s-30.1,54.1-18.6,71.3s5.5,48.8-15.6,55.5s-27.6-17.3-33.4-63.2s-32.7-85-64.1-123.2s-20.6-89.7-3.1-104.1s53.9-28.4,80.9-50.7
	s61.4-45.2,82.7-38.8s40.3-55.8,62.4-40.8c30.2,20.5,29.6,116.9-1.1,147.6S1124.2,477.5,1101.7,498.7L1101.7,498.7z M1211.6,541.5
	c-51.3,31.6-93.2-19.2-93.2-19.2s26.4-0.4,70.9-7.8s79.2-78.6,79.2-78.6C1278.6,483.7,1262.9,509.9,1211.6,541.5L1211.6,541.5z"/>
<path class="st1" d="M513.5,766.6c0,0,98-37.7,159.2-164.2s75.2-234,72.3-241.5s-21-45.6-92.5-56.1s-88.3,13.2-160.4-86.2
	S404,79.4,328.7,88.4s-134.6,41.4-150.4,110.6s-21.4,146.7-84,175.1s-93,23.7-92.5,56.4c-0.1,4.3-0.7,8.5-1.8,12.6v101.2
	c20.7-45.2,49.6-98.9,76.9-102.9c29.4-4.4,84.5,26.3,165.7-43.9s122.1-137,122.1-137s51.2,70.3,22.2,183.5s10.3,193.3,10.3,193.3
	S532.1,480,586.3,501.5s34,61.3-8.8,53.6s-142.3,64.2-197.6,129.7C336.6,736,312.2,763.5,276.7,800h93.1c7-4.7,14.3-8.9,21.9-12.5
	C446.8,762,469.5,789.6,513.5,766.6z"/>
<path class="st1" d="M338.7,566.5C341,505,346,434.8,353.8,392s9-93.5,9-93.5s-23,68.5-63.3,91.8s-52.2,33-33.6,103.8
	s53.7,157.6,68.3,175.3s36.1-16.5,36.1-16.5S336.4,627.9,338.7,566.5z"/>
<path class="st1" d="M52,736.5c0,0,21.8-37.8,52.9-96.5c33.2-62.7,43.9-79.2,76.1-92.4s57.6-14.4,55.8-32.7s4.1-79.4,4.1-79.4
	s-61.1,50.3-98.1,57.6c-28,5.5-45.4,57.3-48.2,86s-45.6,77.2-62.4,101s-3.2,52.3-7.9,62.7C21,750,8,763.7,0,771.7v13.7L12.8,800
	h59.5C75.2,774.7,52,736.5,52,736.5z"/>
<path class="st1" d="M698.1,789.9c-18.8,0.1-39.5,5.3-57.2,10.1h74.2C714.3,794,708.9,789.9,698.1,789.9z"/>
<path class="st1" d="M578.1,792.8c0,0,84.4-10,114.8-61.5s74.2-167,87.4-247.3s13.5-120.2,5.3-130.1c-15.4-18.7-26.5,12-41,86.7
	s-35.7,181.6-111.6,254c-74.9,71.5-126.2,81.8-102.1,105.3h54.9C582.9,797.9,580.4,795.4,578.1,792.8z"/>
<path class="st1" d="M879.6,432c19.1-29,38-74.4-1.8-94.5s-68.8,16.9-64.2,82.7s-35,174.4-61.5,242.6s-50.7,111.2-50.7,111.2
	s47.2,37.2,103.3,0.9S915.2,664,927.5,630.7s0.7-63.4-18.7-107S879.6,432,879.6,432z"/>
<path class="st1" d="M261.2,54.7c21.1,25.6,84.2,29.9,78.9-8.7c-2-15.4-1-31,3-46h-70.2C258.2,21.2,249.2,40.2,261.2,54.7z"/>
<path class="st1" d="M443.9,800h8.6C449.7,799.8,446.8,799.8,443.9,800z"/>
<path class="st1" d="M983.8,343.3c57.3-36.8,81.4-76,78.5-138.9S1051.3,91.8,1022,74.3c-3.1-1.8,9.5,36.7-7.3,66.9
	c-8,14.4-23.9,19.6-49.4,22.9s-86.3,34-86.5,86.1S926.5,380.1,983.8,343.3z M957.1,240.6c8.2-26.1,50.3-14.7,61.5-55.1
	c0,0,12.1,59.8-5.9,77.6S948.9,266.7,957.1,240.6z"/>
<path class="st1" d="M1082.4,291.8c0,0,40.6-24.6,35.2-69s-29.1-44.3-29.1-44.3c-12.4-6.1-17.8,16.2-1.8,51.9
	S1082.4,291.8,1082.4,291.8z"/>
<path class="st1" d="M1149.9,272.4c-22.2-15-41.1,47.2-62.4,40.8s-55.7,16.5-82.7,38.8s-63.5,36.3-80.9,50.7s-28.3,66,3.1,104.1
	s58.3,77.3,64.1,123.2s12.2,69.9,33.4,63.2c21.1-6.7,27.1-38.3,15.6-55.5s-12.3-53.8,18.6-71.3s20.6-46.3,43.1-67.5
	s16.3-48.1,47.1-78.8S1180.1,292.8,1149.9,272.4z M1070.1,402.1c-1.5,30.6-24.3,54.7-34.1,20.1S1071.8,366.9,1070.1,402.1
	L1070.1,402.1z"/>
<path class="st1" d="M1120.5,485.9c0,0,47.8,19.2,89.4-17.7s74.7-152.2-14.6-121.3c0,0,11,52.2-19,90.3S1120.5,485.9,1120.5,485.9z"
	/>
<path class="st1" d="M1189.4,514.5c-44.6,7.4-70.9,7.8-70.9,7.8s41.9,50.8,93.2,19.2s67-57.9,57-105.6
	C1268.6,435.9,1233.9,507.1,1189.4,514.5z"/>
<path class="st1" d="M1051.1,599.1c-14.9,17.6-4.7,33.2,10,47.8s34.2-2.4,35-44.9C1097.2,545.1,1065.9,581.5,1051.1,599.1z"/>
</svg>
