<?xml version="1.0" encoding="utf-8"?>
<!-- Generator: Adobe Illustrator 20.1.0, SVG Export Plug-In . SVG Version: 6.00 Build 0)  -->
<svg version="1.1" id="Layer_1" xmlns="http://www.w3.org/2000/svg" xmlns:xlink="http://www.w3.org/1999/xlink" x="0px" y="0px"
	 viewBox="0 0 1280 800" style="enable-background:new 0 0 1280 800;" xml:space="preserve">
<style type="text/css">
	.st0{fill:none;}
	.st1{fill:#FFFFFF;}
</style>
<title>cancer</title>
<path class="st0" d="M675,0c5,11.6,2,24.6-0.9,35.2c-3.2,11.6-21.9,11.7-22.8,3.5c-1.5-13,0.2-23.5-3.5-38.7h-59.6
	c0,0.7,0,1.4-0.1,2.1l4.6,25.2l-14,0.8l-2.9-21.7c0,0-0.7,7.6-18.2,7.1S532.1,2.4,532.1,2.4s25.9,10.2,29.9-2.4H0v800h252.2
	c-17.1-6.8-20.2-28.5-20.2-28.5s24.8,19.5,36.3,6.3s-18.5-24.8-18.5-24.8s13-2.5,26.2,9s8.6,17.6,8.6,17.6l16.9-13.9l9.7,10.1
	l-20.5,15.4c0,0-3.9,5.5-12.5,8.7h105.9c-9.2-2.7-9.4-8.1-0.3-18.4c9.6-11,9.9-23,17.7-32.5c10.3-12.6,19.9,7.4,7.4,25.1
	c-9.4,13.4-11.6,23-16.7,25.8H1280V0H675z M684.9,181.2c17.6-5.4,41.3-19.3,51.9-24.3s16-11.8,21.5,2.9s-2.1,13.9-17.5,21.1
	s-60.8,27-60.8,27C668.9,193.1,667.3,186.6,684.9,181.2L684.9,181.2z M667,312c17.1-6.6,23.5-8.1,32,3.7s-5.2,19.7-17.4,18.2
	C667.1,332.2,649.9,318.5,667,312z M657.8,350.8c-4.1-11.7,18.6-21.7,21.7-2.9S666.5,375.5,657.8,350.8L657.8,350.8z M699.4,301.2
	c-10.3-12.1,0.5-17.5,13.4-20.6s12.2,1.5,13.6,13.8S709,312.5,699.4,301.2L699.4,301.2z M677,216.6c6.2,7.1-3.2,11.6-8.4,31.3
	s-17,28.1-27.2,15.6c-8.8-10.9,9.3-20.2,16.1-36.3S670.8,209.5,677,216.6z M570.4,569.3c-11.4,3.2-13.5,1.3-12.9-14.5
	s11.9-17.4,31.4-19.8c14.8-1.8,4.8,29,4.8,29l-14.7,8.8C578.9,572.8,581.8,566.1,570.4,569.3z M450.3,596.2
	c-16.2-27-33.8-69.1-53.5-120.3s-13.5-87.2,2.5-120.6s31.2-34.8,64.9-52s78.2-48.1,91.6-47.2c13.4,0.9,46.4-14.6,49.2,12.9
	s-0.9,78.1-2.8,132.3s-31.7,98.3-60.7,137.8S469.9,628.7,450.3,596.2z M516.8,665.6c-9.6,18-5.6,27.6-15.1,28.7s-13.1-4.5-7.1-21
	s-1-35.6,12.9-37.6C523.3,633.4,526.3,647.7,516.8,665.6z M361.5,265c-26.2,20.9-60.8,27-60.8,27s49.7-29,59.1-55
	s12.7-40.5,23.7-35.5S387.7,244.1,361.5,265z M586.1,170c-8.2,1-10.1-15.4-10.1-15.4c-2.9-21.6,5.5-31.3,16-30.5s6.2,10.1,9.8,27.1
	S594.3,169,586.1,170z M592.4,512.4c0,0,13.7-35.2,22-63.6s5.1-38.4,13.9-41s27.7,10,16.7,29.6s-18.4,34.5-25.4,59.4
	C612.6,521.7,605.5,524.9,592.4,512.4L592.4,512.4z M632.8,392.8c-12.7-14.9-19.8-23.8-9.6-35.8s13.1-11.9,19.3-1.8s8.7,3.1,8.7,3.1
	l4.8,16.5C656.1,374.7,642.5,404,632.8,392.8L632.8,392.8z M623.2,292.2c10.8-13.7,22-17.5,25.8-6.3s-10.8,13.7-13.5,26.5
	s-5.1,16.8-8.7,21.3C617.8,345.1,612.3,305.9,623.2,292.2L623.2,292.2z M640.7,108.4c0.8-12.3,8.7-21.3,9.1-35.9s4.6-18,14.3-12.5
	s2,13.4-0.9,35S639.7,124.7,640.7,108.4L640.7,108.4z M625.6,174.5c4.5-19.9,10.9-38.2,10.4-42.3s8.8-2.7,14.6,0.4s8.8,21.8,3,40.3
	S622.3,188.9,625.6,174.5L625.6,174.5z M619,206.4c9.9-0.3,15.8-3.1,13.6,13.8s-10,27.7-12.5,34.6s-18.6-2.8-16.2-6.8
	C613.3,232.4,609.1,206.7,619,206.4z M579.4,45c8.1,2,13.2,6.8,17.4,3.4s13.9,5,10.7,16.6s-7.1,27.8-15.5,34.6s-16.8-2.2-16.8-2.2
	c6.5-7.3,8.4-17.6,4.8-26.7C573.9,54.8,571.3,43,579.4,45z M585.1,186.2c12.8,2.7,11.4,11.9,8.6,27.6s-5.2,19.7-13.8,16.6
	s-9.7-8.4-9.7-8.4C572.4,205.2,572.3,183.6,585.1,186.2z M564.2,135.6c2.8,30.4-11.4,58.6-8.3,74.4s-15.2,22.9-40.5,33.4
	s-34.2,13.1-30.4,2.7c6.7-18.4,17-46.8,11.9-76.1s-16.1-31.3,8.1-44.1S561.5,105.2,564.2,135.6z M469.7,71.9
	c24.3,5.9,39.4,10.3,49.4,7.1s23,12.2,16.3,22.6s-19.8,0.7-30,9.7s-36.1-0.3-36.1-0.3C453.6,86.7,445.4,66,469.7,71.9z M338.1,199.7
	c17.9-14.1,31.4-19,31.4-19s1.9-5.2,19.6-38s38.8-55.6,54.6-37.1s26.3,43.8,9,56.2s-37.4,27.6-51,32.5s-23.3-0.6-23.3-0.6
	s-54.6,18.4-84.4,65.5C294,259.2,320.3,213.8,338.1,199.7z M276.8,383.3c0,0,21.2,28,26.2,61.1s-15.6,65.4-27,61.6s-4-16.7,6.8-42.1
	S276.8,383.3,276.8,383.3z M240.2,553c9.2-36.1,11.4-41.2,11.4-41.2s-6.6-12.8-10.1-35.3s8.1-73.6,8.1-73.6
	c-10.1,54.8,17.5,105.4,17.5,105.4s10.9,2.6,17.5,15.4s11.1,37.7,15.3,58.5s-20.6,32.3-44.8,35.1S231,589.1,240.2,553z M292.3,688
	c-5.1-9.2-19.2-16.1-41.1-28.3s-1.8-21.8,26.2-29c0,0,25.5,10.7,26.8,24.3s17.5,15.4,15.4,27.5S297.4,697.1,292.3,688L292.3,688z
	 M347.6,758.4c-5.5,10.7-18.3,10.3-19.1,4.9s-7.8-5.3-15.1-9.3s2.6-10.9,17.8-18.5c8.8-4.2,14.5-13.1,14.6-22.8
	c0,0,12.4-0.8,13.9,9.8S353.1,747.6,347.6,758.4L347.6,758.4z M363.9,677.2c-22.6,20.5-41-7.3-50-33.1s0.4-19.8,24-37.9
	s35.4-45.9,43-63.9c4.3-10.2,9-2.2,20.5,22.6s20.1,42.5,7.1,52S386.5,656.7,363.9,677.2L363.9,677.2z M401.9,691.3
	c-14.2,10-17.3,19.7-25.6,13.2s-7.9-19.3,9-33.2c0,0,12.5-10.7,17.9-4.5S416.1,681.2,401.9,691.3L401.9,691.3z M426.9,617.8
	c0,0,4.4-3.2,12.8,0.4s7.5,8.2-1.1,21.5s-13.9,21.1-25.1,14.4S417.1,631.6,426.9,617.8L426.9,617.8z M454.8,710.6
	c-8.4,17.4-23.3,29.1-29.6,27.4s-14.1-6.9-11-9.6s10.9-20.5,21.1-38.1C442.7,677.4,463.2,693,454.8,710.6L454.8,710.6z M452.1,662.4
	c-7-7,13.5-23,17.2-40.8c1-4.6,19.4-0.8,16.5,6s-4.5,20.1-14.3,34S459.2,669.4,452.1,662.4L452.1,662.4z M522.8,791.3
	c-14,7.1-13.3-1.6-17.7-12.5s-12.3-37.2-21.6-53.1s-3.8-19.6,14.6-22.8c0,0,19.9,45.4,26.2,61.1S536.8,784.1,522.8,791.3
	L522.8,791.3z M544.3,574.3c-0.5,5.8-1.4,10.4-8.1,21.6s2.3,23-8.1,28.6s-16-4.8-14.7-22.2S545.5,559.7,544.3,574.3L544.3,574.3z
	 M584.7,611.3c10,7.2,14.7,22.2,0.4,25.2s-17.9-2.6-26-19S572.9,602.8,584.7,611.3L584.7,611.3z M590.6,670.8
	c-9.4,8-12,11.9-19.4,0.8s-11.5-22.3,4.2-24.2C590.2,645.6,600,662.8,590.6,670.8L590.6,670.8z M592.6,599.6
	c-15,11.7-24.8-11.1-13.9-16.9C601.9,570.5,607.5,587.9,592.6,599.6L592.6,599.6z M649.6,708.7c-13.5,8.3-26.9-0.3-34.4-1.5
	s-15.3-20.5-15.4-27.5s10.5-15.5,10.5-15.5c15.7-6.4,19.8,0.4,29.8,14.6S663.1,700.4,649.6,708.7L649.6,708.7z M699.5,751.7
	c-18.3,10.3-31.7,8.7-39.7-7.7s-2.6-34.1,2.2-36.1c18.2-7.4,30.2-12.3,43.3-0.7s19,26,25.1,30.6S717.8,741.5,699.5,751.7
	L699.5,751.7z M768.2,322.1c-17,3.6-24.6,5.8-31.8-9.6c0,0-2-13.5,2.8-18.6s23.7-14,30-9.7s22,7,26.2,22.3S785.2,318.5,768.2,322.1
	L768.2,322.1z M772.6,150.2c0,0,10.7-7.9,27.5-2.8s47.9,19.4,47.9,19.4s-28.9-9.5-46.5-4.1S764.2,160,772.6,150.2L772.6,150.2z
	 M874.4,340c-7.5-0.8-21.7,5.9-39.2,5.4s-23-12.2-31.3-30c-2.2-4.7,5.8-21.4,22.9-28s28,1.3,34.4,21.3S882,340.8,874.4,340z"/>
<path class="st1" d="M532.1,2.4c0,0,7.9,10.7,25.4,11.1s18.3-7.1,18.3-7.1l2.9,21.7l14-0.8l-4.6-25.2c0.1-0.7,0.1-1.4,0.1-2.1h-26.1
	C558.1,12.6,532.1,2.4,532.1,2.4z"/>
<path class="st1" d="M575.1,97.4c0,0,8.5,9,16.8,2.2s12.3-23,15.5-34.6s-6.5-20-10.6-16.6s-9.3-1.4-17.4-3.4s-5.5,9.8,0.5,25.7
	C583.5,79.8,581.7,90.1,575.1,97.4z"/>
<path class="st1" d="M601.8,151.1c-3.6-17,0.7-26.2-9.8-27.1s-18.9,8.8-16,30.5c0,0,1.9,16.4,10.1,15.4S605.4,168.1,601.8,151.1z"/>
<path class="st1" d="M579.9,230.4c8.7,3.1,11.1-0.9,13.8-16.6s4.1-25-8.6-27.6s-12.7,18.9-14.9,35.8
	C570.2,222,571.2,227.3,579.9,230.4z"/>
<path class="st1" d="M496.9,170c5.1,29.3-5.2,57.7-11.9,76.1c-3.8,10.4,5,7.7,30.4-2.7c25.4-10.4,43.6-17.6,40.5-33.4
	s11-44,8.3-74.4s-35-22.5-59.2-9.7S491.8,140.7,496.9,170z"/>
<path class="st1" d="M505.4,111.3c10.1-9.1,23.3,0.6,30-9.7s-6.4-25.8-16.4-22.6s-25-1.2-49.4-7.1s-16.1,14.8-0.4,39.1
	C469.3,111,495.3,120.4,505.4,111.3z"/>
<path class="st1" d="M378.5,193.8c0,0,9.8,5.5,23.3,0.6s33.8-20.1,51-32.5s6.8-37.7-9-56.2s-36.9,4.3-54.6,37.1s-19.6,38-19.6,38
	s-13.5,4.9-31.4,19s-44.1,59.5-44.1,59.5C323.8,212.2,378.5,193.8,378.5,193.8z"/>
<path class="st1" d="M383.6,201.5c-11-4.9-14.2,9.5-23.7,35.5s-59.1,55-59.1,55s34.6-6.1,60.8-27S394.5,206.4,383.6,201.5z"/>
<path class="st1" d="M620.1,254.8c2.5-6.9,10.4-17.8,12.5-34.6s-3.7-14.1-13.6-13.8s-5.7,26.1-15.1,41.6
	C601.5,252,617.6,261.7,620.1,254.8z"/>
<path class="st1" d="M653.7,172.9c5.7-18.5,2.7-37.2-3-40.3s-15-4.5-14.6-0.4s-5.9,22.4-10.4,42.3
	C622.3,188.9,648,191.4,653.7,172.9z"/>
<path class="st1" d="M663.3,95c2.9-21.5,10.7-29.5,0.9-35s-13.9-2.1-14.3,12.5s-8.3,23.6-9.1,35.9C639.7,124.7,660.4,116.5,663.3,95
	z"/>
<path class="st1" d="M674.1,35.2c2.9-10.6,5.9-23.6,0.9-35.2h-27.2c3.7,15.2,2,25.7,3.5,38.7C652.2,46.9,670.9,46.8,674.1,35.2z"/>
<path class="st1" d="M626.8,333.7c3.6-4.6,6.1-8.6,8.7-21.3s17.3-15.3,13.5-26.5s-15-7.4-25.8,6.3S617.8,345.1,626.8,333.7z"/>
<path class="st1" d="M657.5,227.2c-6.8,16.1-25,25.4-16.1,36.3c10.2,12.5,22,4.1,27.2-15.6s14.6-24.1,8.4-31.3
	S664.3,211,657.5,227.2z"/>
<path class="st1" d="M740.9,180.9c15.3-7.2,22.9-6.4,17.5-21.1s-10.9-7.9-21.5-2.9s-34.3,18.9-51.9,24.3s-16,11.8-4.8,26.7
	C680.2,207.9,725.6,188.1,740.9,180.9z"/>
<path class="st1" d="M848,166.8c0,0-31.1-14.2-47.9-19.3s-27.5,2.8-27.5,2.8c-8.4,9.7,11.2,17.8,28.8,12.4S848,166.8,848,166.8z"/>
<path class="st1" d="M651.2,358.2c0,0-2.5,6.9-8.7-3.1s-9.1-10.1-19.3,1.8s-3.1,20.9,9.6,35.8c9.6,11.3,23.2-18.1,23.2-18.1
	L651.2,358.2z"/>
<path class="st1" d="M657.8,350.8c8.7,24.7,24.7,15.8,21.7-2.9S653.7,339.1,657.8,350.8z"/>
<path class="st1" d="M699,315.7c-8.4-11.9-14.9-10.3-32-3.7s0.1,20.2,14.6,22C693.8,335.4,707.4,327.6,699,315.7z"/>
<path class="st1" d="M726.3,294.3c-1.4-12.3-0.7-16.9-13.6-13.8s-23.6,8.6-13.4,20.6C709,312.5,727.8,306.5,726.3,294.3z"/>
<path class="st1" d="M769.2,284.3c-6.3-4.2-25.2,4.6-30,9.7s-2.8,18.6-2.8,18.6c7.2,15.3,14.8,13.2,31.8,9.6s31.5-0.4,27.2-15.6
	S775.5,288.5,769.2,284.3z"/>
<path class="st1" d="M826.8,287.5c-17.1,6.6-25.1,23.3-22.9,28c8.3,17.8,13.8,29.5,31.3,30s31.7-6.2,39.2-5.4s-6.7-11.2-13.2-31.2
	S843.9,281,826.8,287.5z"/>
<path class="st1" d="M290.7,791.3l20.5-15.4l-9.7-10.1l-16.9,13.9c0,0,4.6-6.1-8.6-17.6s-26.2-9-26.2-9s30.1,11.7,18.5,24.8
	s-36.3-6.4-36.3-6.4s3.1,21.6,20.2,28.5h26C286.8,796.8,290.7,791.3,290.7,791.3z"/>
<path class="st1" d="M345.9,712.6c-0.2,9.8-5.8,18.6-14.6,22.8c-15.2,7.6-25.1,14.4-17.8,18.5s14.3,4,15.1,9.3s13.6,5.7,19.1-4.9
	s13.6-25.2,12.1-35.9S345.9,712.6,345.9,712.6z"/>
<path class="st1" d="M385.4,671.2c-16.9,13.9-17.3,26.7-9,33.2s11.3-3.2,25.6-13.2s6.7-18.2,1.3-24.5S385.4,671.2,385.4,671.2z"/>
<path class="st1" d="M438.7,639.7c8.6-13.4,9.6-18,1.1-21.5s-12.8-0.4-12.8-0.4c-9.8,13.8-24.5,29.7-13.3,36.4
	S430,653.1,438.7,639.7z"/>
<path class="st1" d="M408.3,616.9c13-9.5,4.5-27.1-7.1-52S385,532,380.8,542.2c-7.6,18-19.3,45.8-43,63.9s-33.1,12-24,37.9
	s27.4,53.6,50,33.1S395.3,626.4,408.3,616.9z"/>
<path class="st1" d="M319.6,682.5c2.1-12.1-14.1-14-15.4-27.5s-26.8-24.3-26.8-24.3c-28,7.2-48.1,16.7-26.2,29s35.9,19.2,41.1,28.3
	S317.5,694.6,319.6,682.5z"/>
<path class="st1" d="M255.1,617.3c24.2-2.8,49-14.3,44.8-35.1s-8.7-45.7-15.3-58.5s-17.5-15.4-17.5-15.4s-27.6-50.7-17.5-105.4
	c0,0-11.6,51.1-8.1,73.6s10.1,35.3,10.1,35.3s-2.1,5.1-11.4,41.2S230.9,620.1,255.1,617.3z"/>
<path class="st1" d="M276,506c11.4,3.8,32-28.5,27-61.6s-26.2-61.1-26.2-61.1s16.8,55.1,6,80.6S264.6,502.2,276,506z"/>
<path class="st1" d="M469.3,621.6c-3.7,17.8-24.2,33.8-17.2,40.8s9.5,13,19.4-0.8s11.5-27.1,14.3-34S470.3,617,469.3,621.6z"/>
<path class="st1" d="M435.3,690.3c-10.2,17.7-18,35.4-21.1,38.1s4.6,8,11,9.6s21.2-10,29.6-27.5S442.7,677.4,435.3,690.3z"/>
<path class="st1" d="M408.9,774.2c12.5-17.7,2.9-37.8-7.4-25.1c-7.8,9.5-8.1,21.6-17.7,32.5c-9.1,10.3-8.9,15.7,0.3,18.4h8.1
	C397.4,797.2,399.5,787.6,408.9,774.2z"/>
<path class="st1" d="M513.5,602.3c-1.3,17.4,4.3,27.8,14.7,22.2s1.4-17.4,8.1-28.6s7.6-15.8,8.1-21.6
	C545.5,559.7,514.8,584.8,513.5,602.3z"/>
<path class="st1" d="M494.5,673.3c-6,16.5-2.3,22,7.1,21s5.5-10.7,15.1-28.7s6.6-32.2-9.4-29.9C493.5,637.7,500.5,656.8,494.5,673.3
	z"/>
<path class="st1" d="M498.1,702.8c-18.4,3.2-23.9,6.9-14.6,22.8s17.2,42.2,21.6,53.1s3.8,19.6,17.7,12.5s7.9-11.7,1.5-27.3
	S498.1,702.8,498.1,702.8z"/>
<path class="st1" d="M593.6,564c0,0,10-30.8-4.8-29c-19.5,2.3-30.7,4-31.4,19.8s1.5,17.7,12.9,14.5s8.5,3.6,8.5,3.6L593.6,564z"/>
<path class="st1" d="M578.7,582.8c-10.9,5.8-1.1,28.5,13.9,16.9S601.9,570.5,578.7,582.8z"/>
<path class="st1" d="M585.1,636.5c14.3-3,9.6-18-0.4-25.2c-11.8-8.5-33.7-10.2-25.6,6.2S570.8,639.5,585.1,636.5z"/>
<path class="st1" d="M575.5,647.4c-15.7,1.9-11.5,13.1-4.2,24.2s10,7.2,19.4-0.8S590.2,645.6,575.5,647.4z"/>
<path class="st1" d="M610.4,664.1c0,0-10.6,8.5-10.5,15.5s7.9,26.3,15.4,27.5s20.9,9.8,34.4,1.5s0.6-15.7-9.4-30
	S626.1,657.8,610.4,664.1z"/>
<path class="st1" d="M730.4,737.8c-6.1-4.6-12-19.1-25.1-30.6s-25.2-6.7-43.3,0.7c-4.8,2-10.3,19.7-2.2,36.1s21.4,18,39.7,7.8
	S736.5,742.3,730.4,737.8z"/>
<path class="st1" d="M602.3,401.2c2-54.2,5.6-104.8,2.8-132.3s-35.8-12-49.2-13s-57.9,30-91.6,47.2s-48.9,18.6-64.9,52
	s-22.2,69.4-2.5,120.6s37.2,93.3,53.5,120.3c19.6,32.6,62.3-17.6,91.3-57.1S600.3,455.4,602.3,401.2z"/>
<path class="st1" d="M619.7,496.7c7.1-24.9,14.4-39.9,25.4-59.4s-7.9-32.3-16.7-29.6s-5.6,12.7-13.9,41s-22,63.6-22,63.6
	C605.5,524.9,612.6,521.6,619.7,496.7z"/>
</svg>
