<?xml version="1.0" encoding="utf-8"?>
<!-- Generator: Adobe Illustrator 20.1.0, SVG Export Plug-In . SVG Version: 6.00 Build 0)  -->
<svg version="1.1" id="Layer_1" xmlns="http://www.w3.org/2000/svg" xmlns:xlink="http://www.w3.org/1999/xlink" x="0px" y="0px"
	 viewBox="0 0 1280 800" style="enable-background:new 0 0 1280 800;" xml:space="preserve">
<style type="text/css">
	.st0{opacity:0.5;}
	.st1{fill:#FFFFFF;}
</style>
<title>cropped-zodiac-illustrations</title>
<g id="cancer_2_" class="st0">
	<path class="st1" d="M620.6,36.4c0,0,6.9,9.4,22.2,9.8c15.3,0.4,16-6.2,16-6.2l2.6,19l12.3-0.7l-4-22.1c0,0,1.9-14.7-14.6-25.9
		c-16.6-11.2-34.8,3.7-34.8,3.7s27.5,2.3,27.1,17.6C646.9,46.8,620.6,36.4,620.6,36.4z"/>
	<path class="st1" d="M658.3,119.6c0,0,9.4-9.5,4.2-23.4c-5.3-13.9-7.5-24.2-0.4-22.5c7.1,1.7,11.6,5.9,15.2,2.9
		c3.6-3,12.1,4.4,9.3,14.5s-6.3,24.3-13.6,30.3C665.7,127.4,658.3,119.6,658.3,119.6z"/>
	<path class="st1" d="M659,169.6c-2.6-19,4.8-27.5,14-26.7c9.2,0.7,5.4,8.8,8.6,23.7c3.2,14.9-6.5,15.7-13.7,16.5
		C660.7,184,659,169.6,659,169.6z"/>
	<path class="st1" d="M653.9,228.7c1.9-14.8,1.9-33.7,13.1-31.3c11.2,2.3,9.9,10.5,7.5,24.2c-2.4,13.7-4.5,17.3-12.1,14.5
		C654.8,233.4,653.9,228.7,653.9,228.7z"/>
	<path class="st1" d="M579.3,249.8c5.8-16.1,14.8-41,10.4-66.6c-4.5-25.6-14.1-27.4,7.1-38.6c21.2-11.2,49.5-18.1,51.9,8.5
		c2.4,26.6-10,51.3-7.3,65.2c2.7,13.9-13.3,20.1-35.5,29.2S576,258.9,579.3,249.8z"/>
	<path class="st1" d="M565.5,131.5c-13.7-21.3-20.9-39.4,0.4-34.2c21.3,5.1,34.5,9.1,43.2,6.2c8.8-2.8,20.1,10.7,14.3,19.8
		c-5.8,9-17.4,0.6-26.3,8.5C588.3,139.7,565.5,131.5,565.5,131.5z"/>
	<path class="st1" d="M412.1,261.3c0,0,23-39.7,38.6-52.1c15.6-12.4,27.5-16.7,27.5-16.7s1.7-4.6,17.2-33.3
		c15.5-28.7,33.9-48.7,47.8-32.5c13.9,16.2,23,38.4,7.9,49.2c-15.1,10.8-32.8,24.2-44.6,28.5c-11.9,4.3-20.4-0.5-20.4-0.5
		S438.1,220.1,412.1,261.3z"/>
	<path class="st1" d="M418,290.1c0,0,43.6-25.4,51.8-48.2s11.1-35.5,20.7-31.1c9.6,4.3,3.6,37.4-19.3,55.7
		C448.2,284.7,418,290.1,418,290.1z"/>
	<path class="st1" d="M683.5,251.5c8.2-13.6,4.5-36.1,13.2-36.4c8.7-0.3,13.8-2.7,11.9,12.1c-1.9,14.8-8.8,24.3-11,30.4
		C695.4,263.5,681.3,255,683.5,251.5z"/>
	<path class="st1" d="M702.5,187.1c4-17.4,9.5-33.5,9.1-37c-0.4-3.6,7.7-2.3,12.8,0.3c5,2.7,7.7,19.1,2.7,35.3
		C722,201.9,699.6,199.8,702.5,187.1z"/>
	<path class="st1" d="M715.7,129.2c0.7-10.7,7.6-18.7,8-31.5c0.3-12.8,4-15.7,12.5-10.9c8.6,4.8,1.7,11.8-0.8,30.6
		C732.9,136.3,714.8,143.5,715.7,129.2z"/>
	<path class="st1" d="M725,68.2c-1.5-12.9,0.6-23-4.6-39.4c-5.2-16.5,4.7-22.4,12.9-23.7c8.2-1.3,4.7,15.5,11.1,26.3
		c6.4,10.9,3.5,23.6,0.7,33.7C742.1,75.3,725.8,75.4,725,68.2z"/>
	<path class="st1" d="M703.5,326.5c-7.9,10-12.7-24.3-3.1-36.3c9.5-12,19.3-15.3,22.6-5.5s-9.5,12-11.8,23.2
		C708.8,319,706.7,322.5,703.5,326.5z"/>
	<path class="st1" d="M716.3,265.1c-7.8-9.5,8.1-17.7,14.1-31.8c6-14.1,11.6-15.5,17.1-9.3c5.5,6.3-2.8,10.1-7.3,27.4
		C735.6,268.6,725.2,276,716.3,265.1z"/>
	<path class="st1" d="M750.3,216.4c-9.9-13-11.3-18.7,4.2-23.4c15.4-4.7,36.2-16.9,45.5-21.3c9.3-4.4,14.1-10.4,18.8,2.5
		c4.8,12.9-1.8,12.2-15.3,18.5C790,199.1,750.3,216.4,750.3,216.4z"/>
	<path class="st1" d="M831.2,165.9c0,0,9.4-6.9,24.1-2.4c14.7,4.5,41.9,16.9,41.9,16.9s-25.3-8.3-40.8-3.6
		C841,181.5,823.9,174.4,831.2,165.9z"/>
	<path class="st1" d="M708.8,378.2c-11.1-13.1-17.3-20.9-8.4-31.4c9-10.5,11.5-10.4,16.9-1.6c5.4,8.8,7.6,2.7,7.6,2.7l4.2,14.4
		C729.1,362.4,717.2,388.2,708.8,378.2z"/>
	<path class="st1" d="M730.7,341.5c-3.6-10.2,16.3-19,19-2.6C752.3,355.4,738.3,363.2,730.7,341.5z"/>
	<path class="st1" d="M751.5,326.8c-12.7-1.5-27.7-13.5-12.8-19.2c15-5.7,20.6-7.1,28,3.3C774.1,321.2,762.2,328.1,751.5,326.8z"/>
	<path class="st1" d="M767.1,298c-9-10.6,0.4-15.3,11.7-18.1c11.3-2.8,10.7,1.3,11.9,12.1C791.9,302.8,775.5,308,767.1,298z"/>
	<path class="st1" d="M799.5,308.1c6.3,13.4,13,11.6,27.9,8.4c14.9-3.2,27.6-0.3,23.8-13.7c-3.7-13.4-17.5-15.8-23-19.5
		c-5.5-3.7-22.1,4-26.3,8.5C797.7,296.3,799.5,308.1,799.5,308.1z"/>
	<path class="st1" d="M858.6,310.6c7.3,15.5,12.1,25.8,27.4,26.2c15.3,0.4,27.7-5.4,34.3-4.7c6.6,0.7-5.9-9.9-11.6-27.4
		c-5.7-17.5-15.2-24.4-30.2-18.6C863.7,291.9,856.7,306.5,858.6,310.6z"/>
	<path class="st1" d="M373.3,693.9c0,0,11.4-2.2,22.9,7.9c11.5,10.1,7.5,15.4,7.5,15.4l14.8-12.2l8.5,8.9l-17.9,13.5
		c0,0-8.6,12.1-28.3,9.1c-19.7-3.1-23-26.4-23-26.4s21.7,17,31.8,5.5C399.7,704.1,373.3,693.9,373.3,693.9z"/>
	<path class="st1" d="M457.5,658.4c0,0,0.5,13.3-12.8,20c-13.3,6.6-22,12.6-15.6,16.2c6.4,3.6,12.5,3.5,13.2,8.2
		c0.7,4.7,11.9,5,16.7-4.3c4.8-9.4,11.9-22.1,10.6-31.4C468.3,657.7,457.5,658.4,457.5,658.4z"/>
	<path class="st1" d="M492,622.2c-14.8,12.2-15.1,23.4-7.9,29.1c7.2,5.7,9.9-2.8,22.4-11.6c12.5-8.8,5.8-15.9,1.2-21.4
		C503,612.8,492,622.2,492,622.2z"/>
	<path class="st1" d="M528.5,575.3c-8.6,12.1-21.5,26-11.7,31.9c9.8,5.9,14.4-0.9,22-12.6c7.6-11.7,8.4-15.7,1-18.9
		C532.3,572.5,528.5,575.3,528.5,575.3z"/>
	<path class="st1" d="M488,509.2c-6.7,15.8-16.9,40.2-37.6,56c-20.7,15.8-29,10.5-21,33.2c8,22.6,24,46.9,43.8,29
		c19.8-17.9,27.5-44.5,38.9-52.8c11.4-8.3,3.9-23.8-6.2-45.5C495.9,507.3,491.8,500.3,488,509.2z"/>
	<path class="st1" d="M397.5,586.7c-24.6,6.3-42.1,14.6-23,25.4c19.1,10.7,31.5,16.8,36,24.8c4.5,8,22.1,5.8,23.9-4.8
		c1.9-10.6-12.4-12.2-13.5-24.1C419.8,596.1,397.5,586.7,397.5,586.7z"/>
	<path class="st1" d="M373.1,387.1c0,0-10.1,44.8-7.1,64.5c3.1,19.7,8.9,30.9,8.9,30.9s-1.9,4.5-10,36.1c-8.1,31.6-8.2,58.8,13,56.3
		c21.2-2.5,43-12.5,39.3-30.8c-3.7-18.2-7.6-40-13.4-51.2c-5.8-11.2-15.3-13.5-15.3-13.5S364.2,435.1,373.1,387.1z"/>
	<path class="st1" d="M396.9,370c0,0,14.7,48.3,5.3,70.6c-9.4,22.3-15.9,33.6-5.9,36.9c10,3.3,28-25,23.6-54
		C415.5,394.5,396.9,370,396.9,370z"/>
	<path class="st1" d="M565.6,578.7c-3.2,15.5-21.2,29.6-15.1,35.7c6.2,6.1,8.3,11.4,17-0.7c8.6-12.1,10-23.8,12.6-29.7
		C582.5,578,566.4,574.7,565.6,578.7z"/>
	<path class="st1" d="M535.8,638.9c-8.9,15.5-15.7,31-18.5,33.4c-2.7,2.3,4.1,7,9.6,8.4c5.5,1.5,18.6-8.8,25.9-24.1
		C560.2,641.3,542.3,627.6,535.8,638.9z"/>
	<path class="st1" d="M506.2,690.4c-6.8,8.3-7.1,18.9-15.5,28.5c-8.4,9.6-7.8,14.3,1.8,16.5c9.5,2.3,9.3-7.5,20.2-23
		C523.6,696.8,515.3,679.3,506.2,690.4z"/>
	<path class="st1" d="M471.5,741.4c-9.9,8.5-15.2,17.3-30.2,25.8c-15,8.6-11.8,19.6-6.6,26.1c5.1,6.5,13.9-8.1,26-11.8
		c12.1-3.7,18.6-14.9,23.4-24.3C488.9,747.9,477,736.7,471.5,741.4z"/>
	<path class="st1" d="M631.3,537.2c1-12.7-25.8,9.3-27,24.5c-1.2,15.3,3.8,24.3,12.8,19.4c9.1-4.9,1.2-15.3,7.1-25
		C630,546.4,630.9,542.3,631.3,537.2z"/>
	<path class="st1" d="M598.9,591.1c-12.2,1.7-6,18.5-11.3,32.9c-5.2,14.4-2,19.3,6.3,18.4c8.3-0.9,4.8-9.4,13.2-25.1
		C615.5,601.6,612.9,589.1,598.9,591.1z"/>
	<path class="st1" d="M590.8,649.8c-16.1,2.8-21,6.1-12.8,20c8.1,13.9,15,37,18.9,46.5c3.9,9.5,3.3,17.1,15.5,10.9
		c12.3-6.2,6.9-10.2,1.3-23.9C608.2,689.6,590.8,649.8,590.8,649.8z"/>
	<path class="st1" d="M615.9,741.9c0,0,2.2,11.4,16,18.1c13.8,6.7,42.3,16.1,42.3,16.1s-24.2-11.1-32.4-25
		C633.7,737.1,616.3,730.6,615.9,741.9z"/>
	<path class="st1" d="M670.3,502.9c-17,2.1-26.9,3.5-27.5,17.3c-0.6,13.8,1.4,15.5,11.3,12.7c10-2.8,7.4,3.1,7.4,3.1l12.9-7.7
		C674.5,528.3,683.2,501.3,670.3,502.9z"/>
	<path class="st1" d="M661.4,544.7c-9.6,5-0.9,25,12.2,14.8C686.7,549.2,681.7,534,661.4,544.7z"/>
	<path class="st1" d="M666.6,569.7c-10.3-7.5-29.5-8.9-22.4,5.4c7.1,14.4,10.3,19.2,22.8,16.6C679.5,589.1,675.4,576,666.6,569.7z"
		/>
	<path class="st1" d="M658.5,601.3c-13.8,1.7-10.1,11.5-3.7,21.2c6.4,9.7,8.7,6.3,17-0.7C680,614.8,671.5,599.8,658.5,601.3z"/>
	<path class="st1" d="M689.1,616c13.8-5.6,17.4,0.3,26.1,12.8c8.8,12.5,20,19,8.2,26.2c-11.8,7.3-23.5-0.3-30.1-1.3
		c-6.6-1-13.4-17.9-13.5-24.1C679.9,623.4,689.1,616,689.1,616z"/>
	<path class="st1" d="M734.3,654.3c15.9-6.5,26.4-10.8,37.9-0.6c11.5,10.1,16.7,22.8,22,26.8c5.3,4-11,3.2-27.1,12.2
		c-16.1,9-27.7,7.6-34.8-6.8C725.3,671.5,730.1,656,734.3,654.3z"/>
	<path class="st1" d="M549,556.4c-14.2-23.7-29.6-60.5-46.8-105.4c-17.2-44.9-11.8-76.4,2.2-105.6c14-29.3,27.3-30.4,56.8-45.5
		c29.5-15.1,68.5-42.2,80.2-41.3c11.7,0.8,40.7-12.7,43.1,11.3c2.4,24.1-0.7,68.4-2.5,115.9c-1.7,47.4-27.8,86.1-53.2,120.7
		C603.5,541,566.1,584.9,549,556.4z"/>
	<path class="st1" d="M673.4,483c11.5,11,17.7,8.1,23.8-13.7c6.2-21.8,12.6-34.9,22.3-52c9.6-17.1-6.9-28.3-14.7-25.9
		c-7.7,2.4-4.9,11.1-12.2,35.9C685.4,452.2,673.4,483,673.4,483z"/>
</g>
</svg>
