<?xml version="1.0" encoding="utf-8"?>
<!-- Generator: Adobe Illustrator 20.1.0, SVG Export Plug-In . SVG Version: 6.00 Build 0)  -->
<svg version="1.1" id="Layer_1" xmlns="http://www.w3.org/2000/svg" xmlns:xlink="http://www.w3.org/1999/xlink" x="0px" y="0px"
	 viewBox="0 0 1280 800" style="enable-background:new 0 0 1280 800;" xml:space="preserve">
<style type="text/css">
	.st0{fill:none;}
	.st1{fill:#FFFFFF;}
</style>
<title>leo</title>
<path class="st0" d="M1257.8,256.9c7.3-3.6,14.8-4.8,22.2-6.3V0H815.8c14.8,12.4,21.5,33.7,8.8,61.6c-24.5,53.9-60.1-23.7-60.1-23.7
	s21.1,20.1,25,8.4S776,14.5,749.7,32.6s-61.3,30-89,66.8s-32.2,65.6-53,92.2s-35.9-17.6-35.9-17.6s10.9,1.5,37.1-32.2
	s37-55.5,37-55.5c-19.2,27.4-45.5,53.2-65.8,51s-8.9-37.2-8.9-37.2s19.6,23.2,33.5,2.9S605.9,49.2,623,46s28.8,8.3,45.2,14.5
	c13.7,5.1,43.4-38.9,75.4-60.4h-224c-31.5,22.5-68.8,42.2-107,57.5c-114.1,45.8-186.4,69.4-262.4,158.6
	c-52.5,61.7-16.4,116.4-7.7,124.9s16.6,31.8-7.6,19.9s-61.6-58.1,1.5-147.3S283.7,97.2,385,48.2c43-20.8,72.8-35.8,93.7-48.2H0v800
	h497.7c-3.7-15.6-15.7-24.6-47.7-38.5c-35.1-15.3-60.4-21.6-57-33.8c7.6-27.3,40.6,16,48.9-20.6s21.5-36,32.6-11.1
	s34.6,44.1,54,40.1c19.4-4,52.8-12.8,40.4-3.4s-38,14.3-23.9,29c9.7,10.1,12.5,23.3,7.4,38.4h27.9c9-17.6,26.2-15.9,35.8-9.4
	c6.6,4.5,18.1,5.7,23.7,9.4h243.4c-0.2-7.2,0.4-15.9,1.1-26.9c0,0,17.1-3.2,26.2-29.8s10.7-25.8,30.2-22s25,20,10.5,45.8
	c-11,19.4-17.3,22.5-23,32.8h24.3c0.2-3.9,1.4-7.7,3.5-11.1c10.3-17.6,42.4-2.9,49.7,11.1H1280V313.9
	C1258.6,299.9,1241.2,265,1257.8,256.9z M1076.1,196.7c-9.9,28.1,17.9,6.9,10.4,38s-30.5,78.1-61.8,62.7c-25-12.3-12-42.7-12-42.7
	s12.7,37.3,28.8,8.3s14.5-37.4,14.5-37.4s-15.5,11.8-0.9-17.9l22.2-45.3C1077.4,162.4,1086,168.7,1076.1,196.7z M990.6,102.4
	c11.5-27.3,19.9-52.2,41.8-26s39.1,26.9,37.7,57.3s-2.1,35.8-17.7,28.1s-19.6-23.2-15.8-34.9s-6.5-34.2-19.5-11.5
	s-26.2,29.7-41.1,24.4s-19.6-19.3-19.6-19.3S979.1,129.7,990.6,102.4z M541.5,188.1c0,0,17.7,78.5,57.9,43.9s46.4-47,77.8-103.3
	s66.4-64.3,88.4-45.8s26.9,55.8,2.9,73.1s-52.9,5.1-55.8,23l-3,17.9c0,0-19.6-27,2.8-41.2s42.8-8.1,44.1-30.7s-36.9-39.4-56,3.5
	s-45.4,72.7-71.4,129.7S508.3,330.8,541.5,188.1z M505.7,288.8c0,0,30,61.3,74.3,50s82-56.6,95-90.9s27.7-52.3,27.7-52.3
	s12,42.7-27.2,110.7s-87.2,90.9-128.7,64.8S505.7,288.8,505.7,288.8z M241,521.7c0,0-32.9-40.1-41.9-80.3s-12-58.5-12-58.5
	s-23.1-6.5-24.1-19s26.8-6,26.8-6s19.7-69.2,84.7-113.9S427,216,427,216s0.2,28.8-26.6,44.4s-51.4,70.4-31.9,103.9s34.9,41,34.9,41
	s-24.7,40.5-12.1,49s18.4,16.2,18.4,16.2s-41.4-18-82.8-31.1S239.4,442,241,521.7z M435.3,669c-4.4,32.7-8.3,36.6-39.4,33
	s-57.9-47.8-88.6-99.7s-49.6-99.6-33.6-125c17.7-28.1,58.3-8.2,63.1,13.5c4.8,21.8,26.8,51.9,52.7,78.2S439.7,636.3,435.3,669z
	 M455.8,599.6c-18.7,2.5-41.4-18.4-45.4-33.9s-12.8-41.1-34.7-63.5s-26-49.6-7.3-36.5c32.9,23,63.4,52.4,90.9,83.4
	S474.5,597.1,455.8,599.6L455.8,599.6z M649.2,770.1c-12.5-6.1-21.8-2.9-39.6,5.7s-25-16.2-15-36.5c11,2,22.3,0,31.8-5.7
	c16.3-9.5,32.8,12.2,42.1,16.8S661.7,776.3,649.2,770.1z M854,787.3c-17.1-0.7-44.5-16-78-26.7s-81.2-32.1-98.6-71.7
	c0,0,18.9,28.6,39,7.5s32.3-53.9,81.5-23.9s74.2,34.5,79,56.2S871.1,788,854,787.3z M965.4,590.3c17.9-46.2,2.4-73-24-131.3
	s-63.7-45.6-63.5-21.6s36.8,51.6,56.5,113.8s-28.1,96.2-72.2,108s-143.4-48.9-143.4-48.9s51.9,11.1,56.1-75.3s-49.7-98.5-39.9-74.6
	s-8.2,65.4-21.3,106.7s-51.8,8-119.3-39.5s-47.6-78.4-47.6-78.4s-14.4,9.7-42.5-30.4s-27.6-104.4-47.8-97.6s-8.3,46.1,40.4,141.8
	s121.9,131.6,162.4,146.7s61.8,44.7,45.5,58.2s-61.5-11.1-133.8-49c-58.7-30.8-133.9-111.4-150.8-145.8c-15.6-31.6,17.9-51,17.9-51
	s-35.7-29.5-48.5-66.9s31.1-78,53.1-88.7s34.4-26.2,32.6-7.9s6.2,65.2,31.6,115.9s86.8,61.8,135.5,16.3s73.2-105.2,81.6-136.9
	s-3.2-47,8.2-65.3s45-9,57.5-14.8s18.9-43.3,35-76.1s44.8-42.6,80.3-46.7s59.7,14.9,55.9,27.4s-23.6,53-30.2,76.1s-19.2,4.9-42.2,8
	s28.1,30.5,42.5,35.2s22.9-12.7,46.8-36.8s35.5-4.1,57.7,14s4.1,40.3-16.9,53.9s-52.7,24.4-32.3,51.1s58.9,40.9,99,12.7
	s41.7-70.4,41.7-70.4s10,57.5-28.1,101s-78.5,23.6-103.6,11.3s-57.8-33.2-64.4-10.1s24.3,38.2,48.3,38.1s28.9,19,28.9,19L985.2,404
	c0,0,15.6,31.6,21.9,106.4S965.4,590.3,965.4,590.3L965.4,590.3z M1025.8,761.2c-9.2,22.6-13.2,3.2-28-2.1s-27.2,0.2-17.3-20.1
	C991.2,717.1,1034.9,738.6,1025.8,761.2L1025.8,761.2z M1098.7,521.8c-12.2,32.8-18.4,41.4-45.4,72.7s-34.1,14.2-18.8-20.9
	s19.8-63.9,3.2-93.4c-15.5-27.6-32.5-69.6-34.6-74.7l-0.2-0.5l0.2,0.5c1.7,4.2,15.1,34.9,48.5,62.2
	C1087.6,497,1110.9,489,1098.7,521.8L1098.7,521.8z M1086.6,463.5c-27.1-18.9-45.4-51.7-53.5-68.5c-3-4.8-4.4-8.4-4.7-10.5
	c0,0,1.6,4.1,4.7,10.5c6.2,9.8,19.3,24.5,43.9,40.5c36.8,23.9,93,51.5,93,51.5S1124.1,489.7,1086.6,463.5L1086.6,463.5z
	 M1098.7,415.2c-25.8-22.4-25.1-31.7-43.9-40.9l-25-12.3c17.9,3,38-14.3,55.2,1.9s1,29.6,34.6,48s75.8,43,75.8,43
	S1124.5,437.6,1098.7,415.2L1098.7,415.2z M1181.9,399.8c-21.1-12.3-55.4-25.3-74.1-30.6s0.6-28.8,0.6-28.8
	c13.9-12.5,39.9,25.4,57.8,36.1s46.2,40.1,46.2,40.1S1202.9,412.1,1181.9,399.8L1181.9,399.8z M1231.3,358.2
	c-13,22.7-52.9-2.7-76.3-14.2s-4-15.5-9.6-35.7s-11.9-44.7,18.3-53c20.2-5.6,62.2-4.3,74,7.2s13.3,20.1,17.3,39.5
	S1244.4,335.6,1231.3,358.2L1231.3,358.2z"/>
<path class="st1" d="M136.4,213.6c-63.1,89.2-25.7,135.4-1.5,147.3s16.3-11.3,7.6-19.9s-44.8-63.3,7.7-124.9
	c76-89.2,148.3-112.9,262.4-158.6c38.2-15.3,75.5-35,107-57.5h-40.9c-21,12.4-50.7,27.4-93.7,48.2
	C283.7,97.2,199.5,124.5,136.4,213.6z"/>
<path class="st1" d="M326.8,439.5c41.4,13.1,82.8,31.1,82.8,31.1s-5.8-7.6-18.4-16.2s12.1-49,12.1-49s-15.4-7.6-34.9-41
	s5.1-88.4,31.9-103.9S427,216,427,216s-87.5-16.6-152.5,28s-84.6,113.9-84.6,113.9s-27.9-6.5-26.8,6s24.1,19,24.1,19s3,18.2,12,58.5
	s41.8,80.3,41.8,80.3C239.4,442,285.4,426.3,326.8,439.5z"/>
<path class="st1" d="M1007,510.4c-6.3-74.9-21.9-106.4-21.9-106.4l22.9-22.2c0,0-4.9-19.2-28.9-19s-54.8-15-48.3-38.1
	s39.3-2.2,64.4,10.1s65.5,32.2,103.6-11.3s28.1-101,28.1-101s-1.6,42.2-41.7,70.4s-78.6,14-99-12.7s11.3-37.5,32.3-51.1
	s39.1-35.8,16.9-53.9s-33.9-38.1-57.7-14s-32.4,41.5-46.8,36.8s-65.5-32.2-42.5-35.2s35.7,15.1,42.2-8s26.5-63.5,30.2-76
	s-20.4-31.5-55.9-27.4s-64.2,13.9-80.3,46.7s-22.5,70.2-35,76.1s-46.1-3.5-57.5,14.8s0.2,33.6-8.2,65.3s-32.9,91.4-81.5,136.9
	s-110.2,34.4-135.5-16.3s-33.4-97.7-31.6-115.9s-10.6-2.8-32.6,7.9s-65.9,51.4-53.1,88.7s48.4,66.9,48.4,66.9s-33.5,19.5-17.9,51
	c17,34.4,92.1,115,150.8,145.8c72.3,37.9,117.6,62.5,133.8,49s-5.1-43.2-45.5-58.2s-113.7-51-162.4-146.7s-60.5-134.9-40.4-141.8
	s19.6,57.5,47.8,97.6s42.5,30.4,42.5,30.4s-20,30.9,47.6,78.4s106.2,80.8,119.3,39.5s31.1-82.8,21.4-106.7s44.1-11.8,39.9,74.6
	s-56.1,75.3-56.1,75.3s99.3,60.7,143.4,48.9s91.8-45.8,72.2-108s-56.4-89.8-56.5-113.8s37.1-36.8,63.5,21.6s41.9,85.1,24,131.3
	C965.4,590.3,1013.3,585.2,1007,510.4z"/>
<path class="st1" d="M546.7,371c41.4,26.1,89.5,3.2,128.7-64.7s27.2-110.7,27.2-110.7s-14.6,18-27.6,52.3s-50.8,79.7-95,91
	s-74.3-50-74.3-50S505.3,344.8,546.7,371z"/>
<path class="st1" d="M629.2,258.3c26-57,52.3-86.7,71.4-129.7s57.4-26.1,56-3.5s-21.7,16.5-44.1,30.7s-2.8,41.2-2.8,41.2l3-17.9
	c3-17.9,31.8-5.7,55.8-23s19.1-54.6-2.9-73.1s-56.9-10.5-88.4,45.8s-37.6,68.7-77.8,103.3s-57.9-43.9-57.9-43.9
	C508.3,330.8,603.1,315.3,629.2,258.3z"/>
<path class="st1" d="M668.2,60.4C651.8,54.3,640.1,42.7,623,46s-4.4,36.6-18.3,56.9s-33.5-2.9-33.5-2.9s-11.4,35.1,8.8,37.3
	s46.5-23.7,65.8-51c0,0-10.8,21.9-37,55.5s-37.1,32.2-37.1,32.2s15.1,44.2,35.9,17.6s25.3-55.4,53-92.2s62.7-48.7,89-66.8
	s43.6,2,39.8,13.7s-25-8.4-25-8.4s35.6,77.5,60.1,23.7c12.7-27.9,6-49.2-8.8-61.6h-72.1C711.6,21.5,681.9,65.5,668.2,60.4z"/>
<path class="st1" d="M976.1,139.9c14.8,5.3,28-1.8,41.1-24.4c13.1-22.7,23.3-0.2,19.5,11.5s0.2,27.2,15.8,34.9s16.4,2.2,17.7-28.1
	s-15.8-31-37.7-57.3s-30.4-1.3-41.8,26s-34.1,18.2-34.1,18.2S961.3,134.5,976.1,139.9z"/>
<path class="st1" d="M1056.1,225.7c0,0,1.6,8.6-14.5,37.5s-28.8-8.4-28.8-8.4s-13,30.4,12,42.7c31.3,15.4,54.2-31.5,61.8-62.7
	s-20.3-10-10.4-38s1.3-34.2,1.3-34.2l-22.2,45.3C1040.6,237.4,1056.1,225.7,1056.1,225.7z"/>
<path class="st1" d="M1051.6,467.7c-33.4-27.2-46.8-57.9-48.5-62.2c2,5.1,19,47.1,34.6,74.7c16.6,29.5,12.1,58.3-3.2,93.4
	s-8.2,52.2,18.8,20.9s33.2-39.9,45.4-72.7S1087.6,497,1051.6,467.7z"/>
<path class="st1" d="M1003.1,405.5l-0.2-0.5L1003.1,405.5z"/>
<path class="st1" d="M1033.1,395.1c-3.1-6.4-4.7-10.5-4.7-10.5C1028.7,386.6,1030.1,390.3,1033.1,395.1z"/>
<path class="st1" d="M1033.1,395.1c8.1,16.7,26.4,49.5,53.5,68.5c37.5,26.2,83.4,23.5,83.4,23.5s-56.2-27.6-93-51.5
	C1052.4,419.6,1039.3,404.9,1033.1,395.1z"/>
<path class="st1" d="M1085.1,363.9c-17.2-16.2-37.3,1-55.2-1.9l25,12.3c18.8,9.2,18,18.5,43.9,40.9s96.7,39.8,96.7,39.8
	s-42.2-24.6-75.8-43S1102.3,380.2,1085.1,363.9z"/>
<path class="st1" d="M1166.1,376.6c-18-10.8-43.9-48.7-57.8-36.1c0,0-19.3,23.5-0.6,28.8s53,18.3,74.1,30.6s30.5,16.9,30.5,16.9
	S1184.1,387.3,1166.1,376.6z"/>
<path class="st1" d="M1237.6,262.5c-11.8-11.6-53.8-12.8-74-7.2c-30.2,8.3-23.9,32.8-18.3,53s-13.8,24.3,9.7,35.8
	s63.3,36.9,76.3,14.2s27.7-36.8,23.7-56.2S1249.4,274,1237.6,262.5z"/>
<path class="st1" d="M1280,313.9v-63.3c-7.3,1.5-14.8,2.7-22.2,6.3C1241.2,265,1258.6,299.9,1280,313.9z"/>
<path class="st1" d="M368.5,465.6c-18.8-13.1-14.7,14.1,7.3,36.5s30.7,48,34.7,63.6s26.7,36.4,45.4,33.9s31-19.7,3.5-50.6
	S401.4,488.6,368.5,465.6z"/>
<path class="st1" d="M336.8,490.7c-4.8-21.8-45.4-41.7-63.1-13.5c-16,25.4,2.9,73.1,33.6,125s57.5,96.1,88.6,99.7s35-0.2,39.4-33
	s-20-73.8-45.9-100S341.6,512.5,336.8,490.7z"/>
<path class="st1" d="M544.9,761.6c-14.1-14.7,11.5-19.5,23.9-29s-21-0.6-40.4,3.4s-42.9-15.2-54-40.1s-24.3-25.5-32.6,11.1
	s-41.3-6.7-48.9,20.6c-3.4,12.2,21.9,18.5,57,33.8c32,14,44,22.9,47.7,38.5h54.6C557.3,784.8,554.7,771.7,544.9,761.6z"/>
<path class="st1" d="M797.9,672.6c-49.2-30-61.4,2.8-81.5,23.9s-39-7.5-39-7.5c17.4,39.6,65,61,98.6,71.6s60.9,26,78,26.7
	s27.8-36.8,22.9-58.5S847.1,702.6,797.9,672.6z"/>
<path class="st1" d="M940.6,721.3c-19.5-3.8-21-4.5-30.2,22s-26.2,29.8-26.2,29.8c-0.7,11-1.3,19.7-1.1,26.9h45
	c5.7-10.3,11.9-13.4,23-32.8C965.7,741.4,960.1,725.1,940.6,721.3z"/>
<path class="st1" d="M955.9,788.9c-2.1,3.4-3.2,7.2-3.5,11.1h53.2C998.3,786,966.2,771.3,955.9,788.9z"/>
<path class="st1" d="M980.4,738.9c-10,20.3,2.4,14.8,17.3,20.1s18.9,24.8,28,2.1C1034.8,738.5,991.2,717.1,980.4,738.9z"/>
<path class="st1" d="M668.5,750.5c-9.4-4.6-25.9-26.3-42.1-16.8c-9.6,5.6-20.9,7.6-31.8,5.7c-10,20.3-2.8,45.2,15,36.5
	s27.2-11.9,39.6-5.7S677.9,755.2,668.5,750.5z"/>
<path class="st1" d="M580.2,800h59.4c-5.6-3.7-17.1-4.9-23.7-9.4C606.3,784.1,589.2,782.4,580.2,800z"/>
</svg>
