<?xml version="1.0" encoding="utf-8"?>
<!-- Generator: Adobe Illustrator 20.1.0, SVG Export Plug-In . SVG Version: 6.00 Build 0)  -->
<svg version="1.1" id="Layer_1" xmlns="http://www.w3.org/2000/svg" xmlns:xlink="http://www.w3.org/1999/xlink" x="0px" y="0px"
	 viewBox="0 0 1280 800" style="enable-background:new 0 0 1280 800;" xml:space="preserve">
<style type="text/css">
	.st0{fill:none;}
	.st1{fill:#FFFFFF;}
</style>
<title>libra</title>
<path class="st0" d="M979.1,48.8c17.1,10.7,14.9,34.2,61.9,57.6s59.8,49.1,66.2,79s6.4,100.3,4.3,136.6s-23.5,34.2-19.2,42.7
	s12.8,40.6,8.5,102.5s0,74.7-12.8,85.4s-15,40.5-10.7,51.2s23.5,12.8,23.5,32s-10.7,23.5-25.6,21.3s-12.8,17.1-14.9,42.7
	s-14.9,6.4-14.9-32s-19.2-55.5-27.8-70.4s15-19.2,32-32s0-96.1,8.5-145.1s-8.5-102.4-8.5-102.4s-6.4,19.2-25.6,49.1
	s-40.5,25.6-44.8,49.1s17.1,17.1,36.3,40.6s17.1,59.8,8.5,83.2s-29.9,25.6-57.6,32s-15,21.3,4.3,23.5s34.2,19.2,55.5,57.6
	c21.3,38.4,4.3,108.8,4.3,108.8s17.1,2.1,34.2-2.1c14.5-3.6,25.9,5.1,50,40.5H1280V0H955.9c-0.1,4.8-0.3,9-0.3,12.5
	C955.6,40.2,962,38.1,979.1,48.8z"/>
<path class="st0" d="M646.2,783c10.7-8.5,6.4-21.3,6.4-44.8s19.2-29.9,27.7-34.2s4.3-8.5,8.5-32s66.2-147.3,96-211.3
	s70.4-68.3,70.4-68.3s-10.7-14.9-10.7-42.7s-17.1-53.4-32-96.1S802,155.5,802,155.5s-17.1,8.5-61.9,4.3s-19.2-14.9-32-21.3
	s-15,23.5-32.1,25.6s-68.3-2.1-108.8-12.8s-47-10.7-74.7-8.5s-19.2,12.8-32.3,14.5c-2.3,0.3,0,67.4,2.2,67.5
	c84.8,3.6,74.9,53,126.1,53c53.2,0,55.4-34.1,55.4-34.1s2.1,74.6-40.4,72.4c-38.5-1.9-49.2-35.3-123.5-41.6
	c-3.9-0.3-16.5,20.3-17,30.9c-0.5,9.2-10.3,4.3-14.9,4.3c-8.5,0-10-35.8-17.2-35.1c-76.1,7.4-86,50-119.1,50
	c-36.2,0-57.5-76.6-57.5-76.6s25.6,36.2,66,34.1c39-2,36.5-53.6,122.1-57.3c3.2-0.1,0.5-68.1,4-68.1c0.5,0,4.1,0,7.6,0.1
	c-8.9-2.7-13.8-12.5-19-5.5c-6.4,8.5-21.3,0-36.3-8.5S405,100,437,97.9s19.2,17.1,46.9,17.1c0,0,15,2.1,32,4.3s19.2-14.9,61.9-17.1
	s106.7,2.1,140.9-4.3s61.9-14.9,111-10.7s70.4,0,96.1-8.5s6.4-36.3-2.2-55.5c-3.8-8.5-4.6-16.6-6.3-23.2h-67
	c9.1,12.3,23.1,13.2,45.5,25.3c27.7,15,21.3,29.9-8.5,27.7s-36.3,0-55.5,10.7s-32-4.3-27.8-17.1c2.9-8.8,2.8-25.8,3.9-46.6H0v800
	h631.5C637.7,791.5,642.9,785.6,646.2,783z M355.4,497.1c0,0-23.5,9.4-49.4,9.4s-56.4-9.4-56.4-9.4s28.2-7.1,56.4-7.1
	C322.8,490,339.4,492.4,355.4,497.1z M306.1,581.3c-103.4,0-84.6-87-84.6-87l68.2-162.2l-51.7,162.2c0,0,16.4,23.5,65.8,23.5
	s68.2-23.5,68.2-23.5l-51.7-164.5l70.5,159.9C390.7,489.6,409.5,581.3,306.1,581.3L306.1,581.3z M610.9,490.1
	c16.7-0.1,33.3,2.3,49.3,7.1c0,0-23.5,9.4-49.3,9.4s-56.4-9.4-56.4-9.4S582.6,490.1,610.9,490.1L610.9,490.1z M524.7,494.3
	l68.2-162.2l-51.7,162.2c0,0,16.5,23.5,65.8,23.5s68.2-23.5,68.2-23.5l-51.7-164.6l70.5,159.9c0,0,18.8,91.7-84.6,91.7
	S524.7,494.3,524.7,494.3L524.7,494.3z"/>
<path class="st0" d="M913,640c-19.2-21.3-14.9-40.5,0-55.5s38.4-42.7,38.4-83.2s-2.1-64-21.3-68.3s-8.5,8.5-10.7,59.8
	s-14.9,59.8-49.1,113.1s-59.7,98.2-85.4,125.9S731.5,751,731.5,751l-4.3,17.1c-4.3,17.1-23.5,29.9-23.5,29.9s0,0.7-0.1,2.1h301.6
	c-8-14.7-15.9-35.7-26.2-57.6C962,706.2,932.2,661.3,913,640z"/>
<path class="st1" d="M453.9,156.7c-3.5-0.1-7.1-0.1-7.6-0.1c-3.4,0-0.8,67.9-4,68.1c-85.6,3.7-83.1,55.2-122.1,57.3
	c-40.5,2.1-66-34.1-66-34.1s21.3,76.6,57.5,76.6c33,0,43-42.6,119.1-50c7.2-0.7,8.7,35.1,17.2,35.1c4.6,0,14.4,5,14.9-4.3
	c0.5-10.6,13.1-31.2,17-30.9c74.3,6.3,84.9,39.6,123.5,41.6c42.6,2.1,40.5-72.4,40.5-72.4s-2.1,34.1-55.4,34.1
	c-51.3,0-41.3-49.4-126.1-53c-2.2-0.1-4.6-67.2-2.2-67.5C458,157.5,455.9,157.3,453.9,156.7z"/>
<path class="st1" d="M320.2,329.7l51.7,164.5c0,0-18.8,23.5-68.2,23.5s-65.8-23.5-65.8-23.5l51.7-162.2l-68.2,162.2
	c0,0-18.8,87,84.6,87s84.6-91.7,84.6-91.7L320.2,329.7z"/>
<path class="st1" d="M693.9,489.6l-70.5-159.9l51.7,164.5c0,0-18.8,23.5-68.2,23.5s-65.8-23.5-65.8-23.5l51.7-162.2l-68.2,162.2
	c0,0-18.8,87,84.6,87S693.9,489.6,693.9,489.6z"/>
<path class="st1" d="M306,506.5c25.9,0,49.4-9.4,49.4-9.4c-16-4.7-32.7-7.1-49.4-7.1c-28.2,0-56.4,7.1-56.4,7.1
	S280.2,506.5,306,506.5z"/>
<path class="st1" d="M610.9,506.5c25.8,0,49.3-9.4,49.3-9.4c-16-4.7-32.6-7.1-49.3-7.1c-28.2,0-56.4,7.1-56.4,7.1
	S585,506.5,610.9,506.5z"/>
<path class="st1" d="M925.8,78.7c-25.6,8.5-47,12.8-96.1,8.5s-76.8,4.3-111,10.7s-98.2,2.1-140.9,4.3s-44.8,19.2-61.9,17.1
	s-32-4.3-32-4.3c-27.7,0-14.9-19.2-46.9-17.1s-53.4,36.3-38.4,44.8s29.9,17.1,36.3,8.5c5.3-7,10.1,2.8,19,5.5c2,0.6,4.2,0.8,6.3,0.5
	c13.1-1.7,4.6-12.4,32.3-14.5s34.2-2.1,74.7,8.5S659,166.2,676,164s19.2-32,32-25.6s-12.8,17.1,32,21.3s61.9-4.3,61.9-4.3
	s-4.3,55.5,10.7,98.2s32,68.3,32,96.1s10.7,42.7,10.7,42.7s-40.5,4.3-70.4,68.3S693,648.5,688.8,672s0,27.7-8.5,32
	s-27.8,10.7-27.8,34.1s4.3,36.3-6.4,44.8c-3.2,2.6-8.5,8.5-14.7,17h72.2c0.1-1.3,0.1-2.1,0.1-2.1s19.2-12.8,23.5-29.9l4.3-17
	c0,0,27.7,8.5,53.4-19.2s51.2-72.6,85.4-125.9s47-61.9,49.1-113.1s-8.5-64,10.7-59.8s21.3,27.8,21.3,68.3s-23.5,68.3-38.4,83.2
	s-19.2,34.1,0,55.5s49,66.1,66.2,102.4c10.3,21.8,18.2,42.8,26.2,57.6h109.2c-24-35.4-35.4-44.1-50-40.5
	c-17.1,4.3-34.2,2.1-34.2,2.1s17.1-70.4-4.3-108.8s-36.3-55.5-55.5-57.6s-32-17.1-4.3-23.5s49.1-8.5,57.6-32
	c8.5-23.5,10.7-59.8-8.5-83.2s-40.5-17.1-36.3-40.6s25.6-19.2,44.8-49.1s25.6-49.1,25.6-49.1s17.1,53.4,8.5,102.4
	s8.5,132.3-8.5,145.2s-40.6,17.1-32,32c8.6,14.9,27.8,32,27.8,70.4s12.8,57.6,14.9,32s0-44.8,14.9-42.7s25.6-2.2,25.6-21.3
	s-19.2-21.3-23.5-32s-2.1-40.5,10.7-51.2s8.5-23.5,12.8-85.4s-4.3-93.9-8.5-102.5s17.1-6.4,19.2-42.7s2.1-106.7-4.3-136.6
	s-19.2-55.5-66.2-79s-44.8-47-61.9-57.6s-23.5-8.5-23.5-36.3c0-3.5,0.2-7.7,0.3-12.5h-38.6c1.6,6.6,2.5,14.7,6.3,23.2
	C932.2,42.4,951.4,70.1,925.8,78.7z"/>
<path class="st1" d="M831.8,63.7C851,53,857.4,50.9,887.3,53s36.3-12.8,8.5-27.7c-22.4-12.1-36.5-13-45.5-25.3H808
	c-1.1,20.9-1,37.8-3.9,46.6C799.8,59.5,812.6,74.4,831.8,63.7z"/>
</svg>
