<?xml version="1.0" encoding="utf-8"?>
<!-- Generator: Adobe Illustrator 20.1.0, SVG Export Plug-In . SVG Version: 6.00 Build 0)  -->
<svg version="1.1" id="Layer_1" xmlns="http://www.w3.org/2000/svg" xmlns:xlink="http://www.w3.org/1999/xlink" x="0px" y="0px"
	 viewBox="0 0 1280 800" style="enable-background:new 0 0 1280 800;" xml:space="preserve">
<style type="text/css">
	.st0{opacity:0.5;}
	.st1{fill:#FFFFFF;}
</style>
<title>cropped-zodiac-illustrations</title>
<g id="libra_2_" class="st0">
	<path class="st1" d="M308.3,225c0,0,17,24,43.8,22.6c25.9-1.4,24.2-35.6,81.1-38c2.1-0.1,0.4-45.2,2.6-45.2c0.7,0,11.9,0,9.2,0.4
		c-1.6,0.2,0,44.8,1.5,44.8c56.4,2.4,49.7,35.2,83.8,35.2c35.4,0,36.8-22.6,36.8-22.6s1.4,49.5-26.9,48.1
		c-25.6-1.3-32.7-23.4-82-27.6c-2.6-0.2-10.9,13.5-11.3,20.5c-0.3,6.1-6.8,2.8-9.9,2.8c-5.7,0-6.6-23.8-11.4-23.3
		c-50.5,4.9-57.1,33.2-79.1,33.2C322.4,275.9,308.3,225,308.3,225z"/>
	<path class="st1" d="M331.7,280.9l-34.4,107.7c0,0,10.9,15.6,43.7,15.6c32.8,0,45.3-15.6,45.3-15.6L352,279.3l46.9,106.2
		c0,0,12.5,60.9-56.2,60.9c-68.7,0-56.2-57.8-56.2-57.8L331.7,280.9z"/>
	<path class="st1" d="M533.2,280.9l-34.4,107.7c0,0,10.9,15.6,43.7,15.6c32.8,0,45.3-15.6,45.3-15.6l-34.4-109.3l46.8,106.2
		c0,0,12.5,60.9-56.2,60.9c-68.7,0-56.2-57.8-56.2-57.8L533.2,280.9z"/>
	<path class="st1" d="M305.2,390.5c0,0,20.3,6.2,37.5,6.2c17.2,0,32.8-6.2,32.8-6.2s-14-4.7-32.8-4.7
		C323.9,385.8,305.2,390.5,305.2,390.5z"/>
	<path class="st1" d="M507.7,390.5c0,0,20.3,6.2,37.5,6.2c17.2,0,32.8-6.2,32.8-6.2s-14-4.7-32.8-4.7
		C526.4,385.8,507.7,390.5,507.7,390.5z"/>
	<path class="st1" d="M460.8,136.6c-18.4,0-9.9-12.8-31.2-11.3c-21.3,1.4-35.4,24.1-25.5,29.8c9.9,5.7,19.9,11.3,24.1,5.7
		c4.3-5.7,8.1,5.1,16.8,4c8.7-1.1,3-8.2,21.5-9.6c18.4-1.4,22.7-1.4,49.6,5.7c26.9,7.1,61,9.9,72.3,8.5c11.3-1.4,12.8-21.3,21.3-17
		c8.5,4.3-8.5,11.3,21.3,14.2c29.8,2.8,41.1-2.8,41.1-2.8s-2.8,36.9,7.1,65.2c9.9,28.4,21.3,45.4,21.3,63.8
		c0,18.4,7.1,28.4,7.1,28.4s-26.9,2.8-46.8,45.4c-19.9,42.5-61,124.8-63.8,140.4c-2.8,15.6,0,18.4-5.7,21.3
		c-5.7,2.8-18.4,7.1-18.4,22.7c0,15.6,2.8,24.1-4.2,29.8c-7.1,5.7-28.4,35.4-41.1,69.5c-12.8,34-19.9,61-19.9,61
		s-12.8-2.8-12.8,11.3c0,14.2-7.1,18.4-21.3,25.5c-14.2,7.1-29.8,14.2-46.8,21.3c-17,7.1-29.8,11.3-17,14.2
		c12.8,2.8,49.6-5.7,76.6-1.4c26.9,4.3,41.1-2.8,36.9-17c-4.3-14.2,0-56.7,7.1-62.4c7.1-5.7,32.6-4.3,53.9-39.7
		c21.3-35.4,22.7-72.3,22.7-72.3s12.8-8.5,15.6-19.8c2.8-11.3,2.8-11.3,2.8-11.3s18.4,5.7,35.4-12.8c17-18.4,34-48.2,56.7-83.6
		c22.7-35.4,31.2-41.1,32.6-75.1c1.4-34-5.7-42.5,7.1-39.7c12.8,2.8,14.2,18.4,14.2,45.4c0,26.9-15.6,45.4-25.5,55.3
		c-9.9,9.9-12.8,22.7,0,36.9c12.8,14.2,32.6,43.9,44,68.1c11.3,24.1,18.4,46.8,28.3,51c9.9,4.3,22.7,2.8,22.7,2.8s-1.4,17,8.5,51
		c9.9,34,24.1,44,36.9,58.1c12.8,14.2,26.9,26.9,26.9,36.9c0,9.9,2.8,11.3,2.8,26.9c0,15.6-4.3,21.3,21.3,18.4
		c25.5-2.8,56.7-1.4,56.7-1.4s4.2-17-12.8-15.6c-17,1.4-24.1-2.8-29.8-9.9c-5.7-7.1-18.4-12.8-18.4-12.8s-12.8-19.8-14.2-51
		c-1.4-31.2-7.1-66.6-29.8-102.1c-22.7-35.4-31.2-44-42.5-41.1c-11.3,2.8-22.7,1.4-22.7,1.4s11.3-46.8-2.8-72.3
		c-14.2-25.5-24.1-36.9-36.9-38.3c-12.8-1.4-21.3-11.4-2.8-15.6c18.4-4.2,32.6-5.7,38.3-21.3c5.7-15.6,7.1-39.7-5.7-55.3
		c-12.8-15.6-26.9-11.4-24.1-26.9c2.8-15.6,17-12.8,29.8-32.6c12.8-19.8,17-32.6,17-32.6s11.3,35.4,5.7,68.1
		c-5.7,32.6,5.7,87.9-5.7,96.4c-11.3,8.5-26.9,11.3-21.3,21.3c5.7,9.9,18.4,21.3,18.4,46.8c0,25.5,8.5,38.3,9.9,21.3
		c1.4-17,0-29.8,9.9-28.4c9.9,1.4,17-1.4,17-14.2c0-12.8-12.8-14.2-15.6-21.3c-2.8-7.1-1.4-26.9,7.1-34c8.5-7.1,5.7-15.6,8.5-56.7
		c2.8-41.1-2.8-62.4-5.7-68.1c-2.8-5.7,11.3-4.3,12.8-28.4c1.4-24.1,1.4-70.9-2.8-90.7c-4.3-19.9-12.8-36.9-44-52.5
		c-31.2-15.6-29.8-31.2-41.1-38.3c-11.3-7.1-15.6-5.7-15.6-24.1s7.1-69.5-45.4-68.1c-52.5,1.4-48.2,17-51,39.7
		c-2.8,22.7-1.4,42.5-4.3,51c-2.8,8.5,5.7,18.4,18.4,11.3c12.8-7.1,17-8.5,36.9-7.1c19.9,1.4,24.1-8.5,5.7-18.4
		c-18.4-9.9-28.4-8.5-34-24.1c-5.7-15.6,15.6-39.7,14.2-25.5c-1.4,14.2,8.5,21.3,22.7,22.7c14.2,1.4,9.9,12.8,15.6,25.5
		c5.7,12.8,18.4,31.2,1.4,36.9c-17,5.7-31.2,8.5-63.8,5.7c-32.6-2.8-51,2.8-73.7,7.1c-22.7,4.3-65.2,1.4-93.6,2.8
		c-28.4,1.4-29.8,12.8-41.1,11.3C470.8,138.1,460.8,136.6,460.8,136.6z"/>
</g>
</svg>
