<?xml version="1.0" encoding="utf-8"?>
<!-- Generator: Adobe Illustrator 20.1.0, SVG Export Plug-In . SVG Version: 6.00 Build 0)  -->
<svg version="1.1" id="Layer_1" xmlns="http://www.w3.org/2000/svg" xmlns:xlink="http://www.w3.org/1999/xlink" x="0px" y="0px"
	 viewBox="0 0 1280 800" style="enable-background:new 0 0 1280 800;" xml:space="preserve">
<style type="text/css">
	.st0{fill:#FFFFFF;}
</style>
<title>sagittarius</title>
<g id="sagittarius">
	<path class="st0" d="M1083.9,43.8c0,0-20.3,27.4,6.2,106.5c29.3,87.3,51.8,89,42.8,122.7s-37.9,44-37.9,44s16.1-23.6,10.7-52.9
		s-16.8-60.1-31.4-91.8S1063.9,76.2,1083.9,43.8z"/>
	<path class="st0" d="M1003,657.7c0,0-14-31.1,29-102.6c47.4-79,69.7-75.8,68.3-110.6s-27.5-51.1-27.5-51.1s10.6,26.5-0.9,53.9
		s-29.4,55.1-50.4,82.9S990.5,621.7,1003,657.7z"/>
	<polygon class="st0" points="879.2,210.8 1078.4,52.2 878.3,195.8 	"/>
	<polygon class="st0" points="1000,663.7 927.1,524.8 933.8,511.8 	"/>
	<path class="st0" d="M891.8,36.1c-0.5-8.2-21.6-29.8-61.5-31s-61.1,13.3-69.1,43.3s-10.5,54.8-24.3,56.5l-13.8,1.7
		c0,0-7.3,7.4,21.4,20.4s46.6,16.3,46.6,16.3s-2-17.9,5.4-25.4s13,11.5,14.8-5.4s2.7-35.5,9.8-52.3s20.8-28,4.7-22.9
		s-27.3,22.2-27.3,22.2s4.5-27,22.4-28.9s16.2,9.7,36.6,13.7C869.6,46.8,882.1,43.8,891.8,36.1z"/>
	<path class="st0" d="M878.9,59.5c0,0,6,17.7,12.5,28.8s9.4,25.3,1.2,25.8s-8.9,8.3-7.4,12.8c1.5,4.4-3.7,13.8-23.9,4.4
		s-32.2-9.9-30.5-21.5s-9-11.8-4.6-28S865,46.4,878.9,59.5z"/>
	<path class="st0" d="M892.3,135.4c0,0,22.3,1.9,15.2,13.4s-18.4,13.9-36.9,7.7s-24.9,8.1-24.9,8.1s3.2-7.2-14.2-17.1
		s-26.4-21.7-26.4-21.7c14.9,5.8,30.2,10.7,45.7,14.8C877.1,147.4,900.4,140.2,892.3,135.4z"/>
	<path class="st0" d="M653.9,226.3c0,0-15.6,13.3,9.5,14.6s53.4,0.7,83.2,4.6s-32.1-3.7-58.2,2C644.3,257.3,589,238.6,653.9,226.3z
		 M789.7,148.4c0,0,6.4,16.4-12.5,16.8s-29.5,0.2-66.4,7.9s-94.1,31.4-103,45.1s-17.5,35.6,12.8,47.6s66.8,11,97.6,5.8
		s53.8-5.9,71.3-1.2s34-1.7,36.6,8.4s8.9,17.1-12.8,12.7s-48.6-8.9-36.1-0.2s13.6,14.3,27.7,16.7s17.6-0.7,37.5-4.8s37.5-4.8,36,5.5
		s-17.3,24.9-43.9,19.2s-37.2-11.2-37.2-11.2s10.3,26.9,40.8,28.2s36.8-2.3,36.8-2.3s18.6-4.5,14.4-19s-3-29,2.8-40.8
		s1.6-26.4-3.8-41.2s-2-11.6-9.1-30.8s-10.7-30.8-9.8-34.5s-11.3,2.4-37.9-8.7S789.7,148.4,789.7,148.4L789.7,148.4z"/>
	<path class="st0" d="M740.8,277.5c0,0,7.8,6.1,21.8,39.3s28.7,58.5,62.3,63.4s48-19.5,48-19.5s19.8-4.1,15.2,13.4s-4.4,21.6-0.5,32
		s0.6,23,8.2,19.6s21-18.6,14.9-30.9s3.9-29.8,13.4-15.2s9.1,26.5,2,38s-13.7,11.1-20.5,26.7S889.7,479,889.7,479s3.5,17,14.1,2.4
		s34.1-58,40.2-40.3s-1.9,51.1-10.2,70.7s-27.7,37.2-43.3,50.5s-56.6,26.5-44.7,52.5s13.9,38.5,53.2,57s62.3,37.9,38.3,47.7
		s-81.2,33.4-101.2,48.2s-20.4,21.4-37,18.3s-19.4-2.5-38.4,3.2s-54.1,1.8-54.1,1.8s14.3-13.6,24.8-22.9s20.7-17.3,20.7-17.3
		s5.5,9.5,22.1,12.5s25.1,1.3,25.1,1.3s2.9-5.9,12.1-10.2s12.3-0.8,31.9-9s51-30.7,54.8-35.1s3-11.3-27.3-23.3s-74.3-33.1-87-45.8
		s11.8-14.3-7-19.2s-33.9-3.6-23.1,11.3s19.6,37.4,35.1,49.5s41.2,21.6,20.7,28.2s-28.8,17.8-71.4,26.7s-62.1,11.7-69,12.5
		s-16.6-3-41.9-13.8s-31.7-27.1-47-29.9s-9.3-10.5,10.6-14.6c11.8-2.5,23.8-3.8,35.9-3.9c0,0-3.4,17.8,7.8,26.2s15.5,17.5,26.5,16.4
		s17.1-8.9,39.5-12.3s52.3-10.3,62.7-14.2s15-16.1-8.1-24.9s-20.8-17.6-49.6-25.2s-42-28.5-41.9-39.2l0.1-10.7
		c0,0-56.9-17.8-85.8-65.6s-28.2-75.8-24.5-135.1s-11.8-142.5-88.1-127.8c0,0-26.7,19.7,2.2,22s65.7,20.1,52.4,50
		s-34.2,43.2-61.2,64.2S407.3,449,375.4,458s-42.8,4.8-30.7-30.9s35.9-49.5,45.9-72.2s19.8-44.3,29.5-45.8s16.5-11.7,10.7-25.3
		s-31.7-27.2-51.4-8.3s-39.4,52.6-69.5,70.1s-75.5,6.8-72.5-70.1c0,0,10.6,43,50.4,12c106.4-83,90.8-160.8,154-141.4
		s31.8,107.6,31.8,107.6s-1.1,9.1,24.5,3.8c25.5-5.3,44.9-17.6,80.5,14.6s48.3,50.3,97.6,76.8S787.6,369,752.9,333
		s-31.5-37.8-25.5-45.6C730.9,282.9,735.5,279.4,740.8,277.5z M863.8,450.8c-1,3.8-4.8,48.3-16.1,76.1s-29.2,44.5-52.3,55.8
		s-32.8,12.7-32.8,12.7s24,10.4,44.9,2.5s58.9-35.3,72.9-67.8s15.6-39.8,15.6-39.8s-17.7,7.1-21-5.9S863.8,450.8,863.8,450.8z"/>
	<path class="st0" d="M929.8,194.2c0,0,20.4,10,15.3,40.9s-14.3,42.3-14.3,42.3s16.9-0.1,10.6,18.2s-14,23.9-23.3,18.4
		s7.8-17.9-3.2-28.5s-14.2-16-14.2-16s13.5-10.3,6.5-24.4s-17.8-13.9-8.7-25.3S906.1,191,929.8,194.2z"/>
	<path class="st0" d="M936.6,325.1c-16.2-7.6-20.7,8.4-26.7,25.2s-5.6,15.4,10.2,19.6S951.7,332.2,936.6,325.1z"/>
	<path class="st0" d="M953.6,348c6.2-11.9,11.2-1.6,19.3-14.9s20-11.6,41.1-4.5c21.1,7.1,13.8,17.5,17.6,26.2s15.2,24-22,24.9
		s-47.2,4.4-58.4,6S947.3,360.2,953.6,348z"/>
	<path class="st0" d="M1046.6,345c11.6-3.1,12.4-12.1,16.5-21.8s11.5,3,26.6,4s36.4-4.2,30.2,8s-12.6,24.3-12,33.7
		s-11.1,18.6-19.2,8.8s-14.7-8.5-29.8-9.4S1046.6,345,1046.6,345z"/>
	<path class="st0" d="M537.6,370c0,0-24.1,50.5-16.8,92.3S564,549,564,549s-30.1-14.1-43.8-37.7l-13.7-23.6c0,0-73.9,6.5-103.1,58.7
		s-42.9,80.8-34.8,96.8s4.6,35,4.6,35s12.8,9.5,11.2,21.4c-0.7,5.9-1.8,11.8-3.1,17.6l-32.3-11.6c0,0-1.6-17.3,2.5-20.9
		s13.9-17.7,1.5-28.7s-17.3-27.6-10.3-36.5s19.5-27.1,32.1-57.5s21.2-51.2,29.6-59.8s27.4-28.1,52-33.9s40.2-12.4,40.2-12.4
		s-33-8.7-51.8-7.5l-18.8,1.2c0,0,16.7-10.9,51.3-37.1s52.3-58.4,52.3-58.4S542.1,358.9,537.6,370z"/>
	<path class="st0" d="M346.3,477.6c0,0-35,27.6-54.8,56.2c-19.8,28.5-33.1,49.6-33.4,68s3.1,34.7,5.9,41.5s14.6,14.6,13.3,25
		c-0.7,6.1-0.8,12.2-0.2,18.4l-49.9-14.7c0,0-4.8-16.6,4.6-23.3s15.4-17.5,13-25.8s-9.6-10.2-10.5-24.3s4.7-29.5,18.3-45.8
		c13.6-16.4,20.7-14.5,24.7-41.1s2.2-54.7,18.2-62.8s26.3-0.7,33,8.7S346.3,477.6,346.3,477.6z"/>
</g>
</svg>
