<?xml version="1.0" encoding="utf-8"?>
<!-- Generator: Adobe Illustrator 20.1.0, SVG Export Plug-In . SVG Version: 6.00 Build 0)  -->
<svg version="1.1" id="Layer_1" xmlns="http://www.w3.org/2000/svg" xmlns:xlink="http://www.w3.org/1999/xlink" x="0px" y="0px"
	 viewBox="0 0 1280 800" style="enable-background:new 0 0 1280 800;" xml:space="preserve">
<style type="text/css">
	.st0{opacity:0.5;}
	.st1{fill:#FFFFFF;}
</style>
<title>cropped-zodiac-illustrations</title>
<g id="scorpio_1_" class="st0">
	<path class="st1" d="M1045.4,414.4c0,0-61.2,38.8-32.9,74.2s84.8-7.5,84.8-7.5s-33.2,57.9-101.1,73.9
		c-67.9,15.9-78.8-7.7-85.2-14.3c-6.4-6.6,0.5-62.7,47.5-95.4C1005.6,412.6,1045.4,414.4,1045.4,414.4z"/>
	<path class="st1" d="M894.2,537.7c-10.7-12.8-8.8,0.6-38.5-2.6c-29.8-3.2-37-11-42.7-3.4c-5.7,7.6-2.8,9.3,25.9,18.8
		c28.6,9.5,45.8,10.4,56.6,4.8C906.2,549.6,894.2,537.7,894.2,537.7z"/>
	<path class="st1" d="M806.2,527.2c-2.3-11.3-5.7-16.2-20.8-16.8c-15.1-0.5-21.4-1.7-26.9-7c-5.5-5.3-20.6-5.9-9.9,6.9
		c10.7,12.8,17.4,11.8,32.6,23.2c15.3,11.4,31.8-1.9,31.8-1.9L806.2,527.2z"/>
	<path class="st1" d="M744.8,489.1c-3.8-20.8-27.8-32.1-33-39.5c-5.2-7.4-23.6-7.5-17.1,4.5c6.5,12,9.2,21.2,1.4,28.4
		c-7.8,7.3-17.9,3.3-11.1,31.6c6.8,28.3,22.1,39.7,26.5,33c4.5-6.8-3.1-7.1-1.3-23c1.8-15.9-2-18.8-6.4-30.4
		c-4.4-11.6,10.5-22,7.9-25.7c-2.6-3.7,14.9,13.5,19.3,25.1C735.5,504.7,748.1,507,744.8,489.1z"/>
	<path class="st1" d="M727.7,554.2c12.5,10.9,26.9,30.9,20.9,40.6c-6.1,9.7-12.1,1.1-25.4-15.4C709.8,562.9,713.6,541.9,727.7,554.2
		z"/>
	<path class="st1" d="M769.2,606.1c12.1-1.1,20.6,5.9,27.4,10.4c6.8,4.5,16.5-13.3,25.4-8.4c8.9,4.8,10.6,31.2-4.9,27.3
		c-15.5-3.9-17.9-15.1-27.4-10.4c-9.5,4.8-21.3,3.7-28.1-6.2C754.6,608.9,769.2,606.1,769.2,606.1z"/>
	<path class="st1" d="M666.5,526.9c0,0-1.4,13.8,1.9,31.7c3.3,17.9-9.1,26.5-13.4,20.3c-4.3-6.2,10.2-14.4,0.3-25.9
		c-9.8-11.5-13.8-19.8-9.3-26.6C650.5,519.7,666.5,526.9,666.5,526.9z"/>
	<path class="st1" d="M684.2,597.3c12.5,11,19.3,25.1,24.5,32.6c5.2,7.4,3.4,23.4-8.2,9.4c-11.6-14-19-32.7-25-41.4
		C669.4,589.2,679.5,593.2,684.2,597.3z"/>
	<path class="st1" d="M725.5,638.3c10,11.4,11.7,19.4,21.7,18c10-1.4,15.1,0.6,20.6,5.9c5.5,5.3,18.2,13,24.8,6.6
		c6.6-6.4-0.2,13-12.3,14c-12.1,1.1-18.2-13-29.5-10.7c-11.3,2.3-17.9,3.3-27.4-10.4C714,648.2,716.5,628,725.5,638.3z"/>
	<path class="st1" d="M633.8,546c0,0,2.7,9.2-4.3,17.6c-6.9,8.5,11.7,19.4,3.9,26.7c-7.8,7.3-25.6,16-25.6,16s17.8-8.7,9.2-21.1
		c-8.6-12.4-10.5-25.7-1-30.5C625.5,549.9,633.8,546,633.8,546z"/>
	<path class="st1" d="M633.2,621.7c8.6,12.4,3.6,15.8,17.3,30.2c13.7,14.4,15,19,10.9,23.6c-4.1,4.7-2.7,9.3-22.9-17.1
		c-20.2-26.4-15.9-44-15.9-44L633.2,621.7z"/>
	<path class="st1" d="M694.5,702.1c-8.8,0.6-21.9-5-14.9-13.5c6.9-8.5,12.4-8.6,23-1.3c10.6,7.3,18.1,7.6,24.4,8.7
		c6.3,1.1,5.6,10.8-5.6,13.1C710.2,711.4,694.5,702.1,694.5,702.1z"/>
	<path class="st1" d="M585.5,579.5c4.4,11.6-1.9,10.5-2.9,22.2c-1,11.7,8.6,12.4-2.1,23.5c-10.7,11.1-16.5,13.3-16.5,13.3
		s16.4-18.7,8.3-27.8s-9.6-19.1-2.1-24.2C577.6,581.3,585.5,579.5,585.5,579.5z"/>
	<path class="st1" d="M592,657.6c9.4,17.4,5.4,18.3,16.4,29c11.1,10.7,4.9,15-0.5,15.1c-5.4,0.1-16.5-10.6-26.6-33
		C571.3,646.3,585.5,645.6,592,657.6z"/>
	<path class="st1" d="M636.5,711.1c11.5,8.6,14.7,2.7,23.2,9.6c8.5,6.9,19.5,12.2,24.1,10.8c4.6-1.3,2.3,11.2-9.8,12.3
		c-12.1,1.1-15.2-6-21.6-12.6c-6.4-6.6-6.8-4.5-20.2-8C618.7,719.8,636.5,711.1,636.5,711.1z"/>
	<path class="st1" d="M817.7,75.2c0,0-60.4,39.9-81.2-0.4C715.7,34.5,778,0.5,778,0.5s-66.4,6.6-108.8,62
		c-42.3,55.4-25.2,75-21.8,83.6c3.4,8.5,57.5,25.2,106.5-4.3C803,112.2,817.7,75.2,817.7,75.2z"/>
	<path class="st1" d="M643.3,162.6c7.3,15-4.1,7.8-13.4,36.2c-9.3,28.5-5.1,38.3-14.4,40.4c-9.3,2.1-9.6-1.3-6.5-31.3
		c3-30,9.2-46,18.8-53.6C637.3,146.8,643.3,162.6,643.3,162.6z"/>
	<path class="st1" d="M616.8,247.2c9.3,6.7,12.4,11.9,6.8,25.8c-5.7,14-7.2,20.2-4.6,27.4c2.6,7.2-3.1,21.2-10.3,6.2
		c-7.3-15-3.6-20.7-7.8-39.3c-4.2-18.6,14.7-28.2,14.7-28.2L616.8,247.2z"/>
	<path class="st1" d="M626.5,318.8c17.4,11.9,17.9,38.5,22.6,46.2c4.7,7.7-2.8,24.6-11.1,13.7c-8.3-10.8-15.5-17-25.4-12.9
		c-9.8,4.2-10.3,15-33.4-2.8c-23-17.8-27.2-36.4-19.2-37.7c8-1.3,5.2,5.7,20.4,10.6c15.3,4.9,16.3,9.6,25.1,18.3
		c8.8,8.8,24.3-0.6,26.7,3.3c2.3,3.9-6.2-19.1-15-27.9C608.4,320.9,611.5,308.5,626.5,318.8z"/>
	<path class="st1" d="M560,307.8c-4.9-15.9-17.1-37.2-28.5-35.6c-11.4,1.6-5.9,10.6,3.7,29.5C544.8,320.5,565.5,325.7,560,307.8z"/>
	<path class="st1" d="M529.7,248.7c5.9-10.6,3.1-21.2,1.8-29.2c-1.3-8,18.9-9.6,18.1-19.7c-0.8-10.1-24.1-22.5-26.9-6.7
		c-2.8,15.8,6.5,22.5-1.8,29.2c-8.3,6.7-12.1,17.9-5.9,28.2C521.2,260.8,529.7,248.7,529.7,248.7z"/>
	<path class="st1" d="M559.9,374.8c0,0-13.2-4.4-28.2-14.7c-15-10.3-27.9-2.5-24,3.9c3.9,6.5,17.3-3.4,23.8,10.3
		c6.5,13.7,12.5,20.7,20.5,19.4C559.9,392.4,559.9,374.8,559.9,374.8z"/>
	<path class="st1" d="M502.9,329.9c-4.9-15.9-15.1-27.9-19.7-35.6c-4.7-7.7-19.9-12.6-11.9,3.6c8.1,16.3,22,30.7,27.5,39.8
		C504.3,346.7,504.7,335.8,502.9,329.9z"/>
	<path class="st1" d="M482.4,275.4c-6.3-13.8-13-18.6-7.5-27.1c5.4-8.5,5.7-14,3.1-21.2c-2.6-7.2-4.4-22,4.1-25.3
		c8.5-3.4-11.9-5.1-17.8,5.5c-5.9,10.6,4.4,22-2.3,31.3c-6.7,9.3-10.3,15-1.8,29.2C468.7,281.9,488.1,287.8,482.4,275.4z"/>
	<path class="st1" d="M529.2,396.8c0,0-7.3-6.2-17.9-3.3c-10.6,2.9-12.9-18.6-22.8-14.4c-9.8,4.2-25.1,16.9-25.1,16.9
		s15.2-12.7,23,0.2c7.8,12.9,19.2,20.1,27.4,13.4C522.2,402.8,529.2,396.8,529.2,396.8z"/>
	<path class="st1" d="M459.8,366.5c-7.8-12.9-12.9-9.8-20.5-28.2c-7.5-18.3-11.2-21.4-17.1-19.6c-5.9,1.8-9.6-1.3,6.3,27.9
		c15.8,29.2,33.7,32.5,33.7,32.5L459.8,366.5z"/>
	<path class="st1" d="M411.6,277.6c-4.1,7.8-4.4,22,6.2,19.1c10.6-2.9,12.9-7.8,10.6-20.4c-2.4-12.7,0.5-19.6,2-25.9
		c1.5-6.2-7.5-9.6-14.2-0.2C409.5,259.5,411.6,277.6,411.6,277.6z"/>
	<path class="st1" d="M478.8,427.2c-8.8-8.8-10.3-2.6-21.5-6.4c-11.1-3.9-7.8-12.9-22.2-7.7c-14.5,5.2-18.9,9.6-18.9,9.6
		s23.8-7.3,28.7,3.8c4.9,11.1,13.5,16.5,21.2,11.9C473.9,433.6,478.8,427.2,478.8,427.2z"/>
	<path class="st1" d="M410.2,389.3c-12-15.8-14.5-12.4-19.7-26.9c-5.2-14.5-11.6-10.6-14-5.7c-2.3,4.9,2.9,19.4,19.2,37.7
		C412.1,412.8,418.5,400.1,410.2,389.3z"/>
	<path class="st1" d="M379.6,326.8c-3.1-14,3.6-14.5,0.7-25.1c-2.9-10.6-3.1-22.8,0-26.4c3.1-3.6-9.3-6.7-15.2,3.9
		c-5.9,10.6-0.7,16.3,2.6,24.8c3.4,8.5,1.3,8-1,21.7C364.3,339.5,379.6,326.8,379.6,326.8z"/>
	<path class="st1" d="M753.1,329.1c0,0-42.2,23.8-30.2,41.1c12,17.3,59.8-1.1,59.8-1.1s-18.7,31.3-38.3,32.1
		c-19.6,0.8-25.1,0.9-27.7,15.6c-2.7,14.7-0.1,18.4-11.3,20.7c-11.2,2.3-7.2,16-18.7,25.9c-11.5,9.8-28.1,17.7-52.5-9.5
		c-24.4-27.1-28.6-51.7-20.9-64.4c7.7-12.7,17.9-3.3,29.2-5.6c11.3-2.3,24.1-7.6,18.5-18.3c-5.6-10.8,12.4-8.6,21.6-5.8
		c9.2,2.8,22.5-4.6,22.5-4.6S718.7,321.8,753.1,329.1z"/>
	<path class="st1" d="M591.2,392l1.6,20.9c0,0-16,16.6,6.3,43.4c22.3,26.8,48.6,25,48.6,25s14.8,8.1,5.4,18.3
		c-9.4,10.2-7.4,29-33.6,12.4c-26.2-16.7-43.2-30.6-55.5-58.8c-12.3-28.2-6.3-43.4,0.3-49.8C570.8,397,591.2,392,591.2,392z"/>
	<path class="st1" d="M542.9,407.2c0,0-17.7,14.1-25,24.7c-7.3,10.6-18.9,20.4,1.9,55.6c20.7,35.2,27.2,47.2,47.8,53.1
		c20.6,5.9,36.8,0.1,42.5-7.5c5.7-7.6,2.5-1.7-19.6-17.6c-22.1-15.9-32.7-23.2-45.4-54.8C532.5,429.1,542.9,407.2,542.9,407.2z"/>
	<path class="st1" d="M494.3,442.8c0,0-10,25.3,14.1,60c24.1,34.7,37.3,51.2,47.8,53c10.5,1.9,25.2,4.5,25.2,4.5s-23.5,16.3-47.8,13
		c-24.3-3.3-32.4-12.3-51.8-42.9c-19.4-30.6-20.8-59-14.7-68.7C473.1,452,494.3,442.8,494.3,442.8z"/>
	<path class="st1" d="M445.5,473c0,0-22.6,23,4.5,59.3c27,36.3,41.1,48.6,72.1,50.9c0,0-21,20.1-43.2,17.1c-22.2-2.9-30.6-4.4-50-35
		C409.4,534.7,407.9,495.5,445.5,473z"/>
	<path class="st1" d="M391.7,548.9c0,0,13.8,19.8,19.9,33.9c6.1,14.1,13.4,3.5,25.3,10c11.8,6.5,15.5,22.3-3.6,31.9
		c-19.1,9.6-26.2,31-24.8,35.6c1.3,4.6-6.9-9.9-19-8.8c-12.1,1.1-22.1,2.5-22.8-11.7c-0.7-14.2,14.1-30,11.6-52.1
		C375.7,565.5,384.8,539,391.7,548.9z"/>
	<path class="st1" d="M365,684.9c-10.5-15.1-3.5-28.8,13.4-20.3c16.9,8.5,24.6,19.6,31.4,24.1c6.8,4.5,8.3,19.9-4,34
		c-12.3,14-14.9,28.7-26,18.1c-11.1-10.7-11.6-14-16.3-23.5C358.8,707.6,369.3,691.1,365,684.9z"/>
	<path class="st1" d="M358.4,733.5c3.8,7.9,2,18.8,13.8,19.8c11.7,1,27.3,4.9,14.9,13.5c-12.4,8.6-24.3,20.5-32.6,24.5
		c-8.3,3.9-24.3-3.3-18.2-13c6.1-9.7,11.4-15.3,12.1-24.9C349,743.8,354.5,725.3,358.4,733.5z"/>
	<path class="st1" d="M324.2,784.8c-8.4-8.6-7.2-2.4-19.8-10.1c-12.7-7.7-17.5-17.2-27.4-10.4c-9.9,6.9-13.4,20.3,0,23.8
		c13.4,3.5,18.1,7.6,29.5,10.7C317.9,802.1,330.6,791.4,324.2,784.8z"/>
	<path class="st1" d="M250.9,753.1c-5.3-12.9-14.2-23.2-22.5-37.6c-8.2-14.5-16.6-16-18.5-5.5c-1.9,10.5-5.7,7.6,8.9,28.7
		c14.6,21.1,19.4,30.6,26.5,27.5C252.3,763.2,250.9,753.1,250.9,753.1z"/>
	<path class="st1" d="M210,673.2c0.7-19.1-3.9-32.1-12.3-33.7c-8.4-1.5-9.2,2.7-9.7,17.8c-0.5,15.1,3.4,23.4,6.4,30.4
		C197.5,694.8,209.5,688.3,210,673.2z"/>
	<path class="st1" d="M204.6,607.2c-7.7-11.1-17.1-19.3-20.6-5.9c-3.5,13.4,0.8,19.6,6.7,22.9C196.6,627.5,204.6,607.2,204.6,607.2z
		"/>
	<path class="st1" d="M260.1,557.7c0,0-20.4-18.8-30.6-4.4c-10.2,14.4-10.2,14.4-10.2,14.4s-8.5-6.9-15,4.9
		c-6.5,11.8-3.3,24.3,5,20.4c8.3-3.9,13.2-7.4,13.2-7.4s2.2,5.8,15.3,11.4c13.1,5.6,27.2-18.9,27.2-18.9s-19,9.6-24.3-3.3
		C235.5,561.9,260.1,557.7,260.1,557.7z"/>
</g>
</svg>
