<?xml version="1.0" encoding="utf-8"?>
<!-- Generator: Adobe Illustrator 20.1.0, SVG Export Plug-In . SVG Version: 6.00 Build 0)  -->
<svg version="1.1" id="Layer_1" xmlns="http://www.w3.org/2000/svg" xmlns:xlink="http://www.w3.org/1999/xlink" x="0px" y="0px"
	 viewBox="0 0 1280 800" style="enable-background:new 0 0 1280 800;" xml:space="preserve">
<!--
<style type="text/css">
	.st0{fill:none;}
	.st1{fill:#FFFFFF;}
</style>
-->
<title>taurus</title>
<path class="st0" d="M1019,0c23.4,21.6,43.3,50.5,24.7,77.6c-33.8,49.4-95.6,81.3-26.7,101.2c80.9,23.4,175.2,62.1,196.9,145.7
	s-46,147.4-46,147.4s-21.4-24.9,0.2-37c29.8-16.7,47.4-69.1,35.2-104.9s-47.9-91.4-124.6-116.6S961.2,183.7,965,120.1
	c3.8-62.3,51-69.2,28.2-120.1H0v800h699.5l-27-31.5l2.1-39l51.3,0.1l-2.1,20.5l-16,12.8l5.7,15.9l-2.6,21.2h42.9
	c10.1-10.2,26-24.7,37.9-27.9c18.8-5,47,4.9,47,4.9l-4.4,23h90.9c10.8-16.5,54.2-58.6,64.8-73.5c11.2-15.8,21.4-48.1,8.1-65.3
	s-26-46.8-34.6-107s-8-138.3,31.2-175c0,0-62.1,6.5-67.2,55.6s-5.9,63.4-5.9,63.4s-22.2-7.5-61.2,25.1S808,571.4,808,571.4
	l-73.8-4.4c0,0,88.3-64.6,88.3-132.5s-23.5-87.8-23.5-87.8s23.6-62.1,9.9-129c-11.1-54.2-46.9-74.9-46.9-74.9s22.6,34.3,28.6,104.6
	s-9.5,87.9-9.5,87.9s31.8,51.3,16.6,99.8s-46,79.5-57.3,97.3s-13.5,19.8-40.8,28.4s-78.5,38.4-87.6,54.3s-15.5,52.5-8.1,65.3
	s31.2,28.7,47.2,35.8s11.2,52.1,11.2,52.1s-42.3-14.9-49.6-29.8s-33.8-53.5-51.2-71s-32.2-45.2,4.4-71.7s67.2-55.6,71.7-96.5
	s6.7-75.7,23.9-89.1s-50.8-11.3-47.8,42.3s-5,82-34.2,88.5s-16.3-36-27-63.4s-23.2-59-23.2-59s34.6,6.2,39.1,33.2
	s4.7,57.9,23.4,54.9s-1-51.5,9.5-87.9s34.8-65.8,61.3-95s65.6-131.9-11.6-146.8s-100.3,59.7-100.3,59.7s2.1-34.9-14.3-35.9
	s-72.2,3.8-72.2,3.8s24.6-66.4,105.9-117S729.8-3.2,792,56.1s103,133.8,179.7,192s166.3,106.8,169.6,222.2s-33.7,148.1-57.1,161.1
	s-76.7,9.7-53.4,31.7s35.5,24.8,7.4,47.8c-25.9,21.1-65.6,69.3-82.2,89.1H1280V0H1019z M884.4,532.9c27.7-14.8,36.3-22.5,44.6,10.9
	s19.7,48.5-19.1,44.1s-81.5-13.2-81.5-13.2S856.8,547.7,884.4,532.9z M854.3,724.5c19.1-9.1,53.5-33.8,46.3-50.7
	s-25.8-48.9-43.8-58.2s-19.2-21.8-19.2-21.8l75.6,8.7c1.1,15.5,5.8,30.6,13.8,44c13.1,21.4,26.3,40.7,0.7,55.6s-54,42-65.2,57.8
	s-10.4,1.5-28.4-5.8S835.2,733.6,854.3,724.5z M548.3,714.1c3.6,8.5,34.3,10.3,34.3,10.3l-1,16.4c-1,16.4,22.6,34.3-1.9,30.8
	s-33.5-24.7-33.5-24.7L548.3,714.1z M408,213.8c15.2-13.5,14.6-71.1,4.2-102.6c0,0,38.2,47.6,37.1,101s-20.1,60.5-44.1,48.8
	S392.8,227.3,408,213.8z M183,327.7c-25.1-61.2,34.7-96.7,34.7-96.7s-38.7,61.4,1.4,78.3s50.8,11.3,50.8,11.3l-6.7,42.8
	C263.1,363.4,200.4,370.2,183,327.7z M263.9,419c-19.1,9.1-40.4,22.2-40.4,22.2s10.1-30.2,19.5-50.2s31.6-12.5,31.6-12.5
	c-1.1,18.4,10.9,23.3,10.9,23.3S282.9,409.9,263.9,419z M409.7,557.5c-22.5-1.4-13.1-21.4-13.4-50.2c0,0,18.9-7.1,33-2.1
	s13,23.4,21.7,15.7s29.1-4.4,29.1-4.4S470,546.8,453,556S432.3,558.9,409.7,557.5z M542.9,532.7c19.5,17.7,31.5,22.5,31.5,22.5
	s-5.5,22.3-41.5,38.6s-46.6,21.8-50,44.3s15.8,44.2,26.9,65.4c11.1,21.2,27,30.4,27,30.4l-7.2,16l-30.9,0.2c0,0-16.3-36-35.3-61.8
	s-35.6-57.7-15-91.4s58.5-47.9,62.1-74.4s13.6-54.7,13.6-54.7S523.4,515,542.9,532.7L542.9,532.7z M497,441.4
	c-11.7,24-12.2,65.1-12.2,65.1s-30.5-6-40.2-14.8s0,0-8.2-0.5s-39.2,1.8-39.2,1.8s-5.6-8.6-14.3-35.8s-20.5-34.2-42.7-41.7
	s-9.4-15,22-23.4s53.9-33.4,37.4-38.9c-30.2-10.1-57,23.3-82.1,30s-35.2,4-39.1-33.2s-4.3-64,34.1-86.4s52-9.2,57.6-0.6
	s32.8,2,30.8,34.8s7.9,39.6,36.7,39.3s30.2-22.9,59.9-37.5c29.7-14.6,34.2,12.4,38,51.7S508.8,417.4,497,441.4z M579.5,234.5
	c26.1-23.1,62.9-53.8,83.4-17.6s13.7,46.1-19.8,89.3s-52,77.1-57.9,105.5S572.9,446,572.9,446s-4.3-31.1-18.4-36.1l-14.1-5
	c0,0,12.9-42.4,6.9-79.8s-36.2-47.5-36.2-47.5S553.5,257.6,579.5,234.5L579.5,234.5z M520.1,230.9L477.4,290
	c0,0-15.3,15.5-36.3,22.5s-17.6-15.5-4-35.2S520.1,230.9,520.1,230.9L520.1,230.9z"/>
<path class="st0" d="M431.9,396.3c0,0,6.6,27.1,19.8,13.5s14.7-38.2,17.8-56.5S443.5,374.4,431.9,396.3z"/>
<path class="st1" d="M965,120.1c-3.9,63.5,37,68.1,113.7,93.3s112.3,80.9,124.6,116.6s-5.4,88.1-35.2,104.9
	c-21.6,12.1-0.2,37-0.2,37s67.7-63.8,46-147.4s-116-122.3-196.9-145.7c-68.9-20-7.1-51.9,26.7-101.2c18.6-27.1-1.3-56-24.7-77.6
	h-25.8C1016,50.9,968.8,57.8,965,120.1z"/>
<path class="st1" d="M1038.2,710.9c28.2-23,16-25.8-7.4-47.8s30-18.8,53.4-31.7s60.4-45.7,57.1-161.1s-92.9-164.1-169.6-222.2
	S854.3,115.4,792,56.1S651.2,37.2,570,87.9s-105.9,117-105.9,117s55.8-4.9,72.2-3.9s14.3,35.8,14.3,35.8s23.1-74.7,100.4-59.7
	s38.1,117.5,11.6,146.8s-50.9,58.6-61.3,95s9.2,84.9-9.5,87.9s-18.9-27.9-23.4-54.9s-39.1-33.2-39.1-33.2s12.5,31.6,23.2,59
	s-2.2,69.8,27,63.4s37.1-34.8,34.2-88.5s65.1-55.7,47.8-42.4s-19.4,48.2-23.9,89.1s-35.1,69.9-71.7,96.5s-21.9,54.2-4.4,71.8
	s43.9,56.2,51.2,71s49.6,29.8,49.6,29.8s4.8-45-11.2-52.1s-39.8-23-47.2-35.8s-1.1-49.4,8.1-65.3s60.4-45.7,87.7-54.3
	s29.4-10.5,40.8-28.4s42.1-48.9,57.3-97.3s-16.6-99.8-16.6-99.8s15.5-17.6,9.5-87.9s-28.6-104.6-28.6-104.6s35.8,20.7,46.9,74.9
	c13.7,66.9-9.9,129-9.9,129s23.5,20,23.5,87.8S734.2,567,734.2,567l73.8,4.5c0,0,13.3-15.7,52.3-48.3s61.2-25.1,61.2-25.1
	s0.9-14.4,5.9-63.4s67.2-55.6,67.2-55.6c-39.3,36.7-39.9,114.8-31.2,175s21.3,89.8,34.6,107s3.2,49.6-8.1,65.3
	c-10.6,14.9-53.9,57-64.8,73.5H956C972.6,780.2,1012.3,732.1,1038.2,710.9z"/>
<path class="st1" d="M547.3,325.1c6,37.4-6.9,79.8-6.9,79.8l14.1,5c14.1,5,18.4,36.1,18.4,36.1s6.5-5.8,12.4-34.2
	s24.4-62.3,57.9-105.5s40.2-53.1,19.8-89.3s-57.3-5.5-83.4,17.6s-68.5,43.2-68.5,43.2S541.3,287.8,547.3,325.1z"/>
<path class="st1" d="M929,543.8c-8.3-33.4-17-25.7-44.6-10.9s-56,41.9-56,41.9s42.7,8.8,81.5,13.2S937.3,577.2,929,543.8z"/>
<path class="st1" d="M834,754.1c18.1,7.3,17.2,21.6,28.5,5.8s39.6-42.8,65.2-57.8s12.4-34.2-0.7-55.6c-8-13.4-12.7-28.5-13.8-44
	l-75.6-8.7c0,0,1.3,12.4,19.2,21.8s36.6,41.3,43.8,58.2s-27.2,41.5-46.3,50.7S815.9,746.8,834,754.1z"/>
<path class="st1" d="M524.2,467.8c0,0-10,28.2-13.6,54.7s-41.6,40.7-62.1,74.4s-4,65.6,15,91.4s35.3,61.8,35.3,61.8l30.9-0.2l7.2-16
	c0,0-15.9-9.2-27-30.4s-30.3-43-26.9-65.4s14-28,50-44.3s41.4-38.6,41.4-38.6s-12-4.8-31.5-22.5S524.2,467.8,524.2,467.8z"/>
<path class="st1" d="M437.1,277.3c-13.5,19.8-17,42.2,4,35.2s36.4-22.5,36.4-22.5l42.7-59.1C520.1,230.9,450.6,257.5,437.1,277.3z"
	/>
<polygon class="st1" points="707.9,762.9 723.9,750 726,729.5 674.6,729.5 672.5,768.5 699.5,800 710.9,800 713.6,778.8 "/>
<path class="st1" d="M791.7,772.1c-11.9,3.2-27.9,17.7-37.9,27.9h80.5l4.4-23C838.7,777,810.5,767,791.7,772.1z"/>
<path class="st1" d="M579.8,771.5c24.5,3.5,0.9-14.3,1.9-30.8l1-16.4c0,0-30.7-1.9-34.3-10.3l-2,32.8
	C546.3,746.9,555.3,768,579.8,771.5z"/>
<path class="st1" d="M405.1,260.9c24,11.7,42.9,4.7,44.1-48.8s-37.1-101-37.1-101c10.4,31.5,11,89.1-4.2,102.6
	S381.1,249.2,405.1,260.9z"/>
<path class="st1" d="M263.1,363.4l6.7-42.8c0,0-10.6,5.5-50.8-11.3s-1.4-78.3-1.4-78.3s-59.8,35.5-34.7,96.7
	C200.4,370.2,263.1,363.4,263.1,363.4z"/>
<path class="st1" d="M274.5,378.5c0,0-22.2-7.5-31.6,12.5s-19.5,50.2-19.5,50.2s21.4-13.1,40.4-22.2s21.6-17.2,21.6-17.2
	S273.4,397,274.5,378.5z"/>
<path class="st1" d="M497.4,299.5c-29.7,14.6-31,37.2-59.9,37.5s-38.7-6.5-36.7-39.3s-25.2-26.2-30.8-34.8s-19.2-21.8-57.6,0.6
	s-38,49.1-34.1,86.4s14,39.9,39.1,33.2s51.8-40.1,82.1-30c16.5,5.5-6,30.5-37.4,38.9s-44.2,15.8-22,23.4s34.1,14.4,42.7,41.7
	s14.3,35.9,14.3,35.9s31-2.2,39.2-1.7s-1.5-8.3,8.2,0.5s40.2,14.8,40.2,14.8s0.5-41.1,12.2-65.1s42.2-50.9,38.4-90.2
	S527.1,284.8,497.4,299.5z M469.4,353.3c-3.2,18.3-4.7,42.9-17.8,56.5s-19.8-13.5-19.8-13.5C443.5,374.4,472.6,335,469.4,353.3
	L469.4,353.3z"/>
<path class="st1" d="M480.1,516.5c0,0-20.4-3.3-29.1,4.4s-7.6-10.7-21.7-15.7s-33,2.1-33,2.1c0.3,28.8-9.1,48.8,13.4,50.2
	s26.2,7.8,43.2-1.5S480.1,516.5,480.1,516.5z"/>
</svg>
