<?xml version="1.0" encoding="utf-8"?>
<!-- Generator: Adobe Illustrator 20.1.0, SVG Export Plug-In . SVG Version: 6.00 Build 0)  -->
<svg version="1.1" id="Layer_1" xmlns="http://www.w3.org/2000/svg" xmlns:xlink="http://www.w3.org/1999/xlink" x="0px" y="0px"
	 viewBox="0 0 1280 800" style="enable-background:new 0 0 1280 800;" xml:space="preserve">
<style type="text/css">
	.st0{fill:none;}
	.st1{fill:#FFFFFF;}
</style>
<title>virgo</title>
<path class="st0" d="M735.4,35.3c9.8,8.3,9.6,19.7,4.5,28.5c19.7-8.2,23.7-16.1,51.7-24.7c-8.2,2.3-41.4,9.5-38.5-26.3
	c0.4-4.5,1.7-8.9,4-12.8H735C730.8,9.1,724.8,26.3,735.4,35.3z"/>
<path class="st0" d="M793.4,38.5c4-1.2,7.6-2.4,10.9-3.6l0.2-0.1l-0.1,0.1c2.1-0.8,4-1.6,5.9-2.3c1.1-1.1,2.2-2.1,3.4-3l1.5,0.8
	c2.9-1.4,5.7-2.9,8.5-4.5c-2.1-6.8-1.1-16.2,6.4-24.7c0.3-0.4,0.7-0.7,1.1-1.1H822c-2.7,3.5-4.3,7.6-3.3,12.2
	c3.4,15.2-11.2,23.9-23.3,22.1c-7-1.1-5.6-20.4,5.3-34.3h-11.6C768.1,19.1,793.4,38.5,793.4,38.5z"/>
<path class="st0" d="M433.4,563.2c126.3-25.9,191.4-37.8,192.4-60.7s-18.2-13.3-89.1-14.2s-196.4,6.3-352.3-6.5
	C95.8,474.5,35.6,469,0,465.7v41.1c4.2,0.2,8.7,0.3,13.5,0.3c47.9,0.1,337.5-8.7,337.5-8.7C171.2,511.4,58.6,531,0,543.8v61.7
	c53.5-17.2,136.1-42.6,223.6-65.7c149.8-39.5,370.8-36.5,370.8-36.5c-125.3,3-261.9,26.5-361,51.5c-63.2,16-166.8,61.6-233.4,92.6
	v57.5c25-11.1,57.4-26.2,95.5-45.4C187.1,613.3,307.1,589.2,433.4,563.2z"/>
<path class="st0" d="M559.7,728.9c30.6-28.1-22.9-14.6,47.1-91.1s125.3-86.3,125.3-86.3s-7.6-31-18.9-25.7s-29.3,16-25.9-6.3
	s1.7-30.7-11.3-68.4s-11-43.2,8.4-36.2s32.6,0.9,92-24.6s8.3-31.5-18.3-49s-42.2-26.2-76.5-35.5s-54-36.8-76.3-79.4
	s-20.8-24.8-47.9-58.1s-17.7-37.8-19-60.2s28.5-17.9,47.8-10.9c18.4,6.7,31.9-14.8,44-6.8c0.4-3,0.1-6.1-0.7-9
	c-1.8-6.3-3.9-12.7-4.7-18.7C612.4,64.5,579,46.2,592,13.4c0,0,5.9,24,20.1,22.9c8.4-0.7,14,4,16.5,10.2c3.8-7.4,8.5-18,12.6-39
	c-5.3,7.5-18.6,22-33.7,2.9c-2.4-3-4-6.6-4.7-10.3H24.3c144.2,140.1,155.7,151.5,286.8,247.2c127.5,93,287,118.5,315.7,132.3
	s17.7,41.4,40.9,114c24.8,77.4,8.2,83.7-58.5,104.3c-24.2,7.5-90.7,23.3-162.1,34.8s-156,39.3-268.1,76.3
	C116.1,729.7,50.5,769.2,5.1,800h499.1c0.8-0.9,1.6-1.7,2.4-2.6C531.5,772,529.1,757,559.7,728.9z"/>
<path class="st0" d="M904.4,0c-1.5,7.3-5.2,15-13.6,18.6c-18.7,8-32.4-10.5-21.2-14.5c7.4-2.7,12.5,1.3,20.4-4h-16
	c-35.6,9.9-25.9,21-34.8,32.3c-5,6.4-12.2,2.4-15.1-5.7c-2,1.5-4.3,3.1-6.7,4.8l16.6,9.2c20.2,11.1,38.7-5,38.7-5
	c-10.3,17.9-38.6,29.2-61.1,21.1c-11.3-4.1-10.7-11-7.3-16.8l-4.4,2.7c-2.6,5.8-4.2,14,1.2,20.9c13,16.5,59.2-3.2,59.6-3.3
	c0,0-6.4,28.9-60.8,25c-34.2-2.4-22.3-22.8-9.5-36.9c-14,8.3-28,16.3-36.3,21.8l15.1,19.1c17.7,22.3,46.6,12.8,46.6,12.8
	c-20.3,15.5-58,15-79.8-5c-6.4-5.9-7.7-10.9-6.3-15c-6.1,0.9-13,0.9-23,1.7c-21.5,1.6-21.5,3.7-39.7,12.2
	c-14.1,6.6-3.6,18.3,11.9,28.8c0.9-1.9,2.1-3.7,3.5-5.3c14.7-16.2,42.4-19.1,58.4-9c0,0-21.9-5.1-33.5,12.4l-8.8,13.5
	c18.9,9.8,34.3,13.5,52.1,18.6l0.2,0.1c-8.4-7.3-28-27-0.5-29.6c34.9-3.3,39.4,15.1,39.4,15.1c-0.3-0.1-30.2-12-38.3-1.2
	c-4.3,5.8-1.2,12.7,1,16.1c0.9,0.2,1.8,0.5,2.6,0.6c-3.1-3.9-5.2-9.3,3.2-12.6c14.3-5.6,32.6,1.3,39.5,12.6c0,0-12.2-10.1-24.9-2.6
	l-3.7,2.2c0.4,0.1,0.8,0.3,1.2,0.6c0.3,0.2,0.6,0.5,0.8,0.9c1.7-0.8,3.7-0.4,5.3,1.6c6.2,7.5-0.7,15.1,26.3,21.1
	c0,0-20.4,11.2-31.7-0.9c-2.3-2.4-3.9-5.3-4.7-8.6l-2.5-0.8c0,0.8-0.1,1.6-0.2,2.4c-2,9.8,14.4,15.8,14.4,15.8
	c-21.1,5.8-31.5-12.7-32.3-23.1c-1.6-0.4-3.3-0.8-5-1.2c-2.3,4.8-2.8,11.2,4.6,17.2c10.3,8.5,29.6,18.9,29.6,18.9s-50.6-0.9-53.4-27
	c-0.7-6.3,0.5-10.5,2.5-13.3c-12.7-3.3-24.1-6.6-33.4-8.6c1,5.2-0.8,10.4-4.6,14c-10,10.1,4.7,30.1,4.7,30.1
	c-29.1-9.5-27.5-38.9-20.5-52.2c-7.5-6.2-15.2-15.8-27-25.2l-1-0.8c0.3,5.5-0.9,10.2-4.5,11.9c-9.4,4.4-18.4-9.8-27.8-5.4
	s-12.7,22.1,0.7,45.7s23.3,35.1,52.6,58.2s19.6,36.9,64.7,59.5s100.5,42.7,129.4,45.4s54.2-7,65.6,22.2s21.8,22,36.8,19.6
	s8-22.2-7-54.3s19.4-27.6,38.4-41s1.8-35.4,28.5-57.1s84.5,13.4,115,58.9s8.5,67.4-4.2,89.4c-6.4,10.6-6.7,23.9-0.8,34.8
	c1.3,1.7,2.4,3.5,3.4,5.4c-1.3-1.7-2.5-3.5-3.4-5.4c-4.4-5.9-13.7-15.5-30.3-22.5c-25.8-10.9-42.9,1.7-42.9,1.7s5-13.9,35-18.7
	s41.5-19.4,40.5-51.2s-35.7-61.5-65.3-70.7s-52.4,6.1-50.7,14.5s16.6,6,23.3,35.1s-35.5,37.3-56.2,47s-13.8,29.5-6.3,25.9
	s12.2,31.1,40,41.1s94.8,10.9,122.6,16.2c128.2,24.8-46,49.2-111.1,77.3s-98.5,59.9-187.9,90.2S640.5,704.9,565,774.7L537.7,800
	h107.1c13.8-5.7,27.3-12.2,40.4-19.4c29.3-16-17.1-21.9-14.9-36.8s53.8-27.5,108.8-62.4s68-71,77.8-50.2s-26.9,65.5-2.6,63.3
	s80.1-30.6,135-65.5s66.6-88.7,36.1-99.8c0,0,19.8-6.9,109.6,17.8s157.2,50.7,65.3,70.7s-145.4,33.6-299.4,112.5
	c-44.1,22.6-88,46.3-129.6,69.7H1280V0H904.4z M810.5,183.5c-12.1-18.1-15.8-10.9-23-13.3s1.3-14.5,13.4-9.7
	S810.5,183.5,810.5,183.5z"/>
<path class="st0" d="M600.2,465.9c27.3-3,24.1-28.2,24.1-28.2s-91.5-6-241.5-12.3c-118-5-307.5-91.8-382.8-128.6v39.9
	c40.3,26.6,103.7,64.9,151.6,76.5c71.1,17.4,184.5,30.8,286.1,29.3c0,0-203.7,16.3-277.5-6C112.4,422.3,43.1,392.6,0,373.4v43.5
	c45.2,12.4,127.7,32,229.2,41.7C385,473.5,572.9,469,600.2,465.9z"/>
<path class="st0" d="M743,564.9c0,0-64.1,25.4-104.2,62.6s-56.1,76.9-56.1,76.9S652.1,616.6,743,564.9z"/>
<path class="st0" d="M623.3,575c47.9-27.7,10.1-35.5-36.9-30.3c-27.2,3-254.4,47.7-375.2,92.6C137.5,664.7,54,706.4,0,734.8v34.1
	c60-27.4,162.8-72.6,258.1-106.7C404.2,609.9,599.8,588.6,623.3,575z"/>
<path class="st0" d="M653.4,4.3c-0.4,1.2-0.8,2.4-1.3,3.7c2,3.1,5.3,5.1,8.9,5.7c7.4,1.1,14.7-5.8,20.4-13.6h-10.8
	c-2.3,1.7-4.7,3.2-7.4,4.3C658.5,6.4,655.4,6,653.4,4.3z"/>
<path class="st0" d="M671.7,26.5c-15.8,12.9-21.8,5.1-23.8-5.8c-2.5,7.8-5,16.2-7,24.1l17.1,2c20.9,2.4,31-17.7,31-17.7
	c-2.5,18.7-22.5,38.1-44.3,39c-2.7,0.2-5.4-0.2-7.9-1.3c-0.1,1-0.1,2,0,2.9c0.9,15.4,12.8,16.2,22,8.7s17.3-8.1,28.4-4.8
	c7.4,2.2,19.4,0.9,32.6-2.8c-11.4-12.6-21-50.5,7.8-70.8h-34.7C690.1,7.4,684.1,16.4,671.7,26.5z"/>
<path class="st0" d="M641.9,3.7c0.2-1.1,0.4-2.3,0.6-3.5c-1.1,0.8-2.5,0.6-4-0.2h-11.1C632.4,3.4,638.9,3.7,641.9,3.7z"/>
<path class="st0" d="M606.7,409.9C640.2,407.1,624,396,624,396s-118-21.7-255.2-81.7C261.3,267.3,75.5,92.6,0,19v33
	c54.7,73,171.4,206.4,338.8,279.8c110.6,48.5,199.7,62.7,199.7,62.7s-211.9,11.3-376.4-93.7C80.9,249,30.4,211.4,0,186.6v60.6
	c57,37.7,185.1,116.3,296.8,141.3C445.6,421.9,573.2,412.6,606.7,409.9z"/>
<path class="st0" d="M380,361c0,0-126.2-53.2-227.5-124.1C85.8,190.4,29.2,131.3,10.2,111.4L0,100.8v33.7
	c49,45.8,136.9,126.1,181.7,155.6C284.2,357.7,380,361,380,361z"/>
<path class="st1" d="M1200.3,617.8c91.9-20,24.5-46-65.3-70.7s-109.6-17.8-109.6-17.8c30.5,11,18.8,64.8-36.2,99.8
	s-110.7,63.3-135,65.5s12.3-42.6,2.6-63.3s-22.8,15.3-77.8,50.2S672.5,729,670.2,743.9s44.2,20.7,14.9,36.8
	c-13.1,7.2-26.6,13.7-40.3,19.4h126.5c41.5-23.4,85.5-47.1,129.6-69.7C1054.9,651.3,1108.4,637.8,1200.3,617.8z"/>
<path class="st1" d="M840.2,590.7c89.4-30.3,122.8-62.1,187.9-90.2s239.2-52.5,111.1-77.3c-27.8-5.4-94.9-6.2-122.7-16.2
	s-32.4-44.7-40-41.1s-14.5-16.2,6.3-25.9s62.9-18,56.2-47s-21.7-26.6-23.3-35.1s21.1-23.7,50.7-14.5s64.3,39,65.3,70.7
	s-10.5,46.4-40.5,51.2s-35,18.7-35,18.7s17.1-12.6,42.9-1.7c16.7,7.1,25.9,16.6,30.3,22.5c-5.9-10.9-5.6-24.1,0.8-34.8
	c12.7-22,34.7-43.9,4.2-89.4s-88.3-80.6-115-58.9s-9.5,43.6-28.5,57.1s-53.4,8.9-38.4,41s22,51.8,7,54.3s-25.4,9.6-36.8-19.6
	S886,334.6,857.2,332s-84.3-22.7-129.4-45.3s-35.4-36.4-64.7-59.5s-39.1-34.6-52.6-58.3s-10.1-41.3-0.7-45.7s18.4,9.8,27.8,5.4
	c3.6-1.7,4.8-6.4,4.5-11.9c-17.4-13.9-15.7-16.8-15.7-16.8c2.1-2.7,3.4-5.9,3.8-9.3c-12.1-8-25.5,13.5-44,6.8
	c-19.4-7-49.1-11.5-47.8,10.9s-8.2,26.8,19,60.2s25.7,15.6,47.9,58.1s42,70.1,76.3,79.4s49.9,18,76.5,35.5s77.7,23.5,18.3,49
	s-72.6,31.7-92,24.6s-21.4-1.5-8.4,36.1s14.7,46.1,11.3,68.4s14.6,11.6,25.9,6.3s18.9,25.7,18.9,25.7s-55.3,9.8-125.3,86.3
	s-16.5,63-47.1,91.1s-28.2,43.1-53.1,68.5c-0.8,0.8-1.6,1.7-2.4,2.6h33.5l27.3-25.3C640.5,704.9,750.8,621,840.2,590.7z
	 M638.8,627.4c40.1-37.2,104.2-62.6,104.2-62.6c-90.9,51.7-160.3,139.4-160.3,139.4S598.7,664.6,638.8,627.4z"/>
<path class="st1" d="M1129.6,404.6c1,1.9,2.1,3.7,3.4,5.4C1132,408.1,1130.9,406.3,1129.6,404.6z"/>
<path class="st1" d="M447.1,632.6c71.4-11.6,137.8-27.4,162.1-34.8c66.7-20.6,83.3-26.9,58.5-104.3c-23.3-72.6-12.3-100.3-40.9-114
	s-188.2-39.3-315.7-132.3C179.9,151.5,168.5,140.1,24.3,0H0v19c75.5,73.6,261.3,248.3,368.8,295.3C506,374.4,624,396,624,396
	s16.2,11.1-17.3,13.9s-161.1,12-309.9-21.4C185.1,363.4,57,284.8,0,247.1v49.8c75.3,36.7,264.8,123.6,382.8,128.6
	c149.9,6.3,241.5,12.3,241.5,12.3s3.1,25.2-24.1,28.2s-215.2,7.6-371-7.3c-101.5-9.7-184-29.2-229.2-41.7v48.8
	c35.6,3.3,95.8,8.8,184.4,16c155.9,12.8,281.4,5.6,352.3,6.5s90.1-8.7,89.1,14.2s-66.1,34.8-192.4,60.7s-246.2,50.1-337.9,96.3
	C57.4,678.7,25,693.8,0,704.9v29.9c54-28.4,137.5-70.1,211.2-97.5c120.8-45,348-89.6,375.2-92.6c47-5.2,84.7,2.7,36.9,30.3
	c-23.5,13.6-219.1,35-365.2,87.2C162.8,696.2,60,741.5,0,768.9V800h5.1c45.5-30.8,111-70.3,173.9-91.1
	C291.1,671.9,375.7,644.2,447.1,632.6z"/>
<path class="st1" d="M594.4,503.2c0,0-221-3.1-370.8,36.5C136.1,562.9,53.5,588.3,0,605.5v41.9c66.7-31,170.2-76.7,233.4-92.6
	C332.5,529.7,469.1,506.3,594.4,503.2z"/>
<path class="st1" d="M538.5,394.5c0,0-89.1-14.2-199.7-62.7C171.4,258.4,54.7,125,0,52v48.8l10.2,10.6
	c19,19.8,75.6,78.9,142.3,125.5C253.8,307.8,380,361,380,361s-95.8-3.4-198.3-70.9C136.9,260.6,49,180.3,0,134.5v52.1
	c30.4,24.8,80.9,62.4,162.1,114.2C326.6,405.8,538.5,394.5,538.5,394.5z"/>
<path class="st1" d="M437.7,442.7c-101.6,1.5-215-11.9-286.1-29.3C103.7,401.7,40.3,363.4,0,336.8v36.6
	c43.1,19.2,112.4,48.9,160.2,63.3C233.9,459,437.7,442.7,437.7,442.7z"/>
<path class="st1" d="M13.5,507.1c-4.9,0-9.4-0.1-13.5-0.3v37c58.6-12.8,171.2-32.4,351-45.4C351,498.4,61.4,507.2,13.5,507.1z"/>
<path class="st1" d="M823.7,25.8c6.3-3.9,8.7-6.5,8.3-6.2c-2.5,2.6-5.1,4.9-8,7.1c2.9,8,10.1,12.1,15.1,5.7
	C848.1,21,838.4,9.9,874,0h-42.9c-0.4,0.4-0.7,0.7-1.1,1.1C822.5,9.6,821.6,19,823.7,25.8z"/>
<path class="st1" d="M869.6,4c-11.2,4.1,2.5,22.5,21.2,14.5C899.2,15,902.9,7.3,904.4,0H890C882.2,5.3,877,1.4,869.6,4z"/>
<path class="st1" d="M811.5,56.7c22.5,8.1,50.8-3.2,61.1-21.1c0,0-18.6,16.2-38.7,5l-16.6-9.2c-4,2.7-8.4,5.6-13,8.5
	C800.8,45.7,800.2,52.6,811.5,56.7z"/>
<path class="st1" d="M810.3,32.5c1.8-0.8,3.4-1.5,4.9-2.2l-1.5-0.8C812.5,30.5,811.4,31.5,810.3,32.5z"/>
<path class="st1" d="M795.5,34.3c12.1,1.8,26.7-6.9,23.3-22.1c-1-4.6,0.6-8.7,3.3-12.2h-21.3C789.8,14,788.5,33.3,795.5,34.3z"/>
<path class="st1" d="M729.6,81.9c-1.3,4.1,0,9.2,6.3,15c21.8,20,59.5,20.6,79.8,5c0,0-28.9,9.6-46.6-12.7l-15.2-19
	c-1.1,0.8-2.2,1.5-3,2.1C742.6,78.5,736.6,80.8,729.6,81.9z"/>
<path class="st1" d="M719.7,70.8c6.8-1.9,13.4-4.2,19.9-6.9l0.3-0.1c5.1-8.8,5.3-20.2-4.5-28.5C724.8,26.3,730.8,9.1,735,0h-7.5
	C698.8,20.3,708.3,58.2,719.7,70.8z"/>
<path class="st1" d="M644.6,68.1c21.8-0.9,41.8-20.3,44.3-39c0,0-10.1,20.1-31,17.7l-17.1-2c-2.2,8.6-3.8,16.5-4.1,22
	C639.2,68,641.9,68.4,644.6,68.1z"/>
<path class="st1" d="M626.5,50.2c0.6-1.2,1.3-2.5,2-3.8c-2.5-6.2-8-10.9-16.5-10.2C597.9,37.4,592,13.4,592,13.4
	c-13,32.8,20.4,51.2,32.9,49.5C624.3,58.3,624.6,54,626.5,50.2z"/>
<path class="st1" d="M698.4,136.3l8.8-13.5c11.6-17.6,33.5-12.4,33.5-12.4c-16-10.1-43.7-7.2-58.4,9c-1.5,1.5-2.7,3.3-3.5,5.3
	c4.5,3,9.3,6,14.1,8.7C694.8,134.4,696.6,135.3,698.4,136.3z"/>
<path class="st1" d="M670.2,142.7c-7,13.2-8.6,42.6,20.5,52.2c0,0-14.7-19.9-4.7-30.1c3.8-3.6,5.5-8.9,4.5-14.1
	c-2.5-0.5-4.9-1-7-1.3C678.6,148.6,674.4,146.2,670.2,142.7z"/>
<path class="st1" d="M804.3,34.9L804.3,34.9l0.2-0.1L804.3,34.9z"/>
<path class="st1" d="M799.9,85.3c54.5,3.9,60.8-25,60.8-25c-0.4,0.1-46.6,19.8-59.6,3.3c-5.5-6.9-3.8-15-1.2-20.9
	c-3.1,1.9-6.3,3.8-9.5,5.7C777.6,62.5,765.7,82.8,799.9,85.3z"/>
<path class="st1" d="M791.6,39.1l1.8-0.6c0,0-25.3-19.4-4.3-38.5h-32c-2.3,3.9-3.6,8.3-4,12.8C750.2,48.5,783.4,41.4,791.6,39.1z"/>
<path class="st1" d="M766.3,170.4c0.7,3.2,2.3,6.2,4.7,8.6c11.3,12.1,31.7,0.9,31.7,0.9c-27-6-20.1-13.6-26.3-21.1
	c-1.6-2-3.6-2.3-5.3-1.6c3,4,5.2,16.4,5.2,16.4S772.7,172.3,766.3,170.4z"/>
<path class="st1" d="M800.8,160.6c-12.1-4.8-20.6,7.2-13.4,9.7s10.9-4.8,23,13.3C810.5,183.5,813,165.4,800.8,160.6z"/>
<path class="st1" d="M769.1,155.7l3.7-2.2c12.8-7.4,24.9,2.6,24.9,2.6c-6.9-11.3-25.2-18.2-39.5-12.6c-8.3,3.3-6.3,8.6-3.2,12.6
	C767.2,158.9,767.5,155.4,769.1,155.7z"/>
<path class="st1" d="M777.9,187.8c0,0-16.3-6-14.4-15.8c0.2-0.8,0.2-1.6,0.2-2.4c-4.8-1.4-10.9-3.1-18.1-4.9
	C746.4,175.1,756.9,193.5,777.9,187.8z"/>
<path class="st1" d="M751.4,139.3c8.1-10.8,38,1.1,38.3,1.2c0,0-4.5-18.5-39.4-15.1c-27.5,2.6-7.9,22.3,0.5,29.6l1.7,0.5
	C750.2,152,747.1,145.1,751.4,139.3z"/>
<path class="st1" d="M724,159.3c-2.1,2.8-3.2,7.1-2.5,13.3c2.8,26.1,53.4,27,53.4,27s-19.3-10.4-29.6-18.9
	c-7.4-6.1-6.9-12.4-4.6-17.2l-1-0.2C734.2,161.9,729,160.6,724,159.3z"/>
<path class="st1" d="M663.3,4.3c2.6-1.1,5.1-2.6,7.4-4.3h-15.8c-0.5,1.3-1,2.7-1.5,4.3C655.4,6,658.5,6.4,663.3,4.3z"/>
<path class="st1" d="M642.5,0.2V0h-4C640,0.8,641.4,1,642.5,0.2z"/>
<path class="st1" d="M661,13.6c-3.6-0.6-6.9-2.6-8.9-5.6c-1.3,3.8-2.7,8.1-4.2,12.7c2,10.9,8,18.6,23.8,5.8
	C684.1,16.4,690.1,7.4,692.8,0h-11.4C675.7,7.8,668.4,14.8,661,13.6z"/>
<path class="st1" d="M641.2,7.4c0.2-1.2,0.5-2.5,0.7-3.8c-3,0-9.5-0.3-14.5-3.7h-24.6c0.7,3.8,2.3,7.3,4.7,10.4
	C622.6,29.4,635.9,15,641.2,7.4z"/>
<path class="st1" d="M641.9,3.7c-0.2,1.3-0.5,2.5-0.7,3.7c-4.1,21-8.8,31.5-12.6,39c-0.7,1.4-1.4,2.6-2,3.8c-2,3.7-2.2,8-1.6,12.7
	c0.8,5.9,2.9,12.4,4.7,18.7c0.8,2.9,1.1,6,0.7,9c-0.4,3.4-1.7,6.6-3.8,9.3c0,0-1.7,2.8,15.7,16.8l1,0.8c11.8,9.4,19.5,19,27,25.2
	c4.2,3.5,8.4,5.9,13.3,6.6c2.2,0.3,4.5,0.8,7,1.3c9.4,2,20.8,5.3,33.4,8.6c5,1.3,10.3,2.7,15.7,3.9l1,0.2c1.7,0.4,3.4,0.8,5,1.2
	c7.2,1.8,13.3,3.5,18.1,4.9l2.5,0.8c6.3,1.9,9.9,3.2,9.9,3.2s-2.2-12.4-5.2-16.4c-0.2-0.3-0.5-0.6-0.8-0.9c-0.3-0.3-0.7-0.5-1.2-0.6
	c-1.6-0.2-1.8,3.2-14,0.4c-0.8-0.2-1.7-0.4-2.6-0.6l-1.7-0.5l-0.2-0.1c-17.8-5.1-33.2-8.8-52.1-18.6c-1.8-0.9-3.6-1.9-5.5-3
	c-4.8-2.7-9.7-5.6-14.1-8.7c-15.5-10.6-26-22.2-11.9-28.8c18.2-8.5,18.3-10.7,39.7-12.2c10-0.7,16.9-0.7,23-1.7
	c7-1.1,13-3.4,21.3-9.6c0.9-0.7,1.9-1.4,3-2.1c8.3-5.6,22.2-13.5,36.3-21.8c3.2-1.9,6.4-3.8,9.5-5.7l4.4-2.7c4.6-2.9,9.1-5.7,13-8.5
	c2.4-1.6,4.6-3.3,6.7-4.8c2.9-2.1,5.5-4.5,8-7.1c0.3-0.4-2,2.3-8.3,6.2c-2.7,1.7-5.6,3.2-8.5,4.6c-1.5,0.7-3.2,1.5-4.9,2.2
	s-3.8,1.5-5.9,2.3h-0.1c-3.3,1.2-6.9,2.5-10.9,3.6l-1.8,0.6c-28,8.6-32,16.4-51.7,24.7l-0.3,0.1c-6.5,2.7-13.1,5-19.9,6.9
	c-13.2,3.7-25.2,5-32.6,2.8c-11-3.3-19.2-2.6-28.4,4.8s-21.2,6.7-22-8.7c-0.1-1-0.1-2,0-2.9c0.3-5.5,1.9-13.4,4.1-22
	c2-7.9,4.6-16.4,7-24.1c1.5-4.6,2.9-8.9,4.2-12.7c0.4-1.3,0.9-2.5,1.3-3.7c0.5-1.6,1-3,1.5-4.3h-12.3v0.2
	C642.3,1.4,642.1,2.6,641.9,3.7z"/>
</svg>
