<?xml version="1.0" encoding="utf-8"?>
<!-- Generator: Adobe Illustrator 20.1.0, SVG Export Plug-In . SVG Version: 6.00 Build 0)  -->
<svg version="1.1" id="Layer_1" xmlns="http://www.w3.org/2000/svg" xmlns:xlink="http://www.w3.org/1999/xlink" x="0px" y="0px"
	 viewBox="0 0 1280 800" style="enable-background:new 0 0 1280 800;" xml:space="preserve">
<style type="text/css">
	.st0{fill:none;}
	.st1{fill:#FFFFFF;}
</style>
<title>aquarius</title>
<path class="st0" d="M387.9,609.7c45.3-41.4,67.3-91.4,67.4-115.6c0-10.2-1.5-20.3-4.7-30c-3.7-1.7-10.5-5.6-20.4-15
	c-9,16.8-24.3,48.8-37.6,65.4c-19.1,23.8-61.9,24.8-89.5,64.5s-25.2,69.5-40.4,102.4c-14.5,31.5-48.9,76-70,97.2
	c-6.5,6.5-13.3,14.1-19.7,21.5h56.2c13.6-16.7,25-35.2,34-54.8c16.8-37.3,25.4-78.5,44-118.2s77-71.7,77-71.7s-53.4,48.2-67.5,71.1
	s-30.3,75.1-42.1,110.4c-6.8,19.8-19.7,43.8-34.6,63.2h31.7c3.7-18.8,7.2-36.6,12.2-55.3C292.1,714.5,342.6,651.1,387.9,609.7z"/>
<path class="st0" d="M1257.6,511.7c-27.6-1.3-61.8-37.3-63-45.3s8.3-17.7,8.3-17.7c15-13,41.8-28.3,77.1-15.2v-5.8
	c-42.2-8.2-64.7-1.9-83.1,2.4s-37.7,13-22.8,24s25.9,6.4,10.4,20.5s-35.2,20-41.8,15.1s4.8-16.9,3-38.7s-3-31.5-101.4-99
	c0,0,43.4,21.8,66.8,35.2c29.9,17.2,56.5,23.8,70.9,21.6s34.1-8.1,60.4-9.1c13-0.5,25.3-0.9,37.7,1V0H0v800h168.8
	c9.2-12.8,19.4-26.6,27.4-35.7c18.8-21.5,47-53,59.9-86.3s27.1-92.4,51.8-118.8s69.7-32.2,82.3-54.1c11.6-20.1,22.6-58,28.9-67.7
	l-0.8-0.9c-24-27.2-48.2-70.1-31.6-95.9s34.1-5.8,50.2,6.1s21.8,22,40.1,2.2s9.5-32.3,1.8-60.5s-1.1-48.5,15.7-68.1
	c0,0,23.7-4.2,30.2,4.6s27,20,39.6,13.6s25-3.8,36.2,5.8s15.1,25.5,8.8,48.3s-13.4,35.8-9.4,57s-7.4,45.4-7.4,45.4
	c-14.9-2.4-29.2-7.7-42.2-15.4c-20.7-12.7-36.7,10.8-51.5,27.3s6.5,17.8,12.4,32.7c4.7,11.7-3.9,17.4-4.4,20.7c0,0-6.2,9-21.2,10.6
	c-2,0.2-3.9,0.3-5.9,0.2c0.5,3.7,0.9,7.6,1.5,11.7c4.8,39.1-5.7,85.6-36.8,126.7s-46.5,35.6-73.8,63.9s-63.9,68.2-60.5,103.8
	c0.6,6.5,1.2,14.4,1.7,23.1h629.8c-11.4-20.9-22.9-40.1-34.1-57.3c-19.2-29.4-41.2-68.7-58-101.5s-33-72.9-32.1-105.4
	s13.7-35.9,13.7-35.9s-26.5-19.5-48.4-38.3s6.8-23.1,2.6-31.2s-30.7-27.7-30.7-27.7s-17.5,20.3-36.7,39.4s-28.4-3.1-28.4-3.1
	s22-29.8,33.7-49.2s-4.7-19,7.1-40.8c6.9-12.8,16.5,12.2,34.6,5.1s22.4-26.9,21.4-53.2s1.7-47.3,13.3-28.5s23.8,40.5,33.1,83.2
	s44.4,50.6,67.8,50s42.5,18.6,51.3,48.1s-2,54.7-30.7,69.3s-42.7,9.4-57.6-1.6s-19,39.6,0,97s55,91.6,73.1,94.8s14.3-12.4-8.9-29.5
	s-40.8-65.9-50.9-93.7s0.9-42.8,15.3-34.7s37.8-2.8,50.8-23.8s14.8,0.7,17.8,20.8s11.2,64.5,12.2,90.7s-1.2,60.4,12.8,65.7
	s28.2,31,28.2,31s-27.6-7.6-57.1,1.3s8.2,54.6,8.2,54.6s-3.4-12.7,10-30.9s37.8-2.8,56,10.7c6.5,4.8,11.4,13.3,14.8,24.5H1280V509.1
	C1272.7,511.1,1265.2,511.9,1257.6,511.7z M256.1,612.5c-8.2,14-14.4,29.1-18.2,44.8c-1.5,9.9-2.5,19.8-3,29.8c0,0-1.3-11.3,3-29.8
	c12.6-79.8,55.6-96,55.6-96S281.1,569.2,256.1,612.5z M595.5,455.4c-2.5,18.5-12.4,16.8-12.4,16.8s0.2-12.8-27-23.6
	S538.2,415,538.2,415c20.8-10.6,30.6-8.9,44.7-0.4S598,436.9,595.5,455.4z M777.2,220.1c-10.9-23.4-32.1-56.9-40.2-42.4
	s2.2,24.7,18.1,51.7s32.9,52.3,6.4,81.3s-41.9,4.9-58.1,33.8s5.9,19.7-9.8,61.7s-15.1,65.5-35.6,75.9s-47.2,8.6-55.5,2.5
	s12.2-16.5,11.7-29.7s5-44.8,1-81s15.3-34.6,12.7-62.2s-4.1-46.4-3.1-78.9s11-63.4,2.3-72.4s-23.5-9.7-20.9,7.6s2.3,24.6,8.1,34
	s8.4,26.6-7.6,27.6s-23.9-12.6-37-1.8s-35.8-3.4-42.8-11.2s3.8-32.9,21.9-40s34.3-25.8,18.3-24.8s-25,9.6-25,9.6
	c-24.5,22.8-31.7,43-31.7,43s-59.1-41-7-104.8s101.2-40.2,112.5-24.3s6.4,32.8,31.6,43.7s32.9,3.8,57-21.8s51.6-28.4,71.3-24
	s22.3,21.6,47,19.4s37.5,14.9,67.1,16.3s48.1-2.8,49.1,23.4s5.3,44.8-22.7,44.6s-40.2,6.1-52.9,9.5s-16.9-4.8-26.1-26.9
	s-30.7-38-27.7-17.9s11.4,36.5,24.6,46.2s9.1,11.8-11.6,40S788.1,243.4,777.2,220.1z M966,448.8c-5.5-16.8-11.9-49.6-39.1-54.4
	s-37.4,5.6-55.2-15.2s-44.3-88.8-44.3-88.8c-8.4-26.7-3.2-40.7,9-57.2s27.6-40.9,32.8-6.4s16.5,60.7,20,83.7s11,33.6,18.7,26.5
	s30.3-13.4,56.3,3.3s49.1,23.5,41.6,61.3s-19.6,64.7-19.6,64.7S971.5,465.6,966,448.8z M1105.3,495.4
	c-17.2,12.9-113.5-12.3-130-14.2c0,0,33.3-3.6,41.1-48.8s-8.4-75.1-8.4-75.1s17.6-10,51.9,12.7s69.4,41,73.3,66.8
	S1122.5,482.5,1105.3,495.4L1105.3,495.4z"/>
<path class="st0" d="M303.4,764.5c4.4-34,47.1-86.2,92.3-120.1c28-20.9,57.9-57.9,64.7-80.4c8.1-26.4,4.8-52.9,4.8-52.9
	S434.7,568,408,595.5s-59.7,59.4-88.1,97.4c-25.2,33.8-34.6,73.8-41,107.1h25.4C303.1,786.6,302.1,774.7,303.4,764.5z"/>
<path class="st1" d="M1031.5,775.5c-18.2-13.4-42.5-28.8-56-10.7s-10,30.9-10,30.9s-37.8-45.8-8.2-54.6s57.1-1.3,57.1-1.3
	s-14.2-25.8-28.2-31s-11.8-39.4-12.8-65.7s-9.2-70.6-12.2-90.7s-4.8-41.9-17.8-20.8s-36.3,31.9-50.8,23.8s-25.4,6.8-15.3,34.7
	s27.7,76.6,50.9,93.7s27,32.7,8.9,29.5s-54.1-37.4-73.1-94.8s-14.8-108,0-97s28.9,16.2,57.6,1.6s39.6-39.8,30.7-69.3
	s-27.9-48.7-51.3-48.1s-58.4-7.3-67.8-50s-21.5-64.4-33.1-83.2s-14.4,2.2-13.3,28.5s-3.3,46.1-21.4,53.2s-27.7-17.9-34.6-5.1
	c-11.7,21.8,4.7,21.3-7.1,40.8s-33.7,49.2-33.7,49.2s9.2,22.1,28.4,3.1s36.7-39.4,36.7-39.4s26.5,19.5,30.7,27.7
	s-24.6,12.5-2.6,31.2s48.5,38.2,48.5,38.2s-12.7,3.4-13.7,35.9s15.4,72.6,32.1,105.4s38.8,72,58,101.5
	c11.2,17.2,22.7,36.4,34.1,57.3h104.7C1043,788.8,1038,780.2,1031.5,775.5z"/>
<path class="st1" d="M1006,401.6c7.5-37.9-15.6-44.7-41.6-61.3S915.8,330,908,337s-15.2-3.6-18.7-26.6s-14.8-49.2-20-83.7
	s-20.6-10.1-32.8,6.4s-17.4,30.6-9,57.2c0,0,26.4,68,44.3,88.8s28,10.5,55.2,15.2s33.6,37.6,39.1,54.4s20.3,17.5,20.3,17.5
	S998.4,439.5,1006,401.6z"/>
<path class="st1" d="M1060,370c-34.3-22.7-51.9-12.7-51.9-12.7s16.3,29.9,8.4,75.1s-41.1,48.8-41.1,48.8c16.5,1.9,112.8,27,130,14.2
	s31.8-32.7,27.9-58.6S1094.2,392.7,1060,370z"/>
<path class="st1" d="M1242.3,399.8c-26.3,1-46,6.9-60.4,9.1s-41-4.5-70.9-21.6c-23.3-13.4-66.8-35.2-66.8-35.2
	c98.4,67.5,99.6,77.2,101.4,99s-9.6,33.8-3,38.7s26.3-1,41.8-15.1s4.4-9.5-10.4-20.5s4.4-19.8,22.8-24s40.9-10.6,83.1-2.4v-27
	C1267.6,398.9,1255.3,399.2,1242.3,399.8z"/>
<path class="st1" d="M1202.9,448.8c0,0-9.5,9.6-8.3,17.7s35.4,44,63,45.3c7.5,0.2,15.1-0.7,22.4-2.6v-75.6
	C1244.7,420.5,1217.9,435.8,1202.9,448.8z"/>
<path class="st1" d="M437.8,438.4c-0.9-1-3.6,3.4-7.5,10.6c9.9,9.4,16.7,13.4,20.4,15C446.1,449.8,439.5,440.4,437.8,438.4z"/>
<path class="st1" d="M420.6,435.4l52.7-14.8c0,0,2.5,18.3,6.5,50.3c2,0.1,3.9,0,5.9-0.2c15-1.7,21.2-10.6,21.2-10.6
	c0.6-3.3,9.1-9.1,4.4-20.7c-6-14.9-27.2-16.2-12.4-32.7s30.8-40,51.5-27.3c12.9,7.8,27.3,13,42.2,15.4c0,0,11.4-24.3,7.4-45.4
	s3.1-34.3,9.4-57s2.4-38.7-8.8-48.3s-23.6-12.2-36.2-5.8s-33-4.8-39.6-13.6s-30.2-4.6-30.2-4.6c-16.9,19.7-23.5,39.9-15.7,68.1
	s16.4,40.7-1.8,60.5s-23.9,9.8-40.1-2.2s-33.6-31.9-50.2-6.1s7.6,68.7,31.6,95.9l0.8,0.9C419.5,436.6,420,436,420.6,435.4z"/>
<path class="st1" d="M834.1,188c-13.2-9.8-21.6-26.1-24.6-46.2s18.5-4.3,27.7,17.9s13.4,30.3,26.1,26.9s25-9.7,52.9-9.5
	s23.7-18.3,22.7-44.6s-19.5-22-49.1-23.4s-42.5-18.6-67.1-16.3s-27.2-15-47-19.4s-47.3-1.7-71.3,24s-31.8,32.7-57,21.8
	S627,91.4,615.8,75.5s-60.3-39.4-112.4,24.3s7,104.8,7,104.8s7.2-20.2,31.7-43c0,0,9-8.7,25-9.6s-0.2,17.7-18.3,24.8
	s-28.9,32.3-21.9,40s29.8,22,42.8,11.2s21,2.7,37,1.8s13.4-18.2,7.6-27.6s-5.5-16.8-8.1-34s12.2-16.5,20.9-7.6s-1.3,39.9-2.3,72.4
	s0.4,51.4,3.1,78.9s-16.7,26-12.7,62.2s-1.5,67.8-1,81s-20,23.6-11.7,29.7s35,8,55.5-2.5s19.9-33.9,35.6-75.9s-6.4-32.8,9.8-61.7
	s31.6-4.8,58.1-33.8s9.4-54.3-6.4-81.3s-26.2-37.2-18.1-51.7s29.3,19.1,40.2,42.4s24.5,36,45.3,7.9S847.3,197.8,834.1,188z"/>
<path class="st1" d="M582.9,414.6c-14.1-8.5-23.9-10.2-44.7,0.4c0,0-9.3,22.7,17.8,33.5s27,23.6,27,23.6s9.9,1.7,12.4-16.8
	S597,423.2,582.9,414.6z"/>
<path class="st1" d="M370.7,673.2c27.3-28.3,42.7-22.8,73.8-63.9s41.5-87.5,36.8-126.7c-0.5-4.1-1-8-1.5-11.7
	c-4-32-6.5-50.3-6.5-50.3l-52.7,14.8c-0.6,0.6-1.1,1.2-1.6,1.9c-6.3,9.8-17.3,47.6-28.9,67.7c-12.6,21.9-57.6,27.8-82.3,54.1
	S269,644.7,256.1,678s-41.1,64.8-59.9,86.3c-8,9.1-18.2,22.9-27.4,35.7h4.2c6.4-7.4,13.3-15,19.7-21.5c21.1-21.2,55.5-65.7,70-97.2
	c15.2-32.9,12.8-62.7,40.4-102.4s70.4-40.7,89.5-64.5c13.3-16.6,28.6-48.7,37.6-65.4c3.9-7.2,6.6-11.6,7.5-10.6
	c1.8,2,8.4,11.4,12.9,25.7c3.1,9.7,4.7,19.8,4.7,30c-0.2,24.2-22.1,74.2-67.4,115.6s-95.8,104.9-103.9,135
	c-5.1,18.7-8.5,36.6-12.2,55.3h7.2c6.4-33.3,15.8-73.3,41-107.1c28.4-38,61.3-70,88.1-97.4s57.2-84.3,57.2-84.3s3.3,26.6-4.8,52.9
	c-6.9,22.5-36.8,59.5-64.7,80.4c-45.2,33.8-87.9,86.1-92.3,120.1c-1.3,10.1-0.3,22.1,0.9,35.5h7.6c-0.4-8.7-1-16.6-1.7-23.1
	C306.8,741.3,343.4,701.5,370.7,673.2z"/>
<path class="st1" d="M316.6,626.4c14.1-22.9,67.5-71.1,67.5-71.1s-58.5,32-77,71.7s-27.1,80.9-44,118.2c-9,19.6-20.4,38.1-34,54.8
	H240c14.8-19.4,27.8-43.4,34.4-63.2C286.3,701.4,302.6,649.2,316.6,626.4z"/>
<path class="st1" d="M234.9,687.1c0.5-10,1.5-19.9,3-29.8C233.5,675.8,234.9,687.1,234.9,687.1z"/>
<path class="st1" d="M237.9,657.3c3.9-15.8,10-30.9,18.2-44.8c25-43.3,37.4-51.2,37.4-51.2S250.5,577.6,237.9,657.3z"/>
</svg>
