<?xml version="1.0" encoding="utf-8"?>
<!-- Generator: Adobe Illustrator 20.1.0, SVG Export Plug-In . SVG Version: 6.00 Build 0)  -->
<svg version="1.1" id="Layer_1" xmlns="http://www.w3.org/2000/svg" xmlns:xlink="http://www.w3.org/1999/xlink" x="0px" y="0px"
	 viewBox="0 0 1280 800" style="enable-background:new 0 0 1280 800;" xml:space="preserve">
<style type="text/css">
	.st0{fill:none;}
	.st1{fill:#FFFFFF;}
</style>
<title>scorpio</title>
<path class="st0" d="M906,0c-10.9,10.3-23,19.4-35.9,27.2c-54.2,32.7-114,14.2-117.7,4.8c-2.1-5.3-8.9-14.3-6.4-32H0v800h1280V0H906
	z M767.4,274.5c-6.2-11.9,13.7-9.5,23.9-6.5s24.9-5.1,24.9-5.1s15-36.8,53.1-28.7c0,0-46.6,26.3-33.3,45.5s66.1-1.2,66.1-1.2
	s-20.6,34.6-42.3,35.5s-27.7,1-30.6,17.2s-0.1,20.3-12.5,22.9c-5,1-7.3,4.1-9,8.1c5-1.6,13,0.5,16.2,5.1
	c5.7,8.2,32.2,20.7,36.4,43.7c3.6,19.8-10.3,17.3-15.2,4.5s-24.2-31.9-21.3-27.8s-13.6,15.5-8.7,28.4s9.1,16,7.1,33.6
	s6.3,17.9,1.4,25.4s-21.8-5.1-29.3-36.4s3.7-26.9,12.3-34.9s5.7-18.1-1.5-31.4c-0.3-0.5-0.5-1-0.7-1.5c-1.8,4.6-4.6,8.6-8.3,11.8
	c-12.7,10.9-31.1,19.5-58-10.5s-31.5-57.2-23-71.2s19.8-3.6,32.2-6.2S773.6,286.5,767.4,274.5z M864.2,527.8
	c-6.7,10.8-13.4,1.2-28-17s-10.5-41.4,5-27.8C854.9,495,870.9,517.1,864.2,527.8L864.2,527.8z M811,576.9
	c-12.8-15.5-21-36.1-27.7-45.7s4.5-5.2,9.7-0.6c13.8,12.1,21.3,27.8,27,36S823.8,592.4,811,576.9z M761.1,481.7
	c-10.9-12.7-15.2-21.9-10.3-29.4s22.7,0.5,22.7,0.5c-0.8,11.7-0.1,23.5,2,35.1c3.6,19.8-10.1,29.3-14.8,22.5S772,494.5,761.1,481.7
	L761.1,481.7z M639.5,379.6c14,34.9,25.8,43,50.1,60.5s27.9,11,21.6,19.5s-24.2,14.8-47,8.3s-30-19.8-52.9-58.6s-10.2-49.7-2.1-61.4
	s27.7-27.3,27.7-27.3S625.5,344.7,639.5,379.6z M718.8,517.2c-9.5-13.7-11.6-28.4-1.1-33.7s19.7-9.6,19.7-9.6
	c1.5,6.9-0.2,14.1-4.7,19.5c-7.7,9.4,12.9,21.5,4.3,29.5s-28.3,17.6-28.3,17.6S728.3,530.9,718.8,517.2z M721.5,436.2
	c-29-18.4-47.8-33.8-61.3-64.9s-6.9-47.9,0.3-55s29.8-12.6,29.8-12.6l1.8,23.1c0,0-17.7,18.4,6.9,47.9s53.7,27.6,53.7,27.6
	s16.3,8.9,5.9,20.2S750.5,454.6,721.5,436.2L721.5,436.2z M710,100.3c3.4-33.2,10.2-50.9,20.8-59.2s17.2,9.1,17.2,9.1
	c8,16.6-4.5,8.6-14.8,40s-5.6,42.3-15.9,44.6l1.4,8.9c10.3,7.4,13.7,13.1,7.5,28.6s-8,22.3-5.1,30.3s-3.4,23.4-11.4,6.9
	s-4-22.9-8.6-43.4s16.2-31.2,16.2-31.2C706.9,137.2,706.6,133.5,710,100.3z M678.5,241.8c16.8,5.4,18,10.6,27.7,20.2
	c9.7,9.7,26.9-0.6,29.5,3.7s-6.9-21.1-16.6-30.8s-6.3-23.4,10.3-12c19.2,13.2,19.8,42.5,25,51.1s-3.2,27.1-12.4,15.2
	s-17.2-18.8-28-14.2s-11.4,16.6-36.9-3.1s-30.1-40.2-21.2-41.7S661.7,236.4,678.5,241.8z M628.5,203.9
	c-10.6-20.8-16.6-30.8-4.1-32.6s26.1,21.8,31.5,39.4C661.9,230.4,639.1,224.7,628.5,203.9L628.5,203.9z M612.6,116.2
	c9.1-7.4-1.2-14.9,2-32.3s28.8-3.8,29.7,7.4s-21.4,12.9-20,21.8s4.6,20.6-1.9,32.3c0,0-9.4,13.4-16.3,2S603.5,123.7,612.6,116.2z
	 M624.6,268.5c9.7,6.7,20.1,12.2,31.2,16.2c0,0,0,19.4-8.8,20.9s-15.4-6.3-22.6-21.4s-22-4.2-26.3-11.4S608,257.1,624.6,268.5
	L624.6,268.5z M602.1,305.4c6.8-1.9,14.1-0.6,19.7,3.6c0,0-7.7,6.6-16.8,14s-21.7-0.5-30.3-14.8s-25.4-0.2-25.4-0.2
	s16.8-14,27.7-18.6S590.4,308.5,602.1,305.4L602.1,305.4z M566.2,342.6c-3.9,4.9-8.7,9-14,12.3c-8.6,5.1-18-0.8-23.5-13.1
	s-31.7-4.2-31.7-4.2s4.8-4.9,20.8-10.6c16-5.8,12.3,4.3,24.6,8.5S556.4,332.9,566.2,342.6L566.2,342.6z M588.3,243.7
	c-6-10-21.5-26-30.4-44s8-12.6,13.1-4s16.4,21.8,21.8,39.4C594.8,241.7,594.3,253.7,588.3,243.7L588.3,243.7z M547.5,134
	c7.4-10.3-4-22.8,2.5-34.6s29.1-9.8,19.7-6s-7.4,20-4.5,28s2.6,14-3.4,23.4s1.3,14.8,8.3,30c6.3,13.7-15.1,7.2-24.6-8.5
	S540,144.3,547.5,134z M545.2,275.4l2.6,14c0,0-19.8-3.6-37.2-35.9s-13.5-28.8-6.9-30.9s10.6,1.4,18.9,21.7S536.5,261.2,545.2,275.4
	L545.2,275.4z M496.9,147c7.4-10.3,17.4-6.6,15.7,0.2s-4.8,14.6-2.2,28.6c2.6,14,0,19.4-11.7,22.6s-11.5-12.6-6.9-21.1
	C491.8,177.3,489.5,157.3,496.9,147z M468.6,271c5.7,16,8.5,12.3,21.8,29.7c9.2,12,2,26-16,5.7s-23.8-36.2-21.2-41.7
	S462.8,255.1,468.6,271z M440.4,179c6.6-11.7,20.3-8.3,16.9-4.3s-3.1,17.4,0,29.1s-4.2,12.3-0.8,27.7c0,0-16.8,14-14.3-1.1
	s4.8-14.6,1.1-24S433.9,190.8,440.4,179L440.4,179z M240.4,535c3.9-14.9,14.2-5.8,22.8,6.5c0,0-8.8,22.3-15.4,18.8
	S236.5,549.9,240.4,535z M251.9,630.4c-3.4-7.8-7.7-17-7.1-33.6s1.4-21.3,10.7-19.6s14.4,16.1,13.6,37.2
	C268.5,631.1,255.3,638.3,251.9,630.4L251.9,630.4z M308.1,717.2c-7.8,3.4-13.1-7.1-29.2-30.4s-11.9-20.1-9.8-31.7
	s11.4-9.9,20.5,6.1s19,27.4,24.8,41.6C314.3,702.8,315.9,713.8,308.1,717.2L308.1,717.2z M299.9,530.2
	c-14.4-6.2-16.9-12.6-16.9-12.6c-4.7,3.1-9.6,5.8-14.6,8.1c-9.2,4.3-12.7-9.5-5.5-22.5s16.5-5.4,16.5-5.4l11.2-15.9
	c11.2-15.9,33.8,4.9,33.8,4.9s-27.2,4.7-21.4,18.9c5.8,14.2,26.9,3.7,26.9,3.7S314.4,536.4,299.9,530.2L299.9,530.2z M375.8,753.4
	c-12.5-3.5-17.7-8-32.6-11.9s-11-18.7,0-26.3s16.2,2.9,30.3,11.5s12.6,1.6,21.9,11.1C402.4,745,388.3,756.8,375.8,753.4L375.8,753.4
	z M464.8,717.9c-13.7,9.5-26.8,22.7-36,27s-26.9-3.6-20.1-14.4s12.6-16.8,13.4-27.5s6.8-31.1,11.1-21.9c4.2,8.8,2.2,20.8,15.2,21.9
	S478.5,708.5,464.8,717.9L464.8,717.9z M485.6,669c-13.6,15.5-16.5,31.7-28.7,20s-12.8-15.5-18-26s6.4-28.8,1.6-35.6
	c-11.6-16.6-3.8-31.8,14.8-22.5s27.2,21.7,34.7,26.6S499.1,653.5,485.6,669z M515.9,560.7c-21.1,10.6-28.9,34.3-27.5,39.3
	s-7.6-11-21-9.8s-24.4,2.8-25.2-12.9s15.5-33.1,12.8-57.5s7.3-53.8,14.9-42.8c0,0,15.2,21.9,22,37.5c6.8,15.6,14.9,3.9,27.9,11
	S536.9,550.2,515.9,560.7L515.9,560.7z M566.2,533.9c-24.5-3.2-33.8-4.9-55.3-38.7s-23.2-77.2,18.4-102c0,0-24.9,25.4,4.9,65.5
	s45.4,53.7,79.6,56.3C613.9,515,590.7,537.2,566.2,533.9L566.2,533.9z M626.6,504.1c-26.9-3.6-35.8-13.6-57.3-47.4s-23-65.2-16.2-76
	s30.1-20.9,30.1-20.9s-11,27.9,15.6,66.3s41.3,56.5,52.9,58.6l27.8,5C679.5,489.7,653.5,507.8,626.6,504.1L626.6,504.1z
	 M669.5,545.3c-9-10-10.6-21.1-2.4-26.8c5.2-3.5,10.9-6.1,17-7.7c4.9,12.9-2.1,11.6-3.2,24.6s9.5,13.7-2.3,25.9S660.4,576,660.4,576
	S678.4,555.4,669.5,545.3L669.5,545.3z M708.8,645.8c-6,0.1-18.2-11.7-29.3-36.4s4.6-25.5,11.8-12.2c10.4,19.3,5.9,20.2,18.2,32
	S714.8,645.7,708.8,645.8L708.8,645.8z M725,549.4l11.7,8.1c9.5,13.7,4,17.5,19.1,33.4s16.6,20.9,12.1,26.1s-3,10.2-25.3-18.9
	S725,549.4,725,549.4z M781.8,692.5c-13.4,1.2-16.8-6.6-23.8-13.9s-7.5-4.9-22.3-8.8s4.8-13.5,4.8-13.5c12.7,9.5,16.2,2.9,25.6,10.6
	s21.5,13.5,26.6,12S795.2,691.3,781.8,692.5L781.8,692.5z M834.2,654.1c-12.4,2.5-29.7-7.8-29.7-7.8c-9.7,0.7-24.1-5.5-16.5-14.9
	s13.7-9.5,25.4-1.4s20,8.4,27,9.7S846.6,651.5,834.2,654.1L834.2,654.1z M899.3,625.1c-13.4,1.2-20.1-14.4-32.6-11.9
	s-19.8,3.6-30.3-11.4s-7.6-37.3,2.3-25.9c11,12.6,12.9,21.5,24,19.9s16.6,0.6,22.8,6.5s20.2,14.4,27.4,7.3S912.7,624,899.3,625.1
	L899.3,625.1z M939.9,572.5c-17.2-4.3-19.7-16.7-30.3-11.4s-23.5,4.1-31.1-6.8s8.5-14,8.5-14c13.4-1.2,22.8,6.5,30.3,11.5
	s18.2-14.7,28-9.3S957.1,576.9,939.9,572.5L939.9,572.5z M1026.5,484c-11.9,6.2-30.9,5.2-62.5-5.3s-34.9-12.3-28.6-20.7
	c0,0-18.2,14.7-35.1,2.1s-24.2-11.6-36.1-25.7s4.8-13.5,11-7.6s13.1,7.1,29.7,7.8s20.5,6.1,23,18.5l7.5,4.9
	c6.3-8.4,14.3,0.2,47.2,3.7s30.8-11.2,42.6,2.9C1025.2,464.7,1038.4,477.8,1026.5,484L1026.5,484z M1137.8,483.8
	c-75,17.6-87.1-8.5-94.1-15.8s0.5-69.3,52.5-105.5s95.9-34.2,95.9-34.2s-67.6,42.9-36.3,82s93.7-8.2,93.7-8.2
	S1212.8,466.2,1137.8,483.8L1137.8,483.8z"/>
<path class="st1" d="M1155.9,410.5c-31.2-39.2,36.3-82,36.3-82s-43.9-1.9-95.9,34.2s-59.6,98.2-52.5,105.5s19.1,33.4,94.1,15.8
	s111.7-81.6,111.7-81.6S1187.1,449.6,1155.9,410.5z"/>
<path class="st1" d="M982.6,461.8c-32.9-3.5-40.9-12.2-47.2-3.7s-3.1,10.2,28.6,20.7s50.6,11.5,62.5,5.3c11.9-6.2-1.3-19.4-1.3-19.4
	C1013.3,450.6,1015.5,465.3,982.6,461.8z"/>
<path class="st1" d="M904.9,434.6c-16.7-0.6-23.6-1.9-29.7-7.8s-22.8-6.5-11,7.6s19.2,13,36.1,25.7s35.1-2.1,35.1-2.1l-7.5-4.9
	C925.4,440.7,921.6,435.2,904.9,434.6z"/>
<path class="st1" d="M804.8,372.3c7.2,13.3,10.2,23.4,1.5,31.4s-19.8,3.6-12.3,34.9s24.4,43.9,29.3,36.4s-3.4-7.8-1.4-25.4
	s-2.2-20.8-7.1-33.6s11.6-24.3,8.7-28.4s16.5,14.9,21.3,27.8s18.8,15.3,15.2-4.4c-4.2-23-30.7-35.5-36.4-43.7
	c-3.2-4.7-11.3-6.7-16.2-5.1c-1.1,2.6-2,5.6-3.3,8.6C804.3,371.3,804.6,371.8,804.8,372.3z"/>
<path class="st1" d="M841.1,483c-15.5-13.6-19.7,9.6-5,27.8s21.3,27.8,28,17S854.9,495,841.1,483z"/>
<path class="st1" d="M945.3,542.5c-9.8-5.4-20.5,14.2-28,9.3s-16.9-12.6-30.3-11.4c0,0-16.1,3.1-8.5,14s20.6,12.1,31.1,6.8
	s13.1,7.2,30.3,11.4S955.1,547.8,945.3,542.5z"/>
<path class="st1" d="M760.8,510.4c4.8,6.8,18.4-2.7,14.8-22.5c-2.2-11.6-2.9-23.3-2-35.1c0,0-17.7-8-22.7-0.5s-0.6,16.6,10.3,29.4
	S756,503.5,760.8,510.4z"/>
<path class="st1" d="M793,530.6c-5.2-4.5-16.3-8.9-9.7,0.6s14.9,30.2,27.7,45.7s14.8-2.1,9-10.3S806.9,542.7,793,530.6z"/>
<path class="st1" d="M912.9,609.6c-7.3,7.1-21.3-1.4-27.4-7.3s-11.7-8.1-22.8-6.5s-12.9-7.3-24-19.9c-9.9-11.4-12.7,10.9-2.3,25.9
	s17.8,14,30.3,11.4s19.2,13,32.6,11.9S920.1,602.5,912.9,609.6z"/>
<path class="st1" d="M732.7,493.4c4.5-5.4,6.3-12.6,4.7-19.5c0,0-9.2,4.3-19.7,9.6s-8.4,20,1.1,33.7c9.5,13.7-10.2,23.3-10.2,23.3
	s19.7-9.6,28.3-17.6S725,502.7,732.7,493.4z"/>
<path class="st1" d="M767.9,617c4.5-5.2,3-10.2-12-26.1s-9.6-19.7-19.1-33.4l-11.7-8.1c0,0-4.7,19.5,17.6,48.7
	S763.3,622.2,767.9,617z"/>
<path class="st1" d="M840.4,639.7c-7-1.3-15.3-1.6-27-9.7s-17.7-8-25.4,1.4s6.8,15.6,16.5,14.9c0,0,17.3,10.3,29.7,7.8
	S847.4,640.9,840.4,639.7z"/>
<path class="st1" d="M678.5,561.4c11.8-12.2,1.1-13,2.3-25.9s8.1-11.7,3.2-24.5c-6.1,1.6-11.8,4.2-17,7.7
	c-8.2,5.7-6.6,16.8,2.4,26.8s-9.1,30.7-9.1,30.7S666.8,573.6,678.5,561.4z"/>
<path class="st1" d="M709.4,629.2c-12.2-11.8-7.7-12.7-18.2-32c-7.2-13.3-22.9-12.5-11.8,12.2s23.3,36.6,29.4,36.4
	S721.7,641,709.4,629.2z"/>
<path class="st1" d="M792.6,678.9c-5,1.5-17.2-4.3-26.6-12s-13-1.1-25.6-10.6c0,0-19.7,9.6-4.8,13.5s15.3,1.5,22.3,8.8
	s10.5,15,23.8,13.9S797.7,677.4,792.6,678.9z"/>
<path class="st1" d="M752.4,32c3.7,9.4,63.5,27.9,117.7-4.8C883,19.5,895.1,10.3,906,0H746C743.5,17.6,750.3,26.7,752.4,32z"/>
<path class="st1" d="M733.1,90.3c10.2-31.5,22.8-23.5,14.8-40c0,0-6.6-17.4-17.2-9.1s-17.4,26-20.8,59.2s-3.1,36.9,7.2,34.6
	S722.9,121.7,733.1,90.3z"/>
<path class="st1" d="M701,166c4.6,20.6,0.6,26.9,8.6,43.4s14.3,1.1,11.4-6.9s-1.2-14.8,5.1-30.3s2.8-21.1-7.5-28.6l-1.4-8.9
	C717.3,134.8,696.3,145.5,701,166z"/>
<path class="st1" d="M677.2,271.8c25.5,19.7,26,7.7,36.9,3.1s18.8,2.2,28,14.2s17.4-6.6,12.2-15.2s-5.7-37.9-25-51.1
	c-16.6-11.4-20,2.3-10.3,12s19.2,35.1,16.6,30.8s-19.7,6-29.5-3.7s-10.9-14.8-27.7-20.2s-13.8-13.1-22.6-11.7
	S651.7,252.1,677.2,271.8z"/>
<path class="st1" d="M624.4,171.3c-12.6,1.7-6.5,11.7,4.1,32.6s33.5,26.5,27.4,6.8C650.5,193.2,637,169.6,624.4,171.3z"/>
<path class="st1" d="M622.3,145.3c6.5-11.7,3.4-23.4,1.9-32.3s20.8-10.6,20-21.8s-26.6-24.8-29.7-7.4s7.2,24.8-2,32.3
	s-13.4,19.7-6.5,31.2S622.3,145.3,622.3,145.3z"/>
<path class="st1" d="M624.3,284.2c7.2,15.1,13.8,22.8,22.6,21.4s8.8-20.9,8.8-20.9c-11-4.1-21.5-9.5-31.2-16.2
	c-16.6-11.4-30.9-2.8-26.6,4.3S617.1,269.1,624.3,284.2z"/>
<path class="st1" d="M557.9,199.7c8.9,18,24.4,34,30.4,44s6.6-2,4.6-8.6c-5.4-17.6-16.6-30.8-21.8-39.4S549,181.8,557.9,199.7z"/>
<path class="st1" d="M570.1,174.9c-7-15.2-14.3-20.5-8.3-30s6.2-15.4,3.4-23.4s-4.9-24.3,4.5-28s-13.2-5.7-19.7,6s4.9,24.3-2.5,34.6
	s-11.4,16.6-2,32.3S576.4,188.6,570.1,174.9z"/>
<path class="st1" d="M576.9,289.4C566,294,549.2,308,549.2,308s16.8-14,25.4,0.2s21.2,22.2,30.3,14.8s16.8-14,16.8-14
	c-5.6-4.2-12.9-5.6-19.7-3.7C590.4,308.5,587.8,284.8,576.9,289.4z"/>
<path class="st1" d="M503.6,222.7c-6.6,2-10.6-1.4,6.9,30.9s37.2,35.9,37.2,35.9l-2.6-14c-8.6-14.3-14.3-10.8-22.6-31.1
	S510.2,220.7,503.6,222.7z"/>
<path class="st1" d="M498.7,198.4c11.7-3.2,14.3-8.6,11.7-22.6s0.5-21.7,2.2-28.6s-8.3-10.6-15.7-0.2s-5.1,30.3-5.1,30.3
	C487.3,185.9,487,201.6,498.7,198.4z"/>
<path class="st1" d="M542.4,335.5c-12.3-4.3-8.6-14.3-24.6-8.5S497,337.6,497,337.6s26.3-8,31.7,4.2s14.9,18.2,23.5,13.1
	c5.3-3.3,10.1-7.4,14-12.3C556.4,332.9,554.7,339.8,542.4,335.5z"/>
<path class="st1" d="M453.1,264.8c-2.6,5.4,3.2,21.4,21.2,41.7s25.1,6.2,16-5.7C477,283.3,474.3,287,468.6,271
	S455.7,259.3,453.1,264.8z"/>
<path class="st1" d="M442.2,230.5c-2.5,15.1,14.3,1.1,14.3,1.1c-3.4-15.4,4-16,0.8-27.7s-3.5-25.1,0-29.1s-10.3-7.4-16.9,4.3
	s-0.8,18,2.9,27.4S444.8,215.4,442.2,230.5z"/>
<path class="st1" d="M747,294.8c-12.4,2.5-23.7-7.9-32.2,6.2s-3.8,41.2,23.1,71.2s45.2,21.3,58,10.5c3.7-3.2,6.5-7.3,8.3-11.8
	c1.3-3.1,2.2-6,3.3-8.6c1.8-4,4-7.1,9-8.1c12.4-2.5,9.6-6.6,12.5-22.9s8.9-16.4,30.6-17.2s42.3-35.5,42.3-35.5s-52.8,20.4-66.1,1.2
	s33.3-45.5,33.3-45.5c-38-8.1-53.1,28.7-53.1,28.7s-14.6,8.1-24.9,5.1s-30.1-5.4-23.9,6.5S759.4,292.3,747,294.8z"/>
<path class="st1" d="M758.6,422.6c10.4-11.3-5.9-20.2-5.9-20.2s-29.1,1.9-53.7-27.6s-6.9-47.9-6.9-47.9l-1.8-23.1
	c0,0-22.5,5.5-29.8,12.6s-13.9,23.8-0.3,55s32.3,46.5,61.3,64.9S748.2,433.9,758.6,422.6z"/>
<path class="st1" d="M609.3,347.8c-8.1,11.7-20.8,22.6,2.1,61.4s30.1,52.1,52.9,58.6s40.7,0.1,47-8.3s2.8-1.9-21.6-19.5
	s-36.1-25.7-50.1-60.5s-2.5-59.1-2.5-59.1S617.4,336.1,609.3,347.8z"/>
<path class="st1" d="M651.7,484.7c-11.6-2.1-26.3-20.3-52.9-58.6s-15.6-66.3-15.6-66.3s-23.4,10.2-30.1,20.9s-5.2,42.1,16.2,76
	s30.4,43.8,57.3,47.4s52.9-14.4,52.9-14.4L651.7,484.7z"/>
<path class="st1" d="M534.3,458.8c-29.9-40.1-4.9-65.5-4.9-65.5c-41.6,24.8-39.8,68.2-18.4,102c21.5,33.8,30.7,35.5,55.3,38.7
	s47.7-18.9,47.7-18.9C579.6,512.4,564.1,498.9,534.3,458.8z"/>
<path class="st1" d="M519.8,525.6c-13.1-7.1-21.2,4.6-27.9-11s-22-37.5-22-37.5c-7.6-11-17.7,18.4-14.9,42.8s-13.5,41.8-12.8,57.5
	s11.8,14.1,25.2,12.9s22.5,14.8,21,9.8s6.4-28.8,27.5-39.3S532.9,532.7,519.8,525.6z"/>
<path class="st1" d="M489.9,631.5c-7.5-4.9-16-17.3-34.7-26.6s-26.4,5.8-14.8,22.5c4.8,6.8-6.9,25.1-1.6,35.6s5.8,14.2,18,26
	s15.2-4.5,28.7-20S497.4,636.5,489.9,631.5z"/>
<path class="st1" d="M448.3,703c-13-1.1-11-13.1-15.2-21.9c-4.3-9.2-10.4,11.3-11.1,21.9s-6.6,16.8-13.3,27.5s11,18.7,20.1,14.4
	s22.3-17.5,36-27S461.3,704.2,448.3,703z"/>
<path class="st1" d="M373.4,726.6c-14-8.5-19.3-19-30.3-11.5s-14.8,22.5,0,26.3s20,8.4,32.6,11.9s26.6-8.4,19.6-15.6
	C386.1,728.2,387.4,735.1,373.4,726.6z"/>
<path class="st1" d="M289.5,661.2c-9.1-16-18.4-17.7-20.5-6.1s-6.3,8.5,9.8,31.7s21.4,33.8,29.2,30.4s6.2-14.4,6.2-14.4
	C308.5,688.6,298.5,677.2,289.5,661.2z"/>
<path class="st1" d="M255.5,577.3c-9.3-1.7-10.1,3-10.7,19.6s3.7,25.8,7.1,33.6s16.6,0.6,17.2-16
	C269.9,593.4,264.8,578.9,255.5,577.3z"/>
<path class="st1" d="M263.2,541.5c-8.6-12.3-18.9-21.4-22.8-6.5s0.9,21.7,7.4,25.3S263.2,541.5,263.2,541.5z"/>
<path class="st1" d="M303.1,505.6c-5.8-14.2,21.4-18.9,21.4-18.9s-22.6-20.8-33.8-4.9l-11.2,15.9c0,0-9.4-7.7-16.5,5.4
	s-3.7,26.9,5.5,22.5c5.1-2.3,9.9-5.1,14.6-8.1c0,0,2.4,6.4,16.9,12.6s30.1-20.9,30.1-20.9S309,519.9,303.1,505.6z"/>
</svg>
