<?xml version="1.0" encoding="utf-8"?>
<!-- Generator: Adobe Illustrator 20.1.0, SVG Export Plug-In . SVG Version: 6.00 Build 0)  -->
<svg version="1.1" id="Layer_1" xmlns="http://www.w3.org/2000/svg" xmlns:xlink="http://www.w3.org/1999/xlink" x="0px" y="0px"
	 viewBox="0 0 1280 800" style="enable-background:new 0 0 1280 800;" xml:space="preserve">
<style type="text/css">
	.st0{fill:#FFFFFF;}
</style>
<title>aquarius</title>
<g id="aquarius_2_">
	<path class="st0" d="M583.2,224.2c-9,16.7,3.6,16.4-5.4,31.3c-9,14.9-25.9,37.8-25.9,37.8s7.1,17,21.8,2.4
		c14.7-14.6,28.2-30.2,28.2-30.2s20.3,15,23.5,21.3c3.2,6.3-18.9,9.6-2,24c16.8,14.4,37.2,29.4,37.2,29.4s-9.8,2.6-10.5,27.5
		c-0.8,24.9,11.8,55.8,24.6,80.9c12.8,25.1,29.8,55.3,44.5,77.9c14.7,22.6,30.1,49.6,44.8,80.1c14.8,30.5,28.9,56.6,37.5,76.7
		c8.7,20.1,12.8,17.2,7.3,48.5c-5.4,31.3-11.3,44.6-13.1,55c-1.8,10.4,2.1,21.1,19.6,2.7c17.5-18.5,21.2-31.4,34.7-47
		c13.4-15.6,34.6-47,21.7-42.8c-12.9,4.2-28.1,0.9-36.7-11.4c-8.6-12.2-15-16.9-8.3-55.2c6.6-38.2,1.6-71.3-12.3-81.6
		c-14-10.3-32.7-22.2-43-8.2c-10.3,14-7.7,23.7-7.7,23.7s-29-35.1-6.3-41.9c22.7-6.8,43.9-1,43.9-1s-10.9-19.8-21.6-23.8
		c-10.8-4-9.1-30.2-9.9-50.4c-0.8-20.2-7.1-54.2-9.4-69.7c-2.3-15.4-3.7-32.2-13.7-16c-10,16.2-27.9,24.5-39,18.3
		c-11.1-6.2-19.5,5.2-11.8,26.6c7.7,21.4,21.3,58.8,39.1,72c17.8,13.1,20.7,25.1,6.8,22.7c-13.9-2.4-41.6-28.7-56.1-72.8
		c-14.6-44.1-11.4-82.9,0-74.5c11.4,8.4,22.2,12.4,44.2,1.2c22-11.2,30.4-30.5,23.6-53.2c-6.8-22.7-21.4-37.4-39.4-36.9
		c-18,0.5-44.9-5.6-52.1-38.4c-7.2-32.8-16.5-49.4-25.4-63.9c-9-14.4-11,1.7-10.3,21.9c0.8,20.2-2.6,35.4-16.4,40.8
		C595.9,233.6,588.4,214.4,583.2,224.2z"/>
	<path class="st0" d="M657.6,179.1c-6.5-20.5-2.5-31.2,6.9-43.9c9.4-12.7,21.2-31.4,25.2-4.9c4,26.5,12.7,46.6,15.3,64.3
		c2.7,17.7,8.4,25.8,14.4,20.4c6-5.4,23.3-10.3,43.3,2.5c20,12.8,37.7,18,31.9,47.1c-5.8,29.1-15.1,49.7-15.1,49.7
		s-11.4-0.5-15.6-13.5c-4.2-12.9-9.1-38.1-30-41.7c-20.9-3.6-28.7,4.3-42.4-11.7C677.9,231.4,657.6,179.1,657.6,179.1z"/>
	<path class="st0" d="M771.1,325.6c0,0,25.5-2.7,31.6-37.5c6-34.8-6.5-57.7-6.5-57.7s13.5-7.7,39.8,9.8
		c26.3,17.5,53.3,31.5,56.3,51.3c3,19.9-8.2,35.1-21.4,45C857.7,346.4,783.7,327.1,771.1,325.6z"/>
	<path class="st0" d="M824.1,226.5c0,0,33.3,16.7,51.3,27c22.9,13.2,43.4,18.3,54.4,16.6c11-1.7,26.1-6.2,46.3-7
		c20.2-0.8,38.2-1.2,59.4,12.5c21.3,13.7,40.9,24.3,58.9,23.8c18-0.5,33.6-24.2,48.7-28.8c15.1-4.5,41-5.1,24.5,20
		c-16.5,25.1-23.5,16-35.4,34.7c-11.8,18.7-24.5,17.2-49.2,2.9c-24.7-14.3-45.1-37.2-77.7-43.6c-32.6-6.4-49.9-1.5-64,1.8
		c-14.2,3.3-29,10-17.5,18.4c11.4,8.4,19.9,4.9,8,15.7c-11.9,10.8-27,15.4-32.1,11.6c-5.1-3.7,3.7-13,2.3-29.7
		C900.5,285.8,899.6,278.3,824.1,226.5z"/>
	<path class="st0" d="M945.8,300.7c12.6-10.8,35.8-23.8,66.6-8.5c30.7,15.4,51.4,23.3,37.6,33.2c-13.7,10-41,24.6-62.2,23.6
		c-21.2-1-47.4-28.6-48.4-34.8C938.5,308.1,945.8,300.7,945.8,300.7z"/>
	<path class="st0" d="M411.4,309.4c0.4-2.5,7-7,3.4-15.9c-4.6-11.4-20.9-12.4-9.6-25.1c11.4-12.7,23.6-30.7,39.5-21
		s32.4,11.8,32.4,11.8s8.7-18.6,5.7-34.9c-3-16.3,2.4-26.3,7.2-43.8c4.9-17.5,1.9-29.7-6.7-37.1c-8.6-7.3-18.1-9.4-27.8-4.5
		c-9.6,4.9-25.4-3.7-30.4-10.4c-5.1-6.7-23.2-3.5-23.2-3.5c-13,15.1-18,30.6-12.1,52.3c5.9,21.7,12.6,31.2-1.4,46.5
		c-14,15.3-18.3,7.5-30.8-1.7c-12.4-9.2-25.8-24.5-38.6-4.7c-12.8,19.8,5.9,52.7,24.3,73.6c18.4,20.9,27.5,22.1,27.5,22.1
		s12.7,5.4,24.2,4.2C406.7,316.2,411.4,309.4,411.4,309.4z"/>
	<path class="st0" d="M438.4,80.2c-18.8,17.5-24.4,33-24.4,33s-45.4-31.5-5.4-80.4c40-48.9,77.7-30.9,86.3-18.7
		c8.6,12.2,4.9,25.2,24.3,33.6c19.3,8.4,25.3,2.9,43.7-16.8c18.5-19.7,39.6-21.8,54.8-18.4c15.2,3.4,17.2,16.6,36.1,14.9
		c18.9-1.7,28.8,11.5,51.5,12.5c22.7,1.1,36.9-2.2,37.7,18c0.8,20.2,4.1,34.4-17.4,34.2c-21.5-0.1-30.9,4.7-40.6,7.3
		c-9.8,2.6-13-3.7-20.1-20.7c-7.1-17-23.6-29.2-21.2-13.7c2.3,15.4,8.7,28,18.9,35.5c10.2,7.5,7,9.1-8.9,30.7
		c-15.9,21.6-26.4,11.9-34.8-6c-8.4-17.9-24.6-43.7-30.9-32.6c-6.2,11.1,1.7,18.9,13.9,39.7c12.2,20.7,25.2,40.2,4.9,62.4
		c-20.3,22.3-32.2,3.7-44.6,25.9c-12.4,22.2,4.5,15.1-7.5,47.4c-12.1,32.3-11.6,50.3-27.3,58.3c-15.7,8-36.2,6.6-42.6,1.9
		c-6.3-4.7,9.4-12.7,9-22.8c-0.4-10.1,3.8-34.4,0.8-62.2c-3.1-27.7,11.8-26.6,9.7-47.7c-2.1-21.1-3.1-35.6-2.4-60.6
		c0.8-24.9,8.5-48.7,1.8-55.6c-6.7-6.9-18.1-7.4-16.1,5.8c2,13.2,1.7,18.9,6.2,26.1c4.5,7.2,6.5,20.5-5.8,21.2
		c-12.3,0.7-18.4-9.6-28.4-1.4c-10,8.3-27.5-2.6-32.9-8.6c-5.4-5.9,3-25.3,16.8-30.7c13.9-5.5,26.4-19.8,14-19
		C445.3,73.5,438.4,80.2,438.4,80.2z"/>
	<path class="st0" d="M435.5,274.8c16-8.1,23.5-6.8,34.3-0.3c10.8,6.5,11.6,17.1,9.6,31.3c-1.9,14.2-9.5,12.9-9.5,12.9
		s0.2-9.8-20.7-18.1C428.3,292.2,435.5,274.8,435.5,274.8z"/>
	<path class="st0" d="M385.7,279.1c0,0,2.4,17.5,6.1,47.6c3.7,30.1-4.4,65.7-28.2,97.2c-23.9,31.5-35.6,27.3-56.6,49.1
		c-21,21.8-49.1,52.3-46.5,79.7c2.3,24.3,4.8,73.2-12,103.6c-19.2,34.8-49.6,65.7-78.9,69.9c-29.4,4.2-62.3,17.6-62.3,17.6
		s19.4-18.5,46-21.1c34.7-3.4,62.4-20.5,88.9-65.9c26.6-45.4,9.7-87.5,13.1-113.6c3.4-26.1,36.1-66.2,70.9-92.2
		c21.5-16.1,44.4-44.5,49.7-61.7c6.2-20.2,3.7-40.6,3.7-40.6s-23.4,43.6-43.9,64.7c-20.5,21.1-45.9,45.6-67.6,74.8
		c-28.5,38.2-30.7,86.7-37.9,114.1s-23.3,50.6-46.7,68.7c-23.4,18.1-54.2,24.3-54.2,24.3s19.2-9.3,41.1-22.5
		c21.9-13.2,49-49.4,54.9-74.8c5.8-25.4,8.9-46.8,15.2-70c6.2-23.2,45-71.9,79.8-103.7c34.8-31.8,51.7-70.2,51.8-88.7
		c0.2-23.4-11.3-40.3-13.5-42.8c-2.2-2.5-20,40.1-34.7,58.4c-14.7,18.3-47.6,19-68.7,49.5s-19.3,53.3-31,78.6
		c-11.2,24.2-37.6,58.4-53.8,74.6c-16.2,16.2-35.9,41.8-35.9,41.8s24.2-36.2,38.6-52.8c14.4-16.5,36.1-40.7,46-66.3
		c9.9-25.5,20.8-71,39.7-91.2c19-20.2,53.5-24.7,63.2-41.5c9.7-16.8,18.8-49.8,23.4-53.5"/>
	<path class="st0" d="M317.1,382.5c0,0-44.9,24.5-59.1,55.1c-14.2,30.5-20.8,62.1-33.8,90.7c-12.9,28.6-35,56.5-53.6,67.2
		c-18.6,10.7-43.8,35-43.8,35s31.6-25.4,52.1-34.9c20.5-9.5,45-46.8,54.1-73.9c9.1-27.1,21.6-67.2,32.4-84.8
		C276.2,419.5,317.1,382.5,317.1,382.5z"/>
	<path class="st0" d="M202.6,483.7c0,0-2.8-24.1,16.3-57.3c19.2-33.2,28.7-39.3,28.7-39.3S206.7,402.6,202.6,483.7z"/>
</g>
</svg>
