<?xml version="1.0" encoding="utf-8"?>
<!-- Generator: Adobe Illustrator 20.1.0, SVG Export Plug-In . SVG Version: 6.00 Build 0)  -->
<svg version="1.1" id="Layer_1" xmlns="http://www.w3.org/2000/svg" xmlns:xlink="http://www.w3.org/1999/xlink" x="0px" y="0px"
	 viewBox="0 0 1280 800" style="enable-background:new 0 0 1280 800;" xml:space="preserve">
<style type="text/css">
	.st0{fill:none;}
	.st1{fill:#FFFFFF;}
</style>
<title>capricorn</title>
<path class="st0" d="M888.7,0c9.7,5,19,9.4,27.8,13.3c62,27.5,110.6,66.3,127.2,120.3s-1.2,88.1-1.2,88.1s19.7,16.1,25,30.4
	s18.2,25.4,18.2,25.4s-8.4,4.4-28.1-11.7s-33-17-33-17s-26,33.5-49.4,58.4s-33.8,22.5-57.2,47.5s-24.2,38.2-43.4,57.4
	s-41.9-9.5-41.9-9.5c14.4-17.5,10.2-31,15.2-57s-17.4-65-28.6-97.5s8.2-56.9,36.6-81.6s40.4,18.8,40.4,18.8s12.5-10.1,11.5-23
	s-17.7-9.3-14.3-33.1s19.3-12.2,19.3-12.2s8.4,14.8,12.3,26.3s5.5-10,17.3-11.8s5.4-17-18.7-41.5c-18.7-19-55.4-39.5-130.2-90H0v800
	h1280V0H888.7z M820,328.8c26.7-10.3,1.9,69.4-21.2,89.3c-10.4,9-19.7,19.1-27.8,30.2c-4.4,8.9-8,11.9-8,11.9
	c2.5-4.1,5.1-8.1,8-11.9c3.4-7.1,6-14.4,7.9-22c6.9-26.4-6.5-34.3,5.7-53.5S820,328.8,820,328.8z M255.7,15.1
	c56.9,27.4,71.4,67.5,71.4,67.5s19.5-36.5,70.4-46.6C469,21.9,497,76.8,497,76.8c-69.9-45.5-89.3-2-116.1,13.4S342.4,160,342.4,160
	l-90.4-2.8c21.8-34.8,15.2-57-9.2-102.6s-74.5-36.7-74.5-36.7S198.8-12.3,255.7,15.1z M807.1,610.8c-21.4,24.6-41.2,59.1-61.1,86.5
	s-39.7,23.5-39.7,23.5s-10.2,18.8-34.8,28.8s-48.3,1.6-48.3,1.6l59-74l25.5,20.2c0,0,10.5-16.8,23.6-42.2s35.9-54.3,35.9-54.3
	l-5.3-14.3c-5.3-14.3,13.1-13.2-8-25s-51-9.1-79.2-8.7s-70.5-11-70.5-11l12,43.6c12,43.6,14,81.7,9.3,109.7s-28.5,36.9-50.8,17.2
	s-54-41-89.6-61.6s-42-35.8-42-35.8s-3.5-21.7-13.6-41.3c-6.1-11.6-7.5-25.1-4-37.8c0,0,15.6,2.6,44.5,13.2s-4.3,49.2-4.3,49.2
	s111,94.6,124.3,76.3c6-8.3-3.2-38.9-22.2-82.4s-34-80.6-37.6-116.4s14.1-57.8-2.1-64.4s-22.7,28.9-24,40.2s-3,25.7-3,25.7
	l-99.7-74.1c38.1-110.1-45.3-170.7-85.2-192.7s-94-12.4-134.9,41.6s-5.7,161.6,72.7,152.2s40.1-72.1,40.1-72.1
	c-1.5,86.1-137.3,13.7-85.2-65.3c59.3-89.7,140.8-11.2,168.4,61.2s-62.8,177.8-154.4,147.8s-135-112-97.7-201.8
	s110.3-101.4,189.7-97.8s132.2,17.4,213.9-8.7S631.8,105,671.9,83.4s117.3-12.5,150.8,1.3s48.6,19.6,49.4,37.6s-10.7,21.9-10.7,21.9
	s-37.5,37.3-55.5,64.4s-9.8,40-9.2,63.1s-24.2,45.3-48.2,78.4s-30.9,47.3-30.9,47.3l8.4-23.6c8.4-23.6-7.7-42.2,4.9-102.9
	s98.8-97.5,80.7-115.9s-42.1,14.8-78,69s-26.9,85.1-23,122.9s2.3,59.3-17.4,113S626.9,501,626.9,501c12.9-6.3,24.6-15.1,34.3-25.7
	c16.4-17.8,27.7-54.9,22.6-124.9s-68.5-61.9-68.5-61.9s32.2,37.3,46.7,96.7s-15.2,76.2-38.5,89s-17.1,45.2-17.1,45.2
	s38.1,17.2,69.2,3.2s36.4-38.1,36.4-38.1c2.1,6.8,39.3,37.2,63.2,47.6s37.4,6.2,53.5,24.9S828.5,586.2,807.1,610.8z"/>
<path class="st0" d="M983.6,137.1c4.7,29.6,24.4,26.4,29.4,19.6s-7.8-49.3-46.5-82.6c-30.4-26.2-60.9-40.5-113-74.1h-32.7
	c28.9,16.6,57.4,31.7,87.5,51C969,89.8,978.9,107.5,983.6,137.1z"/>
<path class="st0" d="M907.8,258.3c4.2,13.5,23.4,32.7,14.8,42.1c0,0,27.2-13.4,19.2-38.4S903.7,244.8,907.8,258.3z"/>
<path class="st1" d="M942.3,131.5c-11.8,1.9-13.5,23.4-17.3,11.8S912.7,117,912.7,117s-16-11.6-19.3,12.1s13.3,20.1,14.3,33.1
	s-11.5,23-11.5,23s-12-43.6-40.4-18.8s-47.8,49-36.6,81.6s33.6,71.5,28.6,97.5s-0.8,39.6-15.2,57c0,0,22.8,28.7,41.9,9.5
	s20.1-32.5,43.4-57.4s33.8-22.5,57.2-47.5s49.4-58.4,49.4-58.4s13.3,0.9,33,17s28.1,11.7,28.1,11.7s-12.9-11.1-18.2-25.4
	s-25-30.4-25-30.4s17.8-34.2,1.2-88.1S978.5,40.8,916.5,13.3c-8.7-3.9-18-8.3-27.8-13.3h-35.2c52.2,33.5,82.6,47.8,113,74.1
	c38.6,33.3,51.4,75.7,46.5,82.6s-24.7,10-29.4-19.6S969,89.8,908.3,51c-30.1-19.2-58.5-34.3-87.5-51h-27.5
	c74.8,50.5,111.5,71,130.3,90C947.7,114.5,954.1,129.6,942.3,131.5z M922.6,300.4c8.6-9.5-10.6-28.6-14.8-42.1s25.9-21.3,33.9,3.7
	S922.6,300.4,922.6,300.4z"/>
<path class="st1" d="M771,448.2c-2.9,3.8-5.5,7.8-8,11.9C763,460.1,766.6,457.1,771,448.2z"/>
<path class="st1" d="M778.8,426.3c-1.9,7.6-4.5,14.9-7.9,22c8.1-11.1,17.4-21.2,27.8-30.2c23.1-19.8,47.9-99.6,21.2-89.3
	c0,0-23.3,24.9-35.5,44S785.8,399.9,778.8,426.3z"/>
<path class="st1" d="M775.4,532c-23.9-10.3-61.1-40.8-63.2-47.6c0,0-5.3,24.1-36.4,38.1s-69.2-3.2-69.2-3.2s-6.2-32.4,17.1-45.2
	s52.9-29.6,38.5-89s-46.7-96.7-46.7-96.7s63.4-8,68.5,61.9s-6.3,107.1-22.6,124.9c-9.8,10.6-21.4,19.3-34.4,25.7
	c0,0,46.5,12.8,66.3-40.9s21.4-75.2,17.5-112.9s-12.9-68.7,23-122.9s59.9-87.3,78-69s-68.1,55.2-80.7,115.9s3.5,79.3-4.9,102.9
	l-8.4,23.6c0,0,6.8-14.2,30.9-47.3s48.8-55.3,48.2-78.4s-8.8-36,9.2-63.1s55.5-64.4,55.5-64.4s11.5-3.9,10.7-21.9
	s-15.9-23.8-49.4-37.6s-110.8-22.9-150.8-1.4s-61.5,58.3-143.3,84.4s-134.5,12.2-213.9,8.7s-152.4,8-189.7,97.8s6,171.9,97.7,201.8
	s182.1-75.4,154.5-147.8S268,177.4,208.8,267.1c-52.1,79,83.7,151.5,85.2,65.3c0,0,38.2,62.7-40.1,72.1s-113.6-98.2-72.7-152.2
	s95-63.6,134.9-41.6s123.3,82.5,85.2,192.7l99.7,74.1c0,0,1.8-14.4,3-25.7s7.8-46.7,24-40.2s-1.5,28.5,2.1,64.4
	s18.6,72.9,37.7,116.3s28.2,74.1,22.2,82.4c-13.2,18.3-124.3-76.3-124.3-76.3s33.3-38.7,4.3-49.2S425.3,536,425.3,536
	c-3.5,12.6-2.1,26.1,4,37.8c10.2,19.6,13.6,41.3,13.6,41.3s6.4,15.1,42,35.8s67.3,41.9,89.6,61.6s46.2,10.9,50.8-17.2
	s2.7-66.1-9.3-109.7l-12-43.6c0,0,42.2,11.5,70.5,11.1s58.1-3.2,79.2,8.7s2.7,10.7,8,25l5.3,14.3c0,0-22.7,28.9-35.9,54.2
	s-23.6,42.2-23.6,42.2l-25.5-20.2l-59,74c0,0,23.6,8.4,48.3-1.6s34.8-28.8,34.8-28.8s19.8,3.9,39.7-23.5s39.7-61.9,61.1-86.5
	s37.8-35.3,21.8-54S799.3,542.3,775.4,532z"/>
<path class="st1" d="M242.8,54.5c24.4,45.6,31,67.8,9.2,102.6l90.4,2.8c0,0,11.6-54.4,38.5-69.8S427.1,31.3,497,76.8
	c0,0-28-55-99.5-40.8c-51,10.1-70.4,46.5-70.4,46.5s-14.5-40.2-71.4-67.5s-87.5,2.8-87.5,2.8S218.4,8.9,242.8,54.5z"/>
</svg>
