<?xml version="1.0" encoding="utf-8"?>
<!-- Generator: Adobe Illustrator 20.1.0, SVG Export Plug-In . SVG Version: 6.00 Build 0)  -->
<svg version="1.1" id="Layer_1" xmlns="http://www.w3.org/2000/svg" xmlns:xlink="http://www.w3.org/1999/xlink" x="0px" y="0px"
	 viewBox="0 0 1280 800" style="enable-background:new 0 0 1280 800;" xml:space="preserve">
<style type="text/css">
	.st0{opacity:0.5;}
	.st1{fill:#FFFFFF;}
</style>
<title>cropped-zodiac-illustrations</title>
<g id="leo_2_" class="st0">
	<path class="st1" d="M360.2,16.6c0,0,43.7,11,55.7,25.9c12.1,14.8,0.8,28.7,8.7,40c7.8,11.3,27.8,37.4,18.3,56.6
		c-9.4,19.2-28.5,30.7-98.7,64.6c-70.2,34-128.6,52.9-172.4,114.7c-43.7,61.8-17.8,93.9-1,102.1c16.8,8.2,11.3-7.9,5.3-13.8
		c-6-5.9-31.1-43.9,5.3-86.6c52.7-61.9,102.9-78.3,181.9-110c83.4-33.4,160.5-96.7,126.1-156.8C455-6.8,388.9,21.7,360.2,16.6z"/>
	<path class="st1" d="M207.1,435.6c0,0-16-4.5-16.7-13.2c-0.7-8.7,18.6-4.1,18.6-4.1s13.6-48,58.7-79c45-30.9,105.7-19.4,105.7-19.4
		s0.1,20-18.4,30.8c-18.6,10.8-35.6,48.8-22.1,72.1c13.5,23.2,24.2,28.4,24.2,28.4s-17.1,28.1-8.4,34c8.7,5.9,12.7,11.2,12.7,11.2
		s-28.7-12.4-57.4-21.6c-28.7-9.1-60.6,1.8-59.5,57c0,0-22.8-27.8-29-55.7C209.2,448.3,207.1,435.6,207.1,435.6z"/>
	<path class="st1" d="M473.2,599.5c50.1,26.3,81.5,43.3,92.8,33.9s-3.6-29.9-31.6-40.4c-28-10.5-78.8-35.4-112.6-101.7
		c-33.8-66.3-42-93.6-28-98.3c13.9-4.8,13.6,39.8,33.1,67.7c19.5,27.8,29.4,21.1,29.4,21.1s-13.8,21.4,33,54.3
		c46.8,32.9,73.6,56.1,82.8,27.4c9.1-28.7,21.5-57.4,14.8-74c-6.8-16.6,30.6-8.2,27.7,51.7c-2.9,59.9-38.9,52.2-38.9,52.2
		s68.9,42.1,99.4,33.9c30.6-8.2,63.7-31.7,50-74.9c-13.6-43.2-39.1-62.3-39.2-78.9c-0.1-16.7,25.8-25.5,44,15
		c18.3,40.5,29,59,16.6,91.1c0,0,33.3-3.6,28.9-55.5c-4.4-51.9-15.2-73.8-15.2-73.8l15.9-15.4c0,0-3.4-13.3-20.1-13.2
		c-16.6,0.1-38-10.4-33.5-26.4c4.5-16,27.3-1.5,44.7,7c17.4,8.5,45.4,22.3,71.8-7.8c26.4-30.2,19.5-70,19.5-70s-1.1,29.3-28.9,48.8
		c-27.8,19.5-54.5,9.7-68.6-8.8c-14.1-18.5,7.8-26,22.4-35.4c14.6-9.4,27.1-24.8,11.7-37.4c-15.4-12.5-23.5-26.5-40-9.7
		c-16.5,16.8-22.4,28.8-32.4,25.5c-10-3.3-45.4-22.3-29.5-24.4c16-2.1,24.7,10.5,29.3-5.5c4.5-16,18.3-44.1,20.9-52.7
		c2.6-8.7-14.1-21.9-38.8-19c-24.6,2.8-44.5,9.6-55.7,32.4c-11.2,22.7-15.6,48.7-24.3,52.8c-8.6,4.1-32-2.4-39.9,10.3
		c-7.9,12.7,0.2,23.3-5.7,45.3c-5.8,22-22.8,63.4-56.6,94.9c-33.7,31.5-76.4,23.8-94-11.3c-17.6-35.2-23.1-67.7-21.9-80.4
		c1.2-12.7-7.3-1.9-22.6,5.5c-15.3,7.4-45.7,35.6-36.8,61.5C356.3,442.5,381,463,381,463s-23.2,13.5-12.4,35.4
		C380.4,522.2,432.5,578.1,473.2,599.5z"/>
	<path class="st1" d="M564.5,305.7c0,0,8.3,29.6-18.9,76.8s-60.5,63-89.2,44.9c-28.7-18.1-28.5-57-28.5-57s20.8,42.5,51.5,34.7
		c30.7-7.8,56.9-39.3,65.9-63.1C554.4,318.2,564.5,305.7,564.5,305.7z"/>
	<path class="st1" d="M452.8,300.6c0,0,12.3,54.4,40.1,30.5c27.9-23.9,32.1-32.6,54-71.6c21.8-39,46.1-44.6,61.3-31.7
		c15.2,12.8,18.6,38.7,2,50.7c-16.6,12-36.7,3.5-38.7,15.9c-2.1,12.4-2.1,12.4-2.1,12.4s-13.6-18.8,1.9-28.6
		c15.6-9.8,29.6-5.6,30.6-21.3c1-15.7-25.6-27.3-38.8,2.4c-13.3,29.8-31.5,50.4-49.5,89.9C495.5,388.8,429.8,399.5,452.8,300.6z"/>
	<path class="st1" d="M525.1,230c0,0-7.5,15.2-25.6,38.5c-18.2,23.3-25.7,22.3-25.7,22.3s10.5,30.7,24.9,12.2
		c14.4-18.5,17.5-38.4,36.8-63.9c19.2-25.5,43.5-33.8,61.7-46.3c18.3-12.5,30.2,1.4,27.6,9.5c-2.6,8.1-17.3-5.8-17.3-5.8
		s24.7,53.8,41.7,16.4c17-37.3-16.1-57.6-43-49.3c-26.9,8.3-54.1,52.7-65.5,48.5c-11.4-4.2-19.5-12.3-31.4-10
		c-11.9,2.2-3.1,25.4-12.7,39.5c-9.6,14.1-23.2-2-23.2-2s-7.9,24.3,6.1,25.8C493.6,266.9,511.8,248.9,525.1,230z"/>
	<path class="st1" d="M740.6,253.8c0,0,15.7,6.4,23.6-12.6c8-18.9,13.8-36.2,29-18c15.2,18.2,27.1,18.7,26.2,39.7
		c-0.9,21-1.4,24.8-12.3,19.5c-10.8-5.3-13.6-16.1-11-24.2c2.6-8.1-4.5-23.7-13.5-8c-9.1,15.7-18.2,20.6-28.5,16.9
		C743.9,263.4,740.6,253.8,740.6,253.8z"/>
	<path class="st1" d="M779.5,346.8c0,0,8.8,25.8,20,5.8c11.2-20,10.1-26,10.1-26s-10.7,8.2-0.6-12.4c10.1-20.6,15.4-31.4,15.4-31.4
		s6,4.3-0.9,23.8c-6.9,19.5,12.4,4.7,7.2,26.4c-5.2,21.6-21.2,54.1-42.9,43.5C770.5,367.9,779.5,346.8,779.5,346.8z"/>
	<path class="st1" d="M772.7,451c0,0,8.8,23.1,33.8,43.5c25,20.3,41.1,14.8,32.6,37.5c-8.5,22.7-12.7,28.7-31.5,50.4
		c-18.7,21.7-23.7,9.9-13.1-14.5c10.6-24.3,13.7-44.3,2.2-64.8C785.4,482.7,772.7,451,772.7,451z"/>
	<path class="st1" d="M790.4,436.8c0.6,4.3,8.2,18.8,33.7,35.4c25.5,16.5,64.5,35.7,64.5,35.7s-31.8,1.8-57.8-16.3
		C804.7,473.4,790.4,436.8,790.4,436.8z"/>
	<path class="st1" d="M791.4,421.2c12.4,2.1,26.4-9.9,38.3,1.3c11.9,11.2,0.7,20.5,24,33.3c23.3,12.8,52.6,29.8,52.6,29.8
		s-49.2-12.1-67.1-27.6c-17.9-15.5-17.4-22-30.4-28.4C795.7,423.3,791.4,421.2,791.4,421.2z"/>
	<path class="st1" d="M845.8,406.2c0,0-13.4,16.3-0.4,20c13,3.7,36.8,12.7,51.4,21.2c14.6,8.5,21.1,11.7,21.1,11.7
		s-19.6-20.4-32-27.8C873.4,423.8,855.4,397.5,845.8,406.2z"/>
	<path class="st1" d="M884.2,347.1c-20.9,5.8-16.6,22.8-12.7,36.8c3.9,14-9.6,16.8,6.7,24.8c16.2,8,43.9,25.6,52.9,9.9
		c9.1-15.7,19.2-25.5,16.4-39c-2.8-13.5-3.9-19.4-12.1-27.4C927.4,344.1,898.2,343.3,884.2,347.1z"/>
	<path class="st1" d="M994.8,349c-8.4,20.2,6.7,24.8,2.4,33.4c-4.3,8.7-12.8,15.2-29.1,7.2c-16.3-8-31-35.4-18.6-41.4
		c12.4-6,25.3-2.3,36-15.9c10.7-13.6,17.6-30.3,27.3-28.2c9.7,2.1,19,18.7,10.5,30.7C1014.8,346.7,1002.2,331.2,994.8,349z"/>
	<path class="st1" d="M1007.9,360.8c-8.3,14.8-5.2,24.3,6.1,28.5c11.4,4.2,19.9-7.7,26.4-4.5c6.5,3.2,10.2-4.4,17.7-16.9
		c7.5-12.5,0.3-28.1-15.3-29C1027.1,338,1018.5,341.8,1007.9,360.8z"/>
	<path class="st1" d="M1050.1,302.2c5.6,4.6-11.4-12.3-17.2,5c-5.8,17.3-0.4,17.3,12,22c12.4,4.8,21.1,0.9,25.8-14.2
		c4.7-15.1-6.2-33.9,3.5-34.6c9.7-0.6,22.1-3.9,21.5-10.9c-0.6-7-25.6-30-35.7-12.2C1049.9,275.2,1037.6,292.1,1050.1,302.2z"/>
	<path class="st1" d="M332.8,493c22.8,15.9,44,36.4,63,57.8c19,21.4,10.5,33.4-2.4,35.1c-12.9,1.7-28.7-12.7-31.5-23.5
		c-2.8-10.8-8.9-28.5-24.1-44.1C322.6,502.8,319.8,483.9,332.8,493z"/>
	<path class="st1" d="M267,501.1c-11.1,17.6,2,50.7,23.3,86.7c21.3,36,39.9,66.6,61.5,69.2c21.6,2.5,24.3-0.2,27.3-22.9
		c3.1-22.7-13.9-51.2-31.8-69.4c-17.9-18.2-33.2-39.1-36.5-54.2C307.5,495.4,279.3,481.5,267,501.1z"/>
	<path class="st1" d="M383.6,660.4c5.8-25.4,14.9-24.9,22.6-7.7c7.7,17.2,24,30.6,37.4,27.8c13.5-2.8,36.6-8.9,28-2.4
		c-8.6,6.5-26.4,9.9-16.6,20.1c9.8,10.2,9.3,24.7-2.9,41.6c-12.3,16.8-27.5,1.3-29.2-11.7c-1.7-12.9-9.3-19.4-33.7-30
		c-24.4-10.6-41.9-15-39.6-23.5C355,655.8,377.9,685.8,383.6,660.4z"/>
	<path class="st1" d="M547,647.9c0,0,13.1,19.9,27,5.2c13.9-14.7,22.4-37.4,56.5-16.6c34.1,20.8,51.4,23.9,54.8,39
		c3.4,15.1-4,41-15.9,40.6c-11.9-0.5-30.8-11.1-54.1-18.5C592.1,690.2,559.1,675.4,547,647.9z"/>
	<path class="st1" d="M690.4,706.2c-1.5,22.1-1.9,31.3,8.4,37.7c10.3,6.4,17.3,3.1,12.5,18.2c-4.7,15.1,7.7,19.9,21.2,25.2
		c13.5,5.3,22.6-5,24.7-12c2.1-7-9.8-15.6-21.2-19.8c-11.4-4.2-24.3-5.2-19-21.4c5.3-16.2,9.6-14.1,19.7-32
		c10.1-17.9,6.2-29.2-7.3-31.8c-13.5-2.6-14.6-3.1-20.9,15.3C702.3,704,690.4,706.2,690.4,706.2z"/>
	<path class="st1" d="M740.1,717.2c-9.1,15.7,9.9,26.4,18,29c8.1,2.6,13.5-5.5,17.2-15.8C779,720.2,748.7,702.6,740.1,717.2z"/>
	<path class="st1" d="M757.2,682.5c-6.9,14.1,1.7,10.2,12,13.9c10.3,3.7,13.1,17.2,19.4,1.5C794.9,682.3,764.6,667.4,757.2,682.5z"
		/>
	<path class="st1" d="M489.6,682.9c-6.9,14.1-1.9,31.3,10.4,25.3c12.4-6,18.8-8.2,27.5-4c8.7,4.3,19.9-10.4,13.4-13.6
		c-6.5-3.2-17.9-18.2-29.2-11.7C500.4,685.5,489.6,682.9,489.6,682.9z"/>
	<path class="st1" d="M478.5,727.2c-4,10.1-0.3,28.1,8.3,24.2c8.6-3.8,13.5-8.2,20.5-3.4c7,4.8,10.7-8.2,15-16.8
		c4.3-8.7-10.9-8-17.9-12.8C497.3,713.6,484.4,712.6,478.5,727.2z"/>
	<path class="st1" d="M455,756c-5.2,13.6-9.5,35.7,3.5,31.3c12.9-4.4,11.2-12,22.1-6.6c10.8,5.3,14.6,3.1,17.8-6.1
		c3.2-9.2-13.5-2.6-20.1-13.9C471.7,749.4,459.8,743.5,455,756z"/>
</g>
</svg>
