<?xml version="1.0" encoding="utf-8"?>
<!-- Generator: Adobe Illustrator 20.1.0, SVG Export Plug-In . SVG Version: 6.00 Build 0)  -->
<svg version="1.1" id="Layer_1" xmlns="http://www.w3.org/2000/svg" xmlns:xlink="http://www.w3.org/1999/xlink" x="0px" y="0px"
	 viewBox="0 0 1280 800" style="enable-background:new 0 0 1280 800;" xml:space="preserve">
<style type="text/css">
	.st0{fill:#FFFFFF;}
</style>
<title>pisces</title>
<g id="pisces">
	<path class="st0" d="M240.7,109.4c0,0,32.5-33.5,52.2-40.4s59.1-20.7,72.9,18.7s7.9,85.7-11.8,92.6s-66,1-92.6-11.8l59.1-20.7
		C320.5,147.7,280.1,95.6,240.7,109.4z M326.4,101.5c19.7-6.9,21-29.5-6.9-19.7C299.8,88.7,306.7,108.4,326.4,101.5z"/>
	<path class="st0" d="M352,48.3c0,0,112.3,4.9,159.6,76.8s55.2,157.5-16.7,204.8s-93.4,35.6-109.9,69.8s-31.4,100-31.4,100
		s-10.4-56.9-38.3-72s-87.1-25.2-87.1-25.2s34.7,0.9,96.7-22s119.6-54.9,129.3-91.6s1-95.3-57.5-99.7c0,0,50.9-26.4,24.4-72.6
		C387.6,58.3,352,48.3,352,48.3z"/>
	<path class="st0" d="M377.3,83.2c0,0,36.5,22.8,33.7,52.2s-39.9,52-39.9,52S403.7,121.4,377.3,83.2z"/>
	<path class="st0" d="M396.7,196.3c0,0-16.2,4.5-13.8,21.5s5.7,22.9,5.7,22.9s2.5-19.9,13.4-26.1S396.7,196.3,396.7,196.3z"/>
	<path class="st0" d="M379.6,306.6c0,0,9,8.7,29.6-6.8s27.1,13,11.3,22.1S379.6,306.6,379.6,306.6z"/>
	<path class="st0" d="M478.3,66.8c0,0,30.5-17.8,46.3-6.7l15.8,11.1l-40.5,16.6C499.9,87.8,489.8,72.3,478.3,66.8z"/>
	<polygon class="st0" points="507.8,93.3 550,78.5 563.8,100.9 530.4,113.8 	"/>
	<polygon class="st0" points="534.5,125.5 546.2,148.7 574.4,141.2 573.2,114.3 	"/>
	<polygon class="st0" points="551.3,163.5 554.4,179 575.9,172.6 578.1,155.3 	"/>
	<polygon class="st0" points="555.7,192.8 556.2,204.5 573.8,197.1 572.6,186.9 	"/>
	<path class="st0" d="M827,638.8l-59.5,53.5c2-37.7,23.8-93.1,43.6-111s75.3,4,111,43.6s-4,75.3-23.8,93.1S821,751.7,821,751.7
		C860.7,716.1,827,638.8,827,638.8z M900.3,680.4c28-25.2,2-37.7-17.8-19.8S880.5,698.2,900.3,680.4L900.3,680.4z"/>
	<path class="st0" d="M957.8,664.5c0,0,63.4-128.8,11.9-225.9S827,280.1,729.9,331.6s-97.2,82.9-145.7,80.3s-131.3-26.1-131.3-26.1
		s57.3,46.6,57.2,87.1S484.9,586,484.9,586s20.3-39.5,84-94.9s134.9-100.3,181.9-88.7s107.4,57.3,76.5,125.5
		c0,0,60.9-40.8,96.3,17.2C968.4,618.5,957.8,664.5,957.8,664.5z"/>
	<path class="st0" d="M934.1,614.7c0,0-3.2-54.9-37.8-69.9s-82.7,12.9-82.7,12.9S907.5,561.7,934.1,614.7z"/>
	<path class="st0" d="M819.4,523.6c0,0-15,15.4-32.5,2.3s-22.2-20.4-22.2-20.4s23.8,9.4,37.4,1S819.4,523.6,819.4,523.6z"/>
	<path class="st0" d="M685.2,475c0,0-4.2-15.4,25.8-29s2-38.4-17.9-26.3S685.2,475,685.2,475z"/>
	<path class="st0" d="M1014.5,511.6c0,0,38.7-23.3,35.9-47.7l-2.8-24.5l-43.4,35.2C1004.3,474.6,1015.4,495.4,1014.5,511.6z"/>
	<polygon class="st0" points="1002.9,462.3 1045.4,424 1028.8,394.8 993.8,424.4 	"/>
	<polygon class="st0" points="983.2,412.7 964.4,385.4 990.2,358.3 1019.6,376.1 	"/>
	<polygon class="st0" points="951,370.5 935.5,357.5 955.8,337.3 976.7,345.5 	"/>
	<polygon class="st0" points="920.8,347.6 908.1,339.8 927.1,324.6 937.8,332.3 	"/>
</g>
</svg>
